<svg id="Layer_1" data-name="Layer 1" xmlns="http://www.w3.org/2000/svg" viewBox="0 0 1276.5 971.86"><defs><style>.cls-1{fill:#9a5148;}</style></defs><path class="cls-1" d="M1456.61,1200.34a191,191,0,0,0-95.2-58.41l-93.9-24.43L1472,1339.32h111.39l-4.74-6.73Z" transform="translate(-447.05 -531.63)"/><path class="cls-1" d="M934.32,1063.68,828.81,958.56,919,1339.32H995V1233.24L971,1130A138.25,138.25,0,0,0,934.32,1063.68Z" transform="translate(-447.05 -531.63)"/><path class="cls-1" d="M1253.17,643.17H928.57L737.15,562.9l1.93-4.95c.22-.52.44-1,.62-1.57a18.6,18.6,0,0,0-26.85-22.25,18,18,0,0,0-2.22,1.51l-26.49,18L575.27,563l-.47.48a18,18,0,0,0-13.55,13.84l-76,10.6c-20.45,2.7-38.19,11.9-38.19,32.82,0,22.32,20.19,50.6,42.33,57.46a34,34,0,0,0,7.09,1.42l109.58,22s149.3,151.82,149.3,151.82l195,194.26A160.92,160.92,0,0,1,993,1124.82l2,8.59V1131l49.33,208.33h76.05V1055.87L1289,1099.74l78.06,20.31a213.52,213.52,0,0,1,106.36,65.21l116.79,126.56,26.93,27.5h101.4l3.87-218.47C1727.1,858.42,1515.64,643.17,1253.17,643.17Z" transform="translate(-447.05 -531.63)"/><path class="cls-1" d="M979.83,1446.42a29.65,29.65,0,0,1,13.27,24.72c0,19.08-12.66,31.29-31.89,31.29H918.78V1395.59h39.07c19.08,0,31.74,11.91,31.74,30.52C989.59,1432.68,987.15,1441.68,979.83,1446.42Zm-24.27-8.86c4.58,0,7.78-3.51,7.94-8.7.15-5.8-3.06-9.61-7.94-9.61H944.72v18.31Zm3.51,40.9c4.43,0,7.94-3.66,7.94-9.15,0-5.8-3.51-9.77-7.94-9.77H944.72v18.92Z" transform="translate(-447.05 -531.63)"/><path class="cls-1" d="M1045,1435.12h28.39v24.42H1045v17.4h32.36v25.49h-58.61V1395.59h57.39v24.27H1045Z" transform="translate(-447.05 -531.63)"/><path class="cls-1" d="M1161.75,1502.43l-4.73-13.28h-30.37l-4.73,13.28h-27.63v-1.68l41.06-106.68h13.12l40.6,106.68v1.68Zm-12.21-35c-5-15.42-6.1-20.91-7.78-30.37a276.41,276.41,0,0,1-7.63,30.37Z" transform="translate(-447.05 -531.63)"/><path class="cls-1" d="M1259.58,1502.27l-13.74-33.42h-10.07v33.42h-26.4V1395.59h37.7c21.67,0,36,15.11,36,37.7-.15,12.21-3.35,21.82-12.82,28.85l18.16,38.76v1.37Zm-12.67-56.16c6.41,0,10.69-5.34,10.69-13.43,0-7.79-4.28-13-10.69-13h-11.6v26.4Z" transform="translate(-447.05 -531.63)"/><path class="cls-1" d="M1391,1455.88c1.37-11.14,3.51-21.37,5.65-31.14l8.24-29.15h27.47v1.07l-31,106.83h-17.86l-16.33-48.83h-.46l-15.57,48.83h-18.62l-31-106.68v-1.22H1329l8.4,29.15a267.41,267.41,0,0,1,6.1,31.14h.31l15.41-58.46h17.1l14.34,58.46Z" transform="translate(-447.05 -531.63)"/><path class="cls-1" d="M1480.12,1435.12h28.39v24.42h-28.39v17.4h32.36v25.49h-58.61V1395.59h57.39v24.27h-31.14Z" transform="translate(-447.05 -531.63)"/><path class="cls-1" d="M1596.88,1502.43l-4.74-13.28h-30.37l-4.73,13.28h-27.62v-1.68l41-106.68h13.13l40.59,106.68v1.68Zm-12.21-35c-5-15.42-6.11-20.91-7.79-30.37a274.14,274.14,0,0,1-7.63,30.37Z" transform="translate(-447.05 -531.63)"/><path class="cls-1" d="M1694.7,1502.27,1681,1468.85H1670.9v33.42h-26.41V1395.59h37.7c21.67,0,36,15.11,36,37.7-.15,12.21-3.36,21.82-12.82,28.85l18.16,38.76v1.37ZM1682,1446.11c6.41,0,10.68-5.34,10.68-13.43,0-7.79-4.27-13-10.68-13h-11.6v26.4Z" transform="translate(-447.05 -531.63)"/></svg>