<svg id="logo10" xmlns="http://www.w3.org/2000/svg" viewBox="0 0 566.93 566.93"><defs><style>.cls-1{fill:#6f7070;}.cls-2{fill:#939c9e;}.cls-3{fill:#9e8f70;}</style></defs><g id="Co.name"><path class="cls-1" d="M151.53,436.5v46.11H138.78V436.5H122.59v-11h45.13v11Z"/><path class="cls-1" d="M223.57,474.72a31.12,31.12,0,0,1-42.68,0,29.9,29.9,0,0,1,0-42.11,31.14,31.14,0,0,1,42.68,0,29.9,29.9,0,0,1,0,42.11Zm-4.34-21a18.68,18.68,0,0,0-4.9-13,16.17,16.17,0,0,0-24.12,0,19.72,19.72,0,0,0,0,26,16.25,16.25,0,0,0,24.12,0A18.54,18.54,0,0,0,219.23,453.71Z"/><path class="cls-1" d="M260,458.33l10.14-32.87h13.33l10.06,32.87,11.36-32.87h13.82l-20,57.15h-9.48l-12.51-39.73-12.43,39.73H254.8l-20-57.15h13.82Z"/><path class="cls-1" d="M366.66,425.46v11.36H338.2V448.6h25.6v10.87H338.2v11.86h29.36v11.28H325.45V425.46Z"/><path class="cls-1" d="M425.29,444.43q0,13.74-10.88,17.74l14.47,20.44h-15.7l-12.67-18.23h-8.83v18.23H378.92V425.46h21.67q13.34,0,19,4.5T425.29,444.43Zm-15.38,6.78c1.58-1.41,2.38-3.66,2.38-6.74s-.82-5.19-2.46-6.34-4.5-1.72-8.58-1.72h-9.57v16.93H401Q407.54,453.34,409.91,451.21Z"/></g><g id="Co.slogan"><path class="cls-2" d="M169.51,510a8.74,8.74,0,0,1,8.4-5.34v3.51c-4.94-.08-8,3-8.4,7.61v12.45H166V504.75h3.47Z"/><path class="cls-2" d="M202.77,517.82H183.65a8.21,8.21,0,0,0,8.49,7.47,9.76,9.76,0,0,0,7.25-2.94l1.91,2a12.31,12.31,0,0,1-9.43,3.92c-6.89,0-11.65-4.85-11.65-11.83s4.81-11.83,11.61-11.83C199.39,504.61,203.13,509.86,202.77,517.82ZM199.66,515c-.22-4.49-3.25-7.33-7.83-7.33a7.9,7.9,0,0,0-8.18,7.33Z"/><path class="cls-2" d="M223.27,524.58c-1.87,2.53-4.85,3.78-8.58,3.78-4.85,0-8-3.11-8-7.16s3.24-6.67,8.76-6.72h7.69v-1.37c0-3.43-2.13-5.47-6.27-5.47a13,13,0,0,0-7.43,2.66L208,507.77c3-2,5.56-3.16,9.56-3.16,5.78,0,9,3.07,9,8.09l0,15.48h-3.38Zm0-4.49v-2.8h-7.3c-3.91,0-6,1.2-6,3.78s2.09,4.27,5.38,4.27C219.31,525.34,222.34,523.33,223.23,520.09Z"/><path class="cls-2" d="M234.61,528.18v-33h3.47v33Z"/><path class="cls-2" d="M279.13,517.82H260a8.21,8.21,0,0,0,8.5,7.47,9.73,9.73,0,0,0,7.24-2.94l1.92,2a12.34,12.34,0,0,1-9.43,3.92c-6.89,0-11.65-4.85-11.65-11.83s4.8-11.83,11.6-11.83C275.74,504.61,279.48,509.86,279.13,517.82ZM276,515c-.22-4.49-3.24-7.33-7.83-7.33A7.91,7.91,0,0,0,260,515Z"/><path class="cls-2" d="M298.78,506.75l-1.33,2.75a12.45,12.45,0,0,0-6.36-1.91c-2.62,0-4.63.93-4.63,3.11,0,5.21,13.08,2.54,13.08,10.94,0,4.63-4.09,6.68-8.59,6.68a13.22,13.22,0,0,1-9-3.3l1.34-2.62a11.84,11.84,0,0,0,7.78,3c2.76,0,5-1,5-3.34.14-5.64-13-2.75-12.94-11.07,0-4.49,3.87-6.36,8.14-6.36A13.48,13.48,0,0,1,298.78,506.75Z"/><path class="cls-2" d="M317.33,526.58a9.81,9.81,0,0,1-5.3,1.78c-3.42,0-6-2.05-6-6.67V508.3h-3.38v-2.8h3.38v-6.18h3.43v6.18l7.42,0v2.84H309.5v12.77c0,2.84,1.11,3.91,3.11,3.91a7.11,7.11,0,0,0,3.74-1.2Z"/><path class="cls-2" d="M337.11,524.58c-1.86,2.53-4.84,3.78-8.58,3.78-4.85,0-8-3.11-8-7.16s3.25-6.67,8.76-6.72H337v-1.37c0-3.43-2.13-5.47-6.26-5.47a13,13,0,0,0-7.43,2.66l-1.47-2.53c3-2,5.56-3.16,9.56-3.16,5.78,0,9,3.07,9,8.09l0,15.48h-3.38Zm0-4.49v-2.8h-7.29c-3.92,0-6,1.2-6,3.78s2.09,4.27,5.38,4.27C333.16,525.34,336.18,523.33,337.07,520.09Z"/><path class="cls-2" d="M360.33,526.58a9.81,9.81,0,0,1-5.3,1.78c-3.42,0-5.95-2.05-5.95-6.67V508.3H345.7v-2.8h3.38v-6.18h3.42v6.18l7.43,0v2.84H352.5v12.77c0,2.84,1.11,3.91,3.11,3.91a7.09,7.09,0,0,0,3.74-1.2Z"/><path class="cls-2" d="M385.41,517.82H366.29a8.2,8.2,0,0,0,8.49,7.47,9.76,9.76,0,0,0,7.25-2.94l1.91,2a12.31,12.31,0,0,1-9.43,3.92c-6.89,0-11.65-4.85-11.65-11.83s4.81-11.83,11.61-11.83C382,504.61,385.77,509.86,385.41,517.82ZM382.3,515c-.23-4.49-3.25-7.33-7.83-7.33a7.9,7.9,0,0,0-8.18,7.33Z"/></g><path id="Co.logo" class="cls-3" d="M341.36,302.67V138.78l-29,10.8V79l-73.21-40.4V161l15.18-5.65V65.48l42.85,24v65.71l-13.83,5.14V98.54l-15.19-8.69V166l-58,21.6v66.21l-29-10.8V395.66H283.33v-82.2l-15.19-5.65v71.66H196.28V264.88l42.85,15.95v66.26H225.29V291.87l-15.18-5.65v77.06h44.2V286.47L355.19,324v55.46H312.34v-39l13.84,5.15v17.68h15.18V335.06l-44.2-16.45v77.05h73.22v-82.2ZM326.18,297l-42.85-15.95V209l13.83-5.14v66.62l15.18,5.65V182l-44.2,16.44v77l-42.85-15.94V198.17L239.13,193v55.82l15.18,5.65V187.37l71.87-26.74Z"/></svg>