<svg xmlns="http://www.w3.org/2000/svg" viewBox="0 0 200 200"><defs><style>.cls-1{fill:#1e1e1e;}.cls-2{fill:#d29b67;}.cls-3{fill:#fff;}.cls-4{fill:#f24140;}.cls-5{fill:#ffcfa0;}.cls-6{fill:#d39a72;}.cls-7{fill:#282828;}.cls-8{fill:#b4b7b9;}</style></defs><g id="PIZZA_Chef" data-name="PIZZA+Chef"><path class="cls-1" d="M108.59,127.4c.36.68.47.54.16.3a4.09,4.09,0,0,0,1.75-.56c.87-.52,2.7-2,5.19-3.93,1.18-.94,2.3-1.83,2.85-2.22a1.79,1.79,0,0,0,.64-2,1.73,1.73,0,0,0-.89-1c3.85-2.85,7.69-4.85,10.06-5.41a5.32,5.32,0,0,0,.31-.86,2.63,2.63,0,0,0,.08-.54h-.17l-.28,0c-2.22.18-6.57,2.32-10.93,5.55a1.75,1.75,0,0,1,.24,3c-.54.4-1.66,1.28-2.84,2.22-2.5,2-4.33,3.42-5.19,3.93a3.92,3.92,0,0,1-1.76.56A2.91,2.91,0,0,1,108.59,127.4Zm-15.77,7.84c4.35-3.64,7.64-7.14,9.41-10.1a21.51,21.51,0,0,0,1.22-2.38,9.64,9.64,0,0,1,1.22-5.23,9.06,9.06,0,0,0-2.17-6.08l-.15-.16c2.14,3.4,1.8,7.82-1,12.6-1.85,3.08-5.32,6.76-10,10.56A7.39,7.39,0,0,1,92.82,135.24ZM162,133.79a3.64,3.64,0,0,0,1.21-.38,18.35,18.35,0,0,1,1.6-3.62,100.81,100.81,0,0,1,5.71-8.57l.47-.66c1.53-2.14,3-4.16,4-5.8,3.15-5.14,2.65-9.63.8-11.73a2.4,2.4,0,0,0-.27-.28c1.25,2.35,1.27,6.31-1.46,10.77-1,1.63-2.46,3.65-4,5.79l-.48.66c-2.12,3-4.32,6.09-5.71,8.58-1.61,2.91-1.91,4.59-1.89,5.24Zm-17.12.05a27.23,27.23,0,0,1,4.82-10.28c4.39-6.25,9.15-10.32,12-12a9.22,9.22,0,0,0,.57-2c-2.36.77-8.21,5.16-13.51,12.69-4.17,5.94-5.13,10.56-4.89,11.88A3.93,3.93,0,0,0,144.85,133.84Zm-17.53.33c-.1-.12-.2-.23-.31-.34.08.13.17.26.24.4Zm-2.24-2.49c4.52-3.5,8-6.9,9.87-9.8,3.37-5.18,3.65-10,.79-13.67-.11-.15-.24-.28-.36-.42,2.22,3.52,1.76,8-1.37,12.85-2,3-5.59,6.55-10.38,10.19A7.17,7.17,0,0,1,125.08,131.68ZM73.85,141c-3.11,5.24-8.43,9.3-13.59,10.18a12.29,12.29,0,0,1-2.13.19,7.38,7.38,0,0,1-5.49-2.11,10.68,10.68,0,0,0,.85,1.57c1.33,1.45,3.25,1.79,5.58,1.79a12.18,12.18,0,0,0,2.12-.19c4.91-.84,10-4.56,13.12-9.44A8.54,8.54,0,0,1,73.85,141Zm32.34-2.33a7.78,7.78,0,0,1-.35-1.93c-2.64,3.35-6.73,6-9.56,7.67-.79,9.62-9.77,23.46-15.4,27.46a8,8,0,0,1-3.29,1.48,5.12,5.12,0,0,1-.78.06,6,6,0,0,1-4.32-2.07c-.35-.35-.75-.76-1.15-1.24a16.61,16.61,0,0,0,2.09,2.49,6,6,0,0,0,4.32,2.07,5.09,5.09,0,0,0,.77-.06,7.94,7.94,0,0,0,3.3-1.48c5.62-4,14.61-17.85,15.39-27.46A35.9,35.9,0,0,0,106.19,138.67Zm22,2.3c-1.15,9.59-10.69,23.1-16.48,26.89a8,8,0,0,1-3.36,1.36,4,4,0,0,1-.59,0,6,6,0,0,1-4.44-2.23c-.25-.28-.54-.6-.83-.95a17,17,0,0,0,1.77,2.19,5.91,5.91,0,0,0,4.43,2.23,5.83,5.83,0,0,0,.59,0,7.89,7.89,0,0,0,3.36-1.36c5.8-3.79,15.33-17.3,16.49-26.89a43,43,0,0,0,6.25-3.94,7.71,7.71,0,0,1-.86-1.3A42.69,42.69,0,0,1,128.19,141Zm51.43-17.15a2.9,2.9,0,0,0-.93-1.23c.53,1.35.28,4-1.49,7-3,5-9.59,10.38-15.35,10.67h-.5a9.51,9.51,0,0,1-7-2.51c1.44,2.37,4.21,3.76,7.94,3.76h.5c5.75-.3,12.31-5.65,15.35-10.68C179.91,127.88,180.16,125.17,179.62,123.82ZM59.33,119.09c3.73-6.36,4.5-12,2.29-16.85a13.29,13.29,0,0,0-2-3.22,14.14,14.14,0,0,1,1.08,2c2.21,4.82,1.44,10.5-2.29,16.86C53.48,126.19,43,134.38,31.8,138.73a13.16,13.16,0,0,1-1.91.55,11.51,11.51,0,0,1-2.24.23h0c-.33,0-.66,0-1,0-2,4.92-3.91,10.46-6.08,17.31A2.91,2.91,0,0,1,18.45,159a2.57,2.57,0,0,1-.55.06,3.14,3.14,0,0,1-1.79-.61,6.21,6.21,0,0,1-.75-.65,6.22,6.22,0,0,0,1.68,1.9,3.16,3.16,0,0,0,1.79.61,2.6,2.6,0,0,0,.56-.06A2.91,2.91,0,0,0,21.53,158c2.16-6.85,4.11-12.4,6.07-17.31.33,0,.65,0,1,0h0a10.71,10.71,0,0,0,2.23-.24,11.67,11.67,0,0,0,1.91-.54C44,135.63,54.42,127.43,59.33,119.09Zm83.29,22c-.27,0-.55,0-.82,0a8,8,0,0,1-6-2.4,7.78,7.78,0,0,0,7,3.64l.82,0c4-.29,7.57-2.61,10.36-5.11a6.55,6.55,0,0,1-.85-1.33C150.27,138.49,146.63,140.85,142.62,141.14Zm-82.27,3.45h0a4.54,4.54,0,0,0,1-.38,19.43,19.43,0,0,1,1-3.64c1-2.55,2.51-5.67,4.15-8.91l.29-.56c1-2,2-3.88,2.66-5.44,1.64-3.64,1.71-6.93.91-9.19a5.66,5.66,0,0,0,1.17.12,5.93,5.93,0,0,0,.84-.06,5.18,5.18,0,0,0,3.14-1.69,7,7,0,0,0,.73-8.16,6.32,6.32,0,0,0-.86-1.11,7,7,0,0,1-.81,8,5.06,5.06,0,0,1-3.14,1.69,4.65,4.65,0,0,1-.83.07,5.76,5.76,0,0,1-1.18-.13c.81,2.27.74,5.55-.91,9.19-.7,1.57-1.65,3.45-2.66,5.44l-.29.56a95.64,95.64,0,0,0-4.14,8.91C60.3,142.33,60.24,144,60.35,144.59Zm26-23.42a29.57,29.57,0,0,1,9-5.08,5.8,5.8,0,0,0,.29-.9,2.11,2.11,0,0,0,0-.55H95.6l-.37,0c-2.07.25-6,2.28-10.1,5.49A1.83,1.83,0,0,1,86.37,121.17ZM35,124.43l.41-.84c.62-1.25,1.24-2.49,1.83-3.7,1.92-3.83,3-7,3.11-9.62L43,108.91l.31-.16c2.78-1.44,6.25-3.22,8.68-3.64a5.85,5.85,0,0,1,.87-.08l.32,0a2.28,2.28,0,0,0-.22-.83c-.09-.18-.22-.44-1-.44a5,5,0,0,0-.88.09c-2.42.41-5.89,2.2-8.68,3.63l-.31.16c-.93.48-1.82.94-2.69,1.36-.16,2.63-1.18,5.8-3.11,9.62l-1.82,3.71-.42.83c-.74,1.5-1.51,3.07-2.3,4.73.7-.34,1.38-.69,2-1Zm-7.38-11.88.52-1a8.55,8.55,0,0,1-5.34-2.3,6.66,6.66,0,0,0,.65,1A7.72,7.72,0,0,0,27.57,112.55Z"/><path class="cls-2" d="M155.27,156.12a1.49,1.49,0,1,1-1.48-1.48A1.49,1.49,0,0,1,155.27,156.12Z"/><path class="cls-1" d="M71.71,113.36a3.29,3.29,0,0,0,2.06-1.1,5.2,5.2,0,0,0,.56-6.1,4.16,4.16,0,0,0-4.07-2.09,3.11,3.11,0,0,0-1.91,1,5.28,5.28,0,0,0-.3,6.69A3.78,3.78,0,0,0,71.71,113.36Zm105.87,9.69a.88.88,0,0,0-.86-.66,1.56,1.56,0,0,0-1.16.8c-3.7,5.78-9.25,11.82-12.89,12.17l-.18,0a1.5,1.5,0,0,1-1.46-.6c-.74-1.14-.07-3.86,1.81-7.27a101.56,101.56,0,0,1,5.82-8.74c1.7-2.38,3.32-4.62,4.39-6.35,2.66-4.35,2.37-8.08.94-9.71a1.24,1.24,0,0,0-1.05-.53,2.6,2.6,0,0,0-1.76,1.15c-.9,1.08-1.92,2.47-3.26,4.44a5,5,0,0,0-1.4-3.75,5.55,5.55,0,0,0-4.26-1.34c-2.19.11-10.45,1.51-20.95,15.21a28.3,28.3,0,0,0-5,9.81,31.31,31.31,0,0,1-9.37,9,6.46,6.46,0,0,0-2.24-3.75,7.11,7.11,0,0,0-4.94-1.29c6.13-4.24,11-8.62,13.35-12.2,2.91-4.48,3.25-8.61.87-11.64-1.7-2.2-3.78-3-6.91-2.75a24.56,24.56,0,0,0-2.6.4,30.2,30.2,0,0,0-14,7.67c-3.4,3.33-5,7.11-4.74,9.28a2.34,2.34,0,0,0,3.46,1.75c1.36-.81,6.43-5,7.9-6.06a34.39,34.39,0,0,0-5.09,1.07c5.78-5.53,13-9.65,16.66-10a2.27,2.27,0,0,1,1.92.47,2.39,2.39,0,0,1,.32,2.24c-.93,3.76-7,10.56-18.18,17.59-3.92,2.47-5.39,5.59-4.21,8.77a.79.79,0,0,0,.86.54,2.42,2.42,0,0,0,1.11-.55,18,18,0,0,1,8.48-3.63,3.19,3.19,0,0,1,2.57.48c.66.79.79,2.12.4,3.94-6.38,3-15.1,8.16-18.74,16.57-2.31,5.35.28,8.14,2,10a4.05,4.05,0,0,0,3.52,1.63,6.36,6.36,0,0,0,2.6-1.08c5.55-3.63,15.26-17.39,15.78-26.55a38.41,38.41,0,0,0,8.83-5.88c.68,3.7,3.31,5.71,7.14,5.43,4.83-.35,9.14-4.26,11.58-6.92,0,3.85,2.72,6.09,7.28,6.09h.41c5.12-.26,11.19-5.29,13.92-9.81C177.77,126,177.88,123.79,177.58,123.05Zm-70.24,39.21c-.13,0-.19,0-.22-.06a3.06,3.06,0,0,1-.16-2.38c.9-4.49,5.53-11.7,13.78-17C117.32,151.22,109.36,162,107.34,162.26Zm36.9-26.46h0a1.31,1.31,0,0,1-1.33-.7c-1-1.89.47-7.65,4.92-14,5.61-8,12.59-13.43,15.46-13.57h.18a1,1,0,0,1,.92.55c.71,1.41-.63,5.84-6.28,14.16C152.22,130.87,147.54,135.56,144.24,135.8Zm-38.05-2.11c1.33-2.4,1.79-4.91,1.37-5.66a1,1,0,0,0-1-.59,1.51,1.51,0,0,0-1.12.82,32.6,32.6,0,0,1-10.55,12,6.52,6.52,0,0,0-2.37-3.67,7.07,7.07,0,0,0-5-1.11c6-4.45,10.63-9,12.82-12.66,2.73-4.58,2.92-8.72.43-11.66-1.78-2.14-3.88-2.89-7-2.5a23.39,23.39,0,0,0-2.57.5,28.42,28.42,0,0,0-13.61,8.16c-8.18,9.24-2.1,12.27.31,10.69,1.48-1,6.07-5,7.41-6.15a.09.09,0,0,0-.08-.16c-1.68.42-3.38.74-5,1.29,0,0-.69.17.1-.63,5.38-5.26,11.88-9.2,15.26-9.61a2.22,2.22,0,0,1,1.92.4,2.35,2.35,0,0,1,.41,2.22c-.78,3.8-6.6,10.81-17.43,18.23-3.81,2.61-5.15,5.78-3.85,8.92a.78.78,0,0,0,.87.5,2.29,2.29,0,0,0,1.08-.59,18,18,0,0,1,8.31-3.94,3.21,3.21,0,0,1,2.57.39c.7.77.88,2.09.55,3.93-6.23,3.26-14.72,8.69-18,17.23-2.09,5.42.59,8.11,2.34,9.9a4,4,0,0,0,3.57,1.5h0a6.32,6.32,0,0,0,2.54-1.18c5.39-3.82,14.53-17.92,14.71-27.08C97.26,142,103.64,138.3,106.19,133.69ZM76.32,166.46a.22.22,0,0,1-.21-.05,3,3,0,0,1-.25-2.38c.73-4.51,5-11.88,13.07-17.5C85.84,155.07,78.33,166.13,76.32,166.46Zm-2-34a1,1,0,0,0-1-.54,1.35,1.35,0,0,0-1,.85c-2.4,5.83-7.06,12.49-11.11,13.35l-.19,0a1.44,1.44,0,0,1-1.47-.41c-.86-1-.61-3.65.72-7.23,1-2.67,2.63-5.93,4.22-9.08,1.11-2.19,2.17-4.26,2.92-5.93,2-4.47,1.38-8.27-.27-9.58a1.33,1.33,0,0,0-1.09-.36c-.51.08-1,.48-1.57,1.32-3.16,4.74-8.92,16-10.89,22.7-1.35,4.62-1.07,8.24.74,10.2,1.32,1.43,3.43,1.93,6.13,1.48,5.19-.89,10.77-5.57,13.33-11.2C74.93,135.63,75.1,133.75,74.33,132.47ZM59.62,101.54C57.51,96.9,54,95.15,48.5,96.1l-.77.15a48.21,48.21,0,0,0-10.28,4c-3.17,1.53-5.68,3.37-9.2,4.14a2.26,2.26,0,0,1-2.59-1c-.64-1.19-2-.71-2.19.66-.69,4.24,3.64,6.1,8.14,5.44-7.35,13.37-14.15,30.74-15.67,38.83-1,5.25.39,7.49,1.69,8.44a1.27,1.27,0,0,0,1,.29c.57-.13.78-.81.84-1,2.44-7.73,4.59-13.71,6.66-18.77a8.4,8.4,0,0,0,4,.08,11.29,11.29,0,0,0,1.62-.46c10.83-4.19,20.92-12,25.71-20.14C60.81,111,61.6,105.86,59.62,101.54Zm-5.73,9.33c-3.3,6.44-11.65,15-25.18,20.32,1.45-3.25,2.87-6.16,4.26-9,.77-1.55,1.52-3,2.25-4.55,2.07-4.12,3.05-7.37,2.94-10,1.22-.57,2.54-1.25,3.93-2,3.23-1.66,6.6-3.36,9.19-3.8,1.94-.33,3.17.09,3.78,1.29C55.93,105,55.49,107.73,53.89,110.87Z"/><path class="cls-2" d="M99,197.14c-30.18,0-57.66-16.57-68.37-41.24a.62.62,0,0,1,.33-.83.63.63,0,0,1,.83.32C42.33,179.61,69.34,195.88,99,195.88a82,82,0,0,0,20.54-2.6.63.63,0,1,1,.32,1.22A83.06,83.06,0,0,1,99,197.14Z"/><path class="cls-2" d="M122.65,193.71a.63.63,0,0,1-.17-1.24,4.63,4.63,0,0,0,.83-.28,6,6,0,0,1,.88-.34.62.62,0,0,1,.8.39.64.64,0,0,1-.39.81,5,5,0,0,0-.76.29,7.28,7.28,0,0,1-1,.35Z"/><path class="cls-2" d="M127.38,192.12a.62.62,0,0,1-.59-.42.63.63,0,0,1,.37-.81c17.64-6.55,31.77-19.24,38.78-34.8a.63.63,0,0,1,.83-.32.64.64,0,0,1,.32.84c-7.14,15.87-21.53,28.8-39.49,35.47A.85.85,0,0,1,127.38,192.12Z"/><path class="cls-2" d="M69,164.13a61.43,61.43,0,0,1-16-15.38,10.77,10.77,0,0,1-2-2.37c-.58-.9-.92-2-1.47-2.9a.63.63,0,1,0-1.09.64A63.29,63.29,0,0,0,69.56,166l.06,0A17.45,17.45,0,0,1,69,164.13Z"/><path class="cls-2" d="M148.93,144a.63.63,0,0,0-.87.21c-10.93,18.16-29.28,29-49.06,29a53.82,53.82,0,0,1-13.68-1.77c-.31.28-.72.64-1.19,1a55.28,55.28,0,0,0,14.87,2c20.23,0,39-11.07,50.15-29.61A.64.64,0,0,0,148.93,144Z"/><path class="cls-2" d="M44.56,156.12a1.49,1.49,0,1,1-3,0,1.49,1.49,0,0,1,3,0Z"/><path class="cls-3" d="M43.86,155.51a.79.79,0,1,1-1.58,0,.79.79,0,1,1,1.58,0Z"/><path class="cls-3" d="M154.58,155.51a.79.79,0,1,1-1.58,0,.79.79,0,1,1,1.58,0Z"/><path class="cls-2" d="M108.36,126.37c.36.69.48.55.16.3a3.84,3.84,0,0,0,1.75-.56c.87-.51,2.7-2,5.19-3.93,1.19-.94,2.3-1.82,2.85-2.22a1.77,1.77,0,0,0,.64-2,1.74,1.74,0,0,0-.88-1c3.85-2.85,7.68-4.84,10.05-5.4a5.41,5.41,0,0,0,.31-.87,2,2,0,0,0,.08-.54h-.45c-2.22.19-6.57,2.32-10.93,5.56a1.76,1.76,0,0,1,.25,3c-.55.39-1.67,1.28-2.85,2.21-2.49,2-4.33,3.42-5.19,3.94a4,4,0,0,1-1.76.55A2.79,2.79,0,0,1,108.36,126.37Zm-15.77,7.85c4.35-3.64,7.64-7.15,9.42-10.11a20.43,20.43,0,0,0,1.21-2.37,9.8,9.8,0,0,1,1.22-5.23,9,9,0,0,0-2.16-6.08l-.16-.17c2.15,3.4,1.8,7.82-1.05,12.61-1.85,3.08-5.32,6.75-9.95,10.55A6.71,6.71,0,0,1,92.59,134.22Zm69.15-1.46a3.6,3.6,0,0,0,1.21-.37,19,19,0,0,1,1.6-3.62,100.81,100.81,0,0,1,5.71-8.57l.47-.67c1.54-2.14,3-4.16,4-5.79,3.14-5.15,2.64-9.63.8-11.74l-.28-.28c1.25,2.35,1.27,6.31-1.46,10.77-1,1.63-2.46,3.66-4,5.8l-.47.66a101.1,101.1,0,0,0-5.72,8.57c-1.61,2.92-1.91,4.6-1.89,5.25Zm-17.11.06c.36-2.14,1.69-5.85,4.81-10.29,4.39-6.24,9.15-10.32,12-12a9.27,9.27,0,0,0,.57-2c-2.36.78-8.2,5.16-13.51,12.7-4.17,5.93-5.13,10.55-4.89,11.87A4.48,4.48,0,0,0,144.63,132.82Zm-17.54.33c-.09-.12-.2-.23-.31-.35.08.13.17.26.24.4Zm-2.24-2.5c4.53-3.49,8-6.89,9.87-9.79,3.37-5.19,3.65-10,.79-13.68-.11-.15-.23-.28-.35-.42,2.21,3.53,1.75,8-1.37,12.85-2,3-5.6,6.56-10.38,10.19A7.37,7.37,0,0,1,124.85,130.65ZM73.62,140c-3.1,5.25-8.43,9.31-13.59,10.19a13.36,13.36,0,0,1-2.13.19,7.42,7.42,0,0,1-5.49-2.11,11.81,11.81,0,0,0,.85,1.57c1.33,1.44,3.25,1.78,5.58,1.78A12.38,12.38,0,0,0,61,151.4c4.9-.83,10-4.56,13.12-9.44A8,8,0,0,1,73.62,140ZM106,137.64a8.27,8.27,0,0,1-.35-1.93c-2.64,3.36-6.73,6.06-9.56,7.68-.79,9.61-9.77,23.46-15.39,27.45a8,8,0,0,1-3.3,1.49,5.12,5.12,0,0,1-.78.06,6,6,0,0,1-4.32-2.07c-.34-.36-.75-.77-1.15-1.25a16.12,16.12,0,0,0,2.09,2.49,6,6,0,0,0,4.32,2.07,5.32,5.32,0,0,0,.78-.06,7.83,7.83,0,0,0,3.29-1.48c5.63-4,14.61-17.84,15.39-27.46A35.67,35.67,0,0,0,106,137.64ZM128,140c-1.16,9.58-10.7,23.1-16.49,26.89a8,8,0,0,1-3.36,1.36l-.59,0a6,6,0,0,1-4.44-2.23c-.25-.28-.54-.59-.83-.94a17.76,17.76,0,0,0,1.77,2.19,6,6,0,0,0,4.43,2.23q.3,0,.6,0a8,8,0,0,0,3.36-1.37c5.79-3.79,15.33-17.3,16.48-26.89a42.45,42.45,0,0,0,6.25-3.94,7.33,7.33,0,0,1-.86-1.3A42.51,42.51,0,0,1,128,140Zm51.42-17.15a2.8,2.8,0,0,0-.93-1.24c.53,1.35.28,4.06-1.49,7.05-3,5-9.59,10.38-15.34,10.67l-.51,0a9.52,9.52,0,0,1-7-2.52c1.44,2.38,4.21,3.76,7.94,3.77l.5,0c5.75-.29,12.32-5.65,15.35-10.67C179.68,126.86,179.93,124.15,179.39,122.8ZM59.1,118.07c3.73-6.36,4.5-12,2.29-16.86a13.22,13.22,0,0,0-2-3.21,13.57,13.57,0,0,1,1.08,2c2.22,4.83,1.45,10.5-2.29,16.86-4.91,8.34-15.35,16.54-26.59,20.88a13.16,13.16,0,0,1-1.91.55,11.51,11.51,0,0,1-2.24.23h0c-.33,0-.66,0-1,0-2,4.91-3.91,10.46-6.07,17.3A2.91,2.91,0,0,1,18.22,158a2.51,2.51,0,0,1-.55.06,3.14,3.14,0,0,1-1.79-.61,7.39,7.39,0,0,1-.75-.66,6.22,6.22,0,0,0,1.68,1.9,3.16,3.16,0,0,0,1.79.61,2.6,2.6,0,0,0,.56-.06A2.9,2.9,0,0,0,21.3,157c2.16-6.85,4.11-12.39,6.08-17.31.32,0,.65,0,1,0h0a11.59,11.59,0,0,0,2.24-.23,13.16,13.16,0,0,0,1.91-.55C43.75,134.6,54.19,126.41,59.1,118.07Zm83.3,22.05-.82,0a8,8,0,0,1-6-2.4,7.79,7.79,0,0,0,6.95,3.65l.82,0c4-.29,7.57-2.61,10.36-5.12a6.76,6.76,0,0,1-.85-1.32C150,137.46,146.4,139.83,142.4,140.12Zm-82.28,3.44h0a4.15,4.15,0,0,0,1-.38,18.88,18.88,0,0,1,1-3.64c1-2.55,2.51-5.67,4.15-8.91l.29-.56c1-2,2-3.87,2.66-5.44,1.64-3.64,1.71-6.92.91-9.19a5.67,5.67,0,0,0,1.17.13,4.76,4.76,0,0,0,.84-.07,5.08,5.08,0,0,0,3.14-1.69,7,7,0,0,0,.73-8.15,6.79,6.79,0,0,0-.86-1.12,7,7,0,0,1-.81,8,5.12,5.12,0,0,1-3.14,1.7,5.69,5.69,0,0,1-.83.06,5.14,5.14,0,0,1-1.18-.13c.81,2.27.74,5.55-.9,9.19-.7,1.57-1.66,3.45-2.67,5.44l-.28.57c-1.64,3.24-3.19,6.35-4.15,8.9C60.07,141.31,60,142.94,60.12,143.56Zm26-23.41a30,30,0,0,1,9-5.09,5.48,5.48,0,0,0,.29-.9,2.07,2.07,0,0,0,0-.54h-.07l-.37,0c-2.07.26-6,2.28-10.1,5.49A1.87,1.87,0,0,1,86.14,120.15ZM34.72,123.4l.41-.83c.63-1.26,1.24-2.5,1.83-3.71,1.93-3.82,2.95-7,3.11-9.62.86-.42,1.76-.88,2.69-1.36l.31-.16c2.79-1.43,6.25-3.22,8.68-3.63a4.94,4.94,0,0,1,.87-.09l.33,0a2.42,2.42,0,0,0-.23-.82c-.09-.18-.22-.44-1-.44a5.73,5.73,0,0,0-.87.08c-2.43.42-5.9,2.2-8.69,3.63l-.31.16c-.93.48-1.82.94-2.68,1.36-.16,2.64-1.19,5.8-3.12,9.63-.59,1.21-1.2,2.44-1.82,3.7l-.41.84c-.75,1.5-1.52,3.06-2.3,4.72.69-.34,1.37-.68,2-1Zm-7.37-11.88.51-1a8.56,8.56,0,0,1-5.34-2.31,6.14,6.14,0,0,0,.65,1A7.65,7.65,0,0,0,27.35,111.52Z"/><path class="cls-3" d="M70.43,110.83a3.35,3.35,0,0,0,2.07-1.1,5.22,5.22,0,0,0,.55-6.1,4.17,4.17,0,0,0-4.07-2.1,3.17,3.17,0,0,0-1.91,1,5.28,5.28,0,0,0-.3,6.69A3.81,3.81,0,0,0,70.43,110.83Zm105.88,9.69a.89.89,0,0,0-.87-.66,1.53,1.53,0,0,0-1.15.8c-3.7,5.78-9.26,11.82-12.89,12.17h-.19a1.47,1.47,0,0,1-1.46-.59c-.74-1.14-.07-3.86,1.81-7.27a104,104,0,0,1,5.82-8.74c1.7-2.38,3.32-4.62,4.4-6.35,2.65-4.35,2.36-8.09.93-9.72a1.3,1.3,0,0,0-1.05-.53,2.64,2.64,0,0,0-1.76,1.16c-.9,1.08-1.92,2.47-3.26,4.44a5,5,0,0,0-1.39-3.75,5.56,5.56,0,0,0-4.26-1.34c-2.2.11-10.45,1.51-21,15.21a28.65,28.65,0,0,0-5,9.81,31.2,31.2,0,0,1-9.37,9,6.5,6.5,0,0,0-2.23-3.75,7.14,7.14,0,0,0-5-1.3c6.14-4.23,11-8.61,13.35-12.19,2.91-4.48,3.26-8.61.87-11.64-1.7-2.2-3.78-3-6.91-2.75a21.77,21.77,0,0,0-2.59.4,30.14,30.14,0,0,0-14,7.67c-3.4,3.33-5,7.11-4.74,9.28a2.35,2.35,0,0,0,3.46,1.75c1.36-.81,6.43-5,7.91-6.06a34.13,34.13,0,0,0-5.09,1.07c5.77-5.53,13-9.65,16.66-10a2.24,2.24,0,0,1,1.91.47,2.36,2.36,0,0,1,.32,2.24c-.93,3.76-7,10.56-18.18,17.59-3.92,2.47-5.39,5.59-4.2,8.77a.77.77,0,0,0,.86.53,2.26,2.26,0,0,0,1.1-.54,18.15,18.15,0,0,1,8.48-3.64,3.22,3.22,0,0,1,2.57.49c.67.79.8,2.12.4,3.94-6.38,3-15.1,8.16-18.74,16.57-2.31,5.35.28,8.14,2,10a4.06,4.06,0,0,0,3.53,1.63,6.31,6.31,0,0,0,2.59-1.08c5.55-3.63,15.27-17.39,15.79-26.55a38.39,38.39,0,0,0,8.82-5.88c.68,3.7,3.31,5.71,7.15,5.43,4.83-.36,9.13-4.26,11.58-6.92,0,3.84,2.71,6.09,7.27,6.09H161c5.13-.26,11.19-5.29,13.93-9.81C176.49,123.41,176.61,121.26,176.31,120.52Zm-70.25,39.21a.2.2,0,0,1-.21-.06,3,3,0,0,1-.17-2.38c.91-4.49,5.53-11.7,13.78-17C116,148.69,108.08,159.48,106.06,159.73ZM143,133.27h0a1.32,1.32,0,0,1-1.33-.7c-1-1.89.47-7.65,4.92-14,5.61-8,12.59-13.43,15.46-13.57h.18a1,1,0,0,1,.92.55c.72,1.41-.63,5.84-6.28,14.16C151,128.34,146.26,133,143,133.27Zm-38-2.11c1.32-2.4,1.78-4.91,1.36-5.67a1,1,0,0,0-1-.58,1.5,1.5,0,0,0-1.11.81,32.58,32.58,0,0,1-10.56,12,6.47,6.47,0,0,0-2.37-3.67,7.07,7.07,0,0,0-5-1.11c6-4.45,10.63-9,12.83-12.66,2.73-4.58,2.91-8.72.43-11.66-1.78-2.14-3.88-2.89-7-2.5a23.39,23.39,0,0,0-2.57.5,28.39,28.39,0,0,0-13.61,8.16c-8.17,9.24-2.1,12.27.32,10.69,1.47-1,6.07-5,7.4-6.15a.09.09,0,0,0-.07-.16c-1.68.42-3.39.74-5,1.29,0,0-.7.16.1-.63,5.37-5.26,11.87-9.2,15.26-9.61a2.24,2.24,0,0,1,1.92.4,2.34,2.34,0,0,1,.4,2.22c-.78,3.8-6.6,10.81-17.43,18.23-3.81,2.61-5.15,5.78-3.85,8.91a.78.78,0,0,0,.87.51,2.36,2.36,0,0,0,1.09-.59,18,18,0,0,1,8.3-3.94,3.18,3.18,0,0,1,2.58.39c.69.77.87,2.09.54,3.93-6.23,3.26-14.72,8.69-18,17.23-2.1,5.42.58,8.11,2.33,9.9a4,4,0,0,0,3.57,1.5h0a6.37,6.37,0,0,0,2.55-1.18c5.38-3.82,14.53-17.92,14.7-27.08C96,139.46,102.37,135.77,104.92,131.16ZM75.05,163.93a.24.24,0,0,1-.22-.06,3,3,0,0,1-.25-2.37c.73-4.51,5.06-11.89,13.07-17.5C84.56,152.53,77.05,163.6,75.05,163.93Zm-2-34a1,1,0,0,0-1-.54c-.22,0-.63.18-1,.85-2.4,5.83-7,12.49-11.11,13.35l-.18,0a1.47,1.47,0,0,1-1.48-.41c-.86-1-.61-3.65.72-7.23a99,99,0,0,1,4.22-9.08c1.11-2.19,2.17-4.26,2.92-5.94,2-4.46,1.38-8.26-.27-9.57a1.31,1.31,0,0,0-1.08-.36c-.52.08-1,.48-1.58,1.32-3.16,4.74-8.92,16-10.88,22.7-1.36,4.61-1.08,8.24.74,10.2,1.31,1.43,3.43,1.93,6.12,1.48,5.19-.89,10.78-5.57,13.34-11.2C73.66,133.1,73.83,131.22,73.05,129.94ZM58.34,99c-2.11-4.63-5.66-6.38-11.11-5.43q-.39.06-.78.15a48.21,48.21,0,0,0-10.28,4c-3.17,1.53-5.68,3.37-9.2,4.14a2.25,2.25,0,0,1-2.58-1c-.64-1.19-2-.71-2.2.66-.69,4.24,3.64,6.1,8.14,5.44C23,120.37,16.18,137.74,14.66,145.83c-1,5.25.4,7.49,1.69,8.44a1.29,1.29,0,0,0,1,.29c.58-.13.78-.81.84-1,2.45-7.74,4.59-13.71,6.67-18.77a8.35,8.35,0,0,0,4,.08,10.93,10.93,0,0,0,1.62-.46c10.83-4.19,20.92-12,25.71-20.14C59.53,108.45,60.32,103.33,58.34,99Zm-5.73,9.34c-3.29,6.44-11.65,15-25.18,20.32,1.45-3.25,2.88-6.16,4.27-9,.76-1.55,1.51-3,2.24-4.55,2.07-4.12,3.05-7.37,2.94-10,1.22-.57,2.54-1.25,3.94-2,3.23-1.66,6.59-3.36,9.19-3.8,1.93-.33,3.17.09,3.77,1.29C54.65,102.42,54.22,105.2,52.61,108.34Z"/><path class="cls-4" d="M101.75,53.18A3.05,3.05,0,0,0,102,51a.42.42,0,0,1,0-.06,9.64,9.64,0,0,0,4.6-2.9.73.73,0,0,1,1-.07l0,0c.35.34,0,1.24.15,1.54s2.09.41,2.27.79a1,1,0,0,1,.1.8c0,.11-1.75,2.54-7,3.81a8.25,8.25,0,0,1-1.79.26l0,0c-.85,2.54,2.89,4.57,2.86,4.5-.52-1.06-2.15-2.91-1.6-2.82a3.09,3.09,0,0,1,1.74.54c1.93,1.57,2.83,3.58,4,4s-2.12,1-5.22-.06c-3.84-1.31-4.87-3.63-5.25-4.91,0,0,0,0,0,0a2.91,2.91,0,0,0,2.2-1.47s0-.22,0-.2a4.51,4.51,0,0,1-4.78,0c-.2-.12-.36.06-.24.26a2.76,2.76,0,0,0,2.18,1.4,0,0,0,0,1,0,.06,10.39,10.39,0,0,1-6.27,5.73c-4.31,1.45-6.86.65-5.73.19s2.83-3.69,5.56-5.09c.65-.33,1-.28,1.31-.47.54-.1-1.09,1.75-1.61,2.81,0,.07,3.16-2,3.34-4.47a.07.07,0,0,0,0-.05A10.56,10.56,0,0,1,92.12,55c-5.4-1.11-6.91-3.7-7-3.81a1,1,0,0,1,.1-.8c.18-.38,2.11-.49,2.27-.79s-.2-1.2.15-1.54l0,0a.73.73,0,0,1,1,.07,9.57,9.57,0,0,0,4.6,2.9l.07.14a3.12,3.12,0,0,0,.25,2.08,0,0,0,0,1,0,.06l-.88-.19a12.49,12.49,0,0,1-2.14-.71s-.07,0,0,0c1,.81,2.45,1.85,3.83,1.8.31,0-.3-2.74,1.31-2.68.41,0,.85,0,1.33,0H98.4l1.25,0c1.56,0,1.08,2.66,1.38,2.68,1.38.05,2.81-1,3.83-1.8a0,0,0,0,0,0,0,12.59,12.59,0,0,1-2.15.71l-.88.19A.05.05,0,0,1,101.75,53.18Z"/><path class="cls-5" d="M99,99.65a.66.66,0,0,1-.07,1.13c-4.81,3.19-14.64,6.3-24.09,5.28-6.17-.67-9-3.49-9.07-3.51a.85.85,0,0,0-.51-.15c-1.31.08-3.75.55-4.56-.63a2.2,2.2,0,0,1-.21-.41c-.69-1.67.71-4.13,1.94-5.46a18.58,18.58,0,0,1,11.31-6.16C86.42,88.21,99,99.65,99,99.65Z"/><path class="cls-5" d="M123.47,79.61a4.27,4.27,0,0,1,.06,1.21A5.58,5.58,0,0,1,121,84c-.82-.24-1.86-.47-2.6-.65Z"/><path class="cls-5" d="M123,75.86a4.05,4.05,0,0,1-.08,2.47s0,0,0,0S117,83,117,83c-.61-.12-1.45-.28-1.92-.35,1.12-1.21,2.4-3.61,6-5.45C121.66,76.92,122.32,76.33,123,75.86Z"/><path class="cls-5" d="M119.26,74.11a2.17,2.17,0,0,1,.2,2.55,27.1,27.1,0,0,0-3.53,3,28.16,28.16,0,0,0-2.56,2.85,18.8,18.8,0,0,0-2,.42,41.4,41.4,0,0,1,2.69-4.4,26.43,26.43,0,0,1,3.65-2.83A6.67,6.67,0,0,0,119.26,74.11Z"/><path class="cls-5" d="M134.81,97.73c.33,1.34.68,3.09.06,3.88a4.59,4.59,0,0,1-3.66,1.65.88.88,0,0,0-.4.17c-.86.68-3.33,2.6-8.51,2.53-7.31-.12-14.29-4-20.17-7.84-5.43-3.53-13.92-9-23.09-10.06,1.79-.9,4.74-2.5,8.17-2.64.33,0,8.48,0,13.35.31,6.84.44,8.77-1.53,12.66-1.45a25.81,25.81,0,0,1,13,3.77C128.46,89.31,133.4,92,134.81,97.73Z"/><path class="cls-5" d="M85.45,28.47a7.35,7.35,0,0,0-.4-1.39l-2.17,1a0,0,0,0,0,0,.07l1,.06a.1.1,0,0,1,.06.17l-1.6,1.39a.09.09,0,0,0,.09.16l2.24-.71a.1.1,0,0,1,.13.08l.07.64h-.06a1.71,1.71,0,0,0-1.08.81,3.2,3.2,0,0,0-.37,1.28,16.78,16.78,0,0,0,1.51,5.13c.11.15.49.58.82-.46a.06.06,0,0,0,0,0c-1.41-1.46,0-2.12-.05-3s-1.15-2.2-1.47-2.66a.08.08,0,0,1,0-.1.1.1,0,0,1,.1,0l1.52.46a.09.09,0,0,0,.12-.1Z"/><path class="cls-5" d="M112.81,29.8l-1.61-1.39a.1.1,0,0,1,.06-.17l1-.06a0,0,0,0,0,0-.07l-2.17-1a7.35,7.35,0,0,0-.4,1.39l-.42,2.83a.09.09,0,0,0,.12.1l1.56-.6h0a.1.1,0,0,1,.08.15,8.05,8.05,0,0,0-1.52,2.8c0,.84,1.36,1.5,0,3,0,0,0,0,0,0,.32,1,.71.61.81.46a17.08,17.08,0,0,0,1.52-5.13,2.88,2.88,0,0,0-.52-1.49,1.68,1.68,0,0,0-.94-.6h-.06l.07-.64a.1.1,0,0,1,.13-.08l2.24.71A.1.1,0,0,0,112.81,29.8Z"/><path class="cls-5" d="M102.82,29.53a2.85,2.85,0,0,0-2.29,1.11.1.1,0,0,1-.17-.08c.42-2.49,1.94-2.94,3.18-2.3A15.92,15.92,0,0,1,106,30c.09.07.21,0,.16-.11a12.58,12.58,0,0,0-2-2.87,2.61,2.61,0,0,0-2.43-.43c-2.15.34-2.54,3.85-2.57,4.2a.11.11,0,0,0,0,.05,7.21,7.21,0,0,1,.25,4.28.14.14,0,0,0,.25.11,4.53,4.53,0,0,0,1-2.74l0,0a6.31,6.31,0,0,0,2.87.8c.08,0,.11-.11,0-.13a9,9,0,0,1-1.5-.63.14.14,0,0,1,.06-.26c1.38,0,3.52-.19,4.13-.24,0,0,0-.06,0-.08a13.65,13.65,0,0,0-2.68-.48c-.07,0-.08-.08-.06-.15.1-.34,1.61-.19,2.34-.15a2.13,2.13,0,0,0-.41-.27h0c-.29-.21-.59-.41-.89-.61h0A3.3,3.3,0,0,0,102.82,29.53Zm-8.06,1a.1.1,0,0,1-.17.08,2.83,2.83,0,0,0-2.29-1.11h-.1a.17.17,0,0,0-.12,0l-.07,0a3.34,3.34,0,0,0-1.2.58,8.3,8.3,0,0,0-1.15.78h0l-.56.29A12.76,12.76,0,0,1,91,31.14a1.06,1.06,0,0,1,.57.23.09.09,0,0,1-.06.15,13.07,13.07,0,0,0-2.56.57s0,.08,0,.08c.6,0,2.65.12,4,.15a.14.14,0,0,1,.06.26,9,9,0,0,1-1.5.63c-.07,0,0,.13,0,.13a6.35,6.35,0,0,0,2.76-.74.1.1,0,0,1,.14.06,9.71,9.71,0,0,0,1.07,2.69.1.1,0,0,0,.18-.08,7,7,0,0,1-.2-2.58c0-.18,0-.37.08-.56s.07-.37.12-.56a7.13,7.13,0,0,1,.23-.7v-.05c0-.35-.41-3.86-2.57-4.2a2.59,2.59,0,0,0-2.42.43,12.26,12.26,0,0,0-2,2.87c-.06.09.07.18.15.11a15.92,15.92,0,0,1,2.41-1.77C92.83,27.62,94.34,28.07,94.76,30.56Zm2.76,6.88h0A3.27,3.27,0,0,1,96,36.92c-.84-.56-1.33.08-1.74-.22a.58.58,0,0,1-.24-.34v0a1.17,1.17,0,0,1,.38-.68.32.32,0,0,0-.26-.56,8.22,8.22,0,0,0-3,1,.14.14,0,0,0,.07.27,2.21,2.21,0,0,1,2.19.9.1.1,0,0,1-.06.14,4.84,4.84,0,0,1-3.43-.25.11.11,0,0,0-.15.07,11.7,11.7,0,0,0,3.07,7.55c.09.07.22,0,.16-.12a11.37,11.37,0,0,1-1.75-5,.1.1,0,0,1,.15-.1,2,2,0,0,0,.65.25.14.14,0,0,1,.1.07c.86,1.77,3.18,2.7,5.38,2.7h.1c2.21,0,4.52-.93,5.38-2.7a.14.14,0,0,1,.1-.07,2,2,0,0,0,.65-.25.1.1,0,0,1,.15.1,11.6,11.6,0,0,1-1.56,4.68.14.14,0,0,0,.22.16,11.79,11.79,0,0,0,2.82-7.29.1.1,0,0,0-.14-.07,4.87,4.87,0,0,1-3.44.25.1.1,0,0,1-.05-.14,2.18,2.18,0,0,1,2.18-.9.14.14,0,0,0,.07-.27,8.16,8.16,0,0,0-3-1,.32.32,0,0,0-.25.56,1.15,1.15,0,0,1,.37.68v0a.58.58,0,0,1-.24.34c-.41.3-.9-.34-1.74.22a3.27,3.27,0,0,1-1.47.52h-.1Zm0,12.49H97.5a7.75,7.75,0,0,1-3.21-.81c-2-1.19-4.3-4.66-5.09-6.46a.12.12,0,0,0-.23.07A11.32,11.32,0,0,0,90,45.85s0,.08-.06,0a9.25,9.25,0,0,1-1.13-1.19,11.92,11.92,0,0,1-2.13-6.25c-.12-3.44.3-10,.3-10s.07-.92.1-.94a8.57,8.57,0,0,1,2.35-.89c2-1.46,3.59-1.59,4.87-.87a25.16,25.16,0,0,1,3.16-.11h.12c1,0,1.95,0,2.81.1,2.82-1.39,5,.81,5.18.85a13.2,13.2,0,0,1,2.39.92.1.1,0,0,1,0,.08l0,.86s.42,6.58.31,10a12,12,0,0,1-2.14,6.25,8.61,8.61,0,0,1-1.13,1.19s-.08,0-.06,0a10.91,10.91,0,0,0,1-2.73.16.16,0,0,0-.3-.1,12.28,12.28,0,0,1-4.94,6.1,7.52,7.52,0,0,1-3.21.81h-.06Zm1.52-5.33a3.94,3.94,0,0,0,1.65-1.37,17.4,17.4,0,0,1-1.74.52h0a7.5,7.5,0,0,1-4.54-.62s0,0,0,0A4.68,4.68,0,0,0,96,44.62a1.23,1.23,0,0,1,.51.42c.31.44.68.79,1,.79s.75-.4,1.08-.88A1.09,1.09,0,0,1,99.08,44.6Z"/><path class="cls-6" d="M91.13,36.15a4.84,4.84,0,0,0-.94.66c-.19.19-.31.32-.38.4h.09a4.84,4.84,0,0,0,3.43.25.1.1,0,0,0,.06-.14,2.21,2.21,0,0,0-2.19-.9A.14.14,0,0,1,91.13,36.15Zm15-4.06ZM99,26.67a7.14,7.14,0,0,1,1.42-.94h0c-.85-.07-1.78-.1-2.8-.1H97.5c-1,0-1.55,0-2.16,0l-1,.08h0a5.35,5.35,0,0,1,1.58,1A3,3,0,0,0,99,26.67ZM90,33.14h.16C90.18,33.13,90.11,33.11,90,33.14Zm14,3.28a2.18,2.18,0,0,0-2.18.9.1.1,0,0,0,.05.14,4.87,4.87,0,0,0,3.44-.25h.07a4.52,4.52,0,0,0-.37-.4,5.6,5.6,0,0,0-.92-.65A.14.14,0,0,1,103.92,36.42Zm4.49-.4v0c0-.31,0-.63,0-1L108.33,33v0c0-.46,0-.9,0-1.32s-.06-1.12-.09-1.61c0-1-.09-1.61-.09-1.61l0-.41c0-.22,0-.45-.06-.51l0,0a13.27,13.27,0,0,0-2.09-.83l-.24-.06a5.05,5.05,0,0,1,.46,3.35v0A.1.1,0,0,1,106,30a15.92,15.92,0,0,0-2.41-1.77c-1.24-.64-2.76-.19-3.18,2.3a.1.1,0,0,0,.17.08,2.85,2.85,0,0,1,2.29-1.11,3.3,3.3,0,0,1,1.75.81h0c.3.2.6.4.89.61h0a2.8,2.8,0,0,1,.32.2l1.24.26c1.41.34-.24.85-.24.85,2.72,1.9-.94,1-1.61.88a4.35,4.35,0,0,1,2.14,1.64,2.88,2.88,0,0,1,.43,1.91,4,4,0,0,1-.46,1l-.22.23c-.41.34-1,.25-1.69-.64a8.28,8.28,0,0,1-.51,3.1h0l-.09.25v0l-.09.24v0a2.29,2.29,0,0,1-.1.23v0a2.29,2.29,0,0,0-.1.23v0c0,.07-.06.15-.1.23l0,0-.09.2,0,.07-.09.18,0,.07-.09.18a.25.25,0,0,0,0,.07l-.09.17a.43.43,0,0,1,0,.07l-.09.17-.05.07-.09.17a.56.56,0,0,0-.05.08l-.09.15-.06.08-.09.14-.06.08-.09.13a.35.35,0,0,1-.05.08L103,44l-.09.12-.06.08-.13.15,0,0c-.06.06-.11.12-.17.17a.14.14,0,0,1-.22-.16s.07-.11.11-.17l0-.07.07-.11,0-.1.06-.1a.54.54,0,0,1,0-.11l0-.1.06-.13a.31.31,0,0,0,0-.1l.07-.14a.36.36,0,0,1,0-.09A1.11,1.11,0,0,1,103,43l0-.09a1.34,1.34,0,0,0,.07-.18l0-.08c0-.07,0-.13.07-.2l0-.08c0-.07,0-.14.07-.21l0-.07c0-.08,0-.16.08-.24v0a13.48,13.48,0,0,0,.37-1.65c0-.15,0-.3,0-.46a.07.07,0,0,0,0-.06l-.13,0h0a7.26,7.26,0,0,1-3,3.56l0,0,.07,0h0v0h0v0l0,0,0,0a1.29,1.29,0,0,1-.13.17h0l-.06.07,0,0-.07.07h0a3.7,3.7,0,0,1-.4.36h0l-.11.08,0,0-.11.08,0,0-.11.08h0a2.44,2.44,0,0,1-.52.29,1.1,1.1,0,0,0-.43.34h0l-.06.09h0l-.06.08h0l-.06.09h0l-.06.08h0l-.06.07h0l-.06.06v0l-.06,0v0l-.06,0,0,0,0,0,0,0,0,0,0,0,0,0,0,0,0,0,0,0h-.24a1.36,1.36,0,0,1-.89-.63L96.55,45a1.23,1.23,0,0,0-.51-.42l-.23-.11-.08,0-.15-.09-.1-.08-.12-.09-.1-.09-.1-.09L95,43.91,95,43.82l-.13-.13-.06-.07-.14-.16,0-.05-.18-.21a7.3,7.3,0,0,1-3-3.57h0l-.13,0a0,0,0,0,0,0,0h0v0a11.37,11.37,0,0,0,1.75,5c.06.09-.07.19-.16.12l-.17-.17c-.12-.12-.23-.25-.34-.38a9.41,9.41,0,0,1-1-1.56l0-.07a12.86,12.86,0,0,1-.78-1.74.42.42,0,0,1,0-.1,10.76,10.76,0,0,1-.67-2.92c0-.08,0-.16,0-.24s0-.25,0-.37c-.68.84-1.21,1-1.61.71a2.19,2.19,0,0,1-.42-.49,4.2,4.2,0,0,1-.3-.67,2.79,2.79,0,0,1,.4-2A4.35,4.35,0,0,1,90,33.14c-.66.08-4.33,1-1.61-.88,0,0-1.65-.51-.23-.85l1.06-.23.47-.24h0a8.3,8.3,0,0,1,1.15-.78,3.34,3.34,0,0,1,1.2-.58l.07,0a.17.17,0,0,1,.12,0h.1a2.83,2.83,0,0,1,2.29,1.11.1.1,0,0,0,.17-.08c-.42-2.49-1.93-2.94-3.18-2.3A15.92,15.92,0,0,0,89.17,30,.1.1,0,0,1,89,30h0v0a5.09,5.09,0,0,1,.47-3.35h0a8.44,8.44,0,0,0-2.06.76l-.26.13s-.1.94-.1.94-.13,2.4-.22,4.35v0c0,1-.08,2.1-.09,3.12h0V36h0c0,.68,0,1.33,0,1.92v0c0,.09,0,.17,0,.26v0a2,2,0,0,0,0,.25,11.92,11.92,0,0,0,2.13,6.25A9.25,9.25,0,0,0,90,45.9s.08,0,.06,0A11.32,11.32,0,0,1,89,42.73a.12.12,0,0,1,.23-.07c.79,1.8,3,5.27,5.09,6.46a7.75,7.75,0,0,0,3.21.81h.11a7.67,7.67,0,0,0,3.21-.81l.31-.19h0a11.53,11.53,0,0,0,1.59-1.24h0l.17-.17,0,0,.16-.16,0,0,.15-.16,0,0,.14-.15,0,0,.13-.15,0-.05.12-.14,0-.06.11-.14,0-.06a.71.71,0,0,0,.1-.14l0,0,.09-.14,0-.06.09-.14,0-.06.09-.13,0-.07.08-.13,0-.07.08-.12,0-.07a.83.83,0,0,1,.07-.13l0-.07a.75.75,0,0,1,.07-.12l0-.07.06-.12,0-.08.06-.11,0-.08a.37.37,0,0,0,0-.11l0-.07.06-.12,0-.07.05-.11,0-.08,0-.1,0-.08,0-.09,0-.1,0-.08,0-.11,0-.06.08-.16a.16.16,0,0,1,.3.1l-.09.38,0,0-.09.33v0c0,.12-.07.24-.11.36h0c0,.13-.09.26-.14.38h0a5.28,5.28,0,0,1-.35.82,2.53,2.53,0,0,1-.18.37v0h0v0h0a9.2,9.2,0,0,0,1.12-1.19,12,12,0,0,0,2.14-6.25C108.43,37.76,108.43,36.91,108.41,36ZM97.56,48.39c-1.74,0-3.14-.56-3.14-1.25s1.4-1.24,3.14-1.24,3.14.55,3.14,1.24S99.3,48.39,97.56,48.39ZM105,33.13h.16C105,33.11,105,33.13,105,33.13Z"/><path class="cls-7" d="M102.07,32.58a9,9,0,0,0,1.5.63c.08,0,.05.13,0,.13a6.31,6.31,0,0,1-2.87-.8l0,0a4.53,4.53,0,0,1-1,2.74.14.14,0,0,1-.25-.11,7.21,7.21,0,0,0-.25-4.28.11.11,0,0,1,0-.05c0-.35.42-3.86,2.57-4.2a2.61,2.61,0,0,1,2.43.43,12.58,12.58,0,0,1,2,2.87c0,.09-.07.18-.16.11a15.92,15.92,0,0,0-2.41-1.77c-1.24-.64-2.76-.19-3.18,2.3a.1.1,0,0,0,.17.08,2.85,2.85,0,0,1,2.29-1.11,3.3,3.3,0,0,1,1.75.81h0c.3.2.6.4.89.61h0a2.13,2.13,0,0,1,.41.27c-.73,0-2.24-.19-2.34.15,0,.07,0,.14.06.15a13.65,13.65,0,0,1,2.68.48s0,.08,0,.08c-.61.05-2.75.21-4.13.24A.14.14,0,0,0,102.07,32.58Z"/><path class="cls-7" d="M140.44,87.31c.3,3.17-1.55,9.39-3.19,10.74a.7.7,0,0,1-.24.13c.08,1.37.05,3.36-.62,4.38a6.69,6.69,0,0,1-4.25,2.88c-.72.49-3.42,2.62-9.27,2.62h-.5c-6.64-.1-13-3.65-18.52-7-6.54,3.21-17.2,7.34-26.67,7.34a37.14,37.14,0,0,1-3.94-.21,14,14,0,0,1-8.43-3.59c-1.17,0-4.59,0-5.92-2-.39-.56-1.83-2.36-2-2.56s-2.41-2.91-3-8.6c-.12-1.26,0-7.54,2.87-10.13a.65.65,0,0,1,0-.34c1.71-13.12,9.48-22.44,10.44-22.92.17-.08.29-.37.38-.58a2.53,2.53,0,0,1,.16-.33c.34-.59,1.15-.87,2.17-1.17l.47-.15c.16-.11,8.31-3.64,9.31-4.05,2.4-1,3.89-1.57,4.13-2.09a2.64,2.64,0,0,1,2.09-1.28s0,0,0,0a2.13,2.13,0,0,1,.61-1.47.3.3,0,0,1,.08-.08,2.28,2.28,0,0,1,1.36-.6,0,0,0,0,0,0-.06q-.23-.26-.42-.51A13.62,13.62,0,0,1,85.17,39h0a2,2,0,0,1-1.6-.87,16.79,16.79,0,0,1-1.8-6.21l.06-.43s0,0,0,0a1.65,1.65,0,0,1-1-1,1.64,1.64,0,0,1,.41-1.79s0,0,0,0a1.56,1.56,0,0,1,.07-1.08,1.66,1.66,0,0,1,.84-.83L84,25.83v0l-.1,0c-.49-.12-4.8-1.27-6.91-4.21a7.08,7.08,0,0,1,.58-9.27c.35-.39.35-.4.3-.67A4.14,4.14,0,0,1,79.2,8.12C80.29,7,81.56,7.19,82.49,7a5.9,5.9,0,0,0,3-1.16c1.67-1.22,3.89-3,7-3A12.19,12.19,0,0,1,97,4c1.53.63,2.67,1.22,3.58,1.69,1.38.72,2.29,1.34,3.26,1.34a4.51,4.51,0,0,0,.7-.06,8.18,8.18,0,0,1,6,1.5,9.69,9.69,0,0,1,2.3,3.79c.95,2.44,1.11,4.83,1.83,5.77.25.32.49.6.72.88,1,1.12,2.54,2.49,2.45,4.82-.06,1.76-1.49,3.36-3.82,4.29a.05.05,0,0,0,0,0,1.88,1.88,0,0,1,0,.41c0,.05,0,.1,0,.16a.06.06,0,0,0,0,0,1.64,1.64,0,0,1,.41,1.79,1.65,1.65,0,0,1-1,1s0,0,0,0l.06.43a16.61,16.61,0,0,1-1.81,6.21A2,2,0,0,1,110,39h0a13.62,13.62,0,0,1-2.44,6.68,6.57,6.57,0,0,1-.48.57h.12a2.26,2.26,0,0,1,1.55.6l.09.08a2.12,2.12,0,0,1,.6,1.47s0,0,0,0a2.65,2.65,0,0,1,2.09,1.28c.23.51,1.86,1.11,4.5,2.26,1.42.6,4.91,2.1,6.6,2.84l1.14.47h0v0a7.49,7.49,0,0,1,1.12.55l.47.15c1,.3,1.83.58,2.18,1.17a2.52,2.52,0,0,1,.15.33c.09.21.22.5.39.58.59.3,2.7,3.07,4.67,6.75a44.57,44.57,0,0,1,5,15.51,6,6,0,0,1,.7.85A12.75,12.75,0,0,1,140.44,87.31Zm-4.6,6.18c.37.75,3-.37,2.84-6.14-.18-5.29-2.48-6.32-2.5-6.33a.39.39,0,0,1-.14-.08,17.54,17.54,0,0,0-11.29-3.53,3.67,3.67,0,0,1-.15,1,3.88,3.88,0,0,1,.48,2.69,6.13,6.13,0,0,1-2.23,3.53c.84.28,1.69.6,2.55,1C130.79,87.73,134.27,90.27,135.84,93.49Zm-1,8.12c.63-.79.28-2.54-.05-3.88-1.41-5.76-6.35-8.42-8.59-9.68a25.81,25.81,0,0,0-13-3.77c-3.89-.08-5.82,1.89-12.66,1.45-4.87-.3-13-.31-13.35-.31-3.43.14-6.38,1.74-8.17,2.64,9.17,1,17.66,6.53,23.09,10.06C108,101.93,115,105.84,122.3,106c5.18.07,7.65-1.85,8.51-2.53a.84.84,0,0,1,.4-.17A4.56,4.56,0,0,0,134.86,101.61Zm.84-22.84a43.43,43.43,0,0,0-8.11-19,17.69,17.69,0,0,1-2.17,1.84c-.36-.24,1-3,1-3l0,0c0-1-1-1.16-1.54-1-.46-.13-5.51-2.7-11.67-5.29a1,1,0,0,0-.85,0h0a15.54,15.54,0,0,1-3.12,3h0a30.84,30.84,0,0,1-2.83,1.28c1.65.68,5,1.85,6.92,2.58a.75.75,0,0,1,.34,1,118.1,118.1,0,0,0-4.85,23.17c0,.36.47.18.82.08h0v0l3.09-5.55a.76.76,0,0,1,.22-.25L119.1,73a.78.78,0,0,1,.63-.13.68.68,0,0,1,.2.07c1.42-5.36,4.39-10.26,4.76-10s-2.24,5.06-3.41,12.47c0,0,0,.1,0,.14a17.12,17.12,0,0,1,1.83-.89.79.79,0,0,1,.94.26,4.62,4.62,0,0,1,.47.95A19.49,19.49,0,0,1,135.7,78.77Zm-12.18,2a4,4,0,0,0,0-1.21l-5,3.75c.74.18,1.78.41,2.6.65A5.52,5.52,0,0,0,123.52,80.82Zm-.58-2.49a4,4,0,0,0,.09-2.47c-.71.47-1.37,1.06-2,1.35-3.65,1.84-4.93,4.24-6,5.45.47.07,1.31.23,1.92.35,0,0,6-4.64,6-4.64A.06.06,0,0,0,122.94,78.33Zm-3.48-1.67a2.15,2.15,0,0,0-.21-2.55,6.44,6.44,0,0,1-1.52,1.54,26.88,26.88,0,0,0-3.64,2.83,41.4,41.4,0,0,0-2.69,4.4,18.8,18.8,0,0,1,2-.42,28.16,28.16,0,0,1,2.56-2.85A27.1,27.1,0,0,1,119.46,76.66Zm-3.24-53c.08-2.16-.92-2.75-2.25-4.46s-1.73-4.11-2.7-6.49S108,7.65,104.69,8.15c-2.82.42-3.82-1-8.24-2.85S89,4.8,86.27,6.75c-2.93,2.13-4.41.86-5.93,2.46-1.71,1.8.36,2-1.36,3.9a5.84,5.84,0,0,0-.69,7.55c1.74,2.43,5.51,3.47,6,3.59,0,0,0,0,0,0,0-.39,0-2.9-1-3.27a7.64,7.64,0,0,1-3.76-3.25,0,0,0,0,1,.07-.06C81.26,19.25,84.08,19.45,86,19c.79-.18-3.34-1.32-4.76-5.63,0,0,0-.06,0,0A13.55,13.55,0,0,0,88,17c3.82.88,3.35,0,3.2-.05-.31-.2-4.3-4-4.46-8.07A14.29,14.29,0,0,0,91,14.34c4.08,2.67,8.12,2.83,7.09-1.54,0-.05,0-.07.07,0,1,1.81,3.7,3.76,6.55,4.75,2.13.74,2.4.38,4.69,1.57,2,1,3.33,3.49,4.73,3.9,0,0,0,.07,0,.07a4.1,4.1,0,0,1-3.1-.5s-.06,0-.06,0l0,3.78a.05.05,0,0,0,0,0C113.15,27,116.14,25.81,116.22,23.67ZM112.71,30a.09.09,0,0,0,.09-.16l-1.6-1.39a.1.1,0,0,1,.06-.17l1-.06a0,0,0,0,0,0-.07l-2.17-1a7.35,7.35,0,0,0-.4,1.39l-.42,2.83a.09.09,0,0,0,.12.1l1.56-.6h0a.1.1,0,0,1,.08.15,8.05,8.05,0,0,0-1.52,2.8c0,.84,1.36,1.5,0,3a0,0,0,0,0,0,0c.32,1,.7.61.81.46a16.78,16.78,0,0,0,1.51-5.13,2.78,2.78,0,0,0-.51-1.49,1.68,1.68,0,0,0-.94-.6h-.06l.07-.64a.1.1,0,0,1,.13-.08Zm-4.87,52.25c1.79-13.2,3.83-20,4.51-22-1.5-.8-3.72-1.62-5.21-2.24.91,1,2,2.29,2.68,3h0a1.66,1.66,0,0,1,.1,1c-.32,1.64-2.48,1.64-3.29,1.64a12.61,12.61,0,0,1-4-.67,10,10,0,0,1-5.07-3.59,0,0,0,0,0-.06,0,12,12,0,0,1-5.93,4.43,15.19,15.19,0,0,1-4.71.81c-.74,0-2.62.06-2.91-1.44a2,2,0,0,1,1.15-2h0a3,3,0,0,0,.43-.44s1.89-3.18,4-3.95a0,0,0,0,0,0-.07A18.75,18.75,0,0,1,83,52.55a1,1,0,0,0-1.12-.26c-4.69,1.88-11,5.08-11.46,5.21-1.53-.15-1.51.69-1.35,1,0,0,1.64,3.25,1.27,3.48-1.8-2.67-2.76-2.05-3.09-1.65a37.45,37.45,0,0,0-3.69,5.47A43,43,0,0,0,59.12,80a32.09,32.09,0,0,1,15-2.77C74,72.63,70.5,63.2,70.93,63s4.68,9.48,4.79,14.37c.27,0,1.27,0,2,1.71a13.05,13.05,0,0,1,.5,5.3,1.54,1.54,0,0,0,2.22,1.52,15.64,15.64,0,0,1,6.66-1.8h0c.08,0,9.43.1,14.44.4a15.84,15.84,0,0,0,4.23-.3A2.52,2.52,0,0,0,107.84,82.21Zm2.35-31a1,1,0,0,0-.1-.8c-.18-.38-2.11-.49-2.27-.79s.2-1.2-.15-1.54l0,0a.73.73,0,0,0-1,.07A9.64,9.64,0,0,1,102,51a.42.42,0,0,0,0,.06,3.05,3.05,0,0,1-.23,2.16,0,0,0,0,0,0,.06l.88-.19a12.21,12.21,0,0,0,2.14-.71s.07,0,0,0c-1,.81-2.45,1.85-3.83,1.8-.31,0,.18-2.71-1.38-2.68l-1.25,0H97c-.48,0-.92,0-1.33,0-1.61-.06-1,2.66-1.31,2.68-1.38.05-2.8-1-3.83-1.8,0,0,0-.06,0,0a12.49,12.49,0,0,0,2.14.71l.88.19a0,0,0,0,0,0-.06,3.12,3.12,0,0,1-.25-2.08.61.61,0,0,1-.07-.14,9.57,9.57,0,0,1-4.6-2.9.73.73,0,0,0-1-.07l0,0c-.34.34,0,1.24-.14,1.54s-2.1.41-2.27.79a1,1,0,0,0-.1.8c0,.11,1.56,2.7,7,3.81a10.56,10.56,0,0,0,1.78.26.07.07,0,0,1,0,.05c-.19,2.49-3.37,4.54-3.34,4.47.52-1.06,2.15-2.91,1.61-2.81-.35.19-.66.14-1.31.47-2.73,1.4-4.42,4.64-5.56,5.09s1.41,1.26,5.73-.19a10.34,10.34,0,0,0,6.26-5.73,0,0,0,0,0,0-.06,2.76,2.76,0,0,1-2.18-1.4c-.12-.2,0-.38.24-.26a4.51,4.51,0,0,0,4.78,0s0,.17,0,.2a2.91,2.91,0,0,1-2.2,1.47s0,0,0,0c.37,1.28,1.41,3.6,5.25,4.91,3.09,1.06,6.36.52,5.22.06s-2-2.47-4-4a3.1,3.1,0,0,0-1.75-.54c-.54-.09,1.09,1.76,1.61,2.82,0,.07-3.71-2-2.86-4.5l0,0a8.25,8.25,0,0,0,1.79-.26C108.44,53.7,110.14,51.27,110.19,51.16ZM109.66,21a.05.05,0,0,0,0,0C105.46,18,89.7,18,85.52,20.94a.05.05,0,0,0,0,0c0,.24.09,2.41.09,4.79a0,0,0,0,0,.06,0c.5-.3,4.08-2.25,11.93-2.25,8.31,0,11.46,2,11.93,2.31,0,0,.06,0,.06,0C109.58,23.45,109.65,21.22,109.66,21ZM108.4,38.46c.12-3.44-.3-10-.3-10l0-.86a.1.1,0,0,0,0-.08,13.2,13.2,0,0,0-2.39-.92c-.15,0-2.36-2.24-5.18-.85-.86-.07-1.79-.1-2.81-.1H97.5a25.16,25.16,0,0,0-3.16.11c-1.28-.72-2.88-.59-4.87.87a8.57,8.57,0,0,0-2.35.89s-.1.94-.1.94-.42,6.58-.3,10a11.92,11.92,0,0,0,2.13,6.25A9.25,9.25,0,0,0,90,45.9s.08,0,.06,0A11.32,11.32,0,0,1,89,42.73a.12.12,0,0,1,.23-.07c.79,1.8,3,5.27,5.09,6.46a7.71,7.71,0,0,0,3.21.81h.12a7.52,7.52,0,0,0,3.21-.81,12.2,12.2,0,0,0,4.93-6.1.16.16,0,0,1,.31.1,10.91,10.91,0,0,1-1,2.73s0,.08.06,0a8.61,8.61,0,0,0,1.13-1.19A11.92,11.92,0,0,0,108.4,38.46Zm-9.48,62.32A.66.66,0,0,0,99,99.65S86.42,88.21,73.73,89.74A18.58,18.58,0,0,0,62.42,95.9c-1.23,1.33-2.63,3.79-1.94,5.46a2.2,2.2,0,0,0,.21.41c.81,1.18,3.25.71,4.56.63a.85.85,0,0,1,.51.15s2.9,2.84,9.07,3.51C84.28,107.08,94.11,104,98.92,100.78ZM85.75,31.4a.09.09,0,0,0,.12-.1l-.42-2.83a7.35,7.35,0,0,0-.4-1.39l-2.17,1a0,0,0,0,0,0,.07l1,.06a.1.1,0,0,1,.06.17l-1.6,1.39a.09.09,0,0,0,.09.16l2.24-.71a.1.1,0,0,1,.13.08l.07.64h-.06a1.71,1.71,0,0,0-1.08.81,3,3,0,0,0-.37,1.28,16.78,16.78,0,0,0,1.51,5.13c.11.15.49.58.82-.46a.06.06,0,0,0,0,0c-1.41-1.46,0-2.12-.05-3a7.31,7.31,0,0,0-1.47-2.66.08.08,0,0,1,0-.1.1.1,0,0,1,.1,0ZM76.19,87.9c1-2.29.8-5.4.48-7.37A2,2,0,0,0,75,78.87,25.13,25.13,0,0,0,58.8,82.24c-2.75,1.62-3.22,5.69-3.1,8.68.18,4.81,2.46,6.24,3.14,5.41A26.43,26.43,0,0,1,61,94.08a21.74,21.74,0,0,1,12.47-6A21.37,21.37,0,0,1,76.19,87.9Z"/><path class="cls-3" d="M138.68,87.35c.19,5.77-2.47,6.89-2.84,6.14-1.57-3.22-5.05-5.76-10.44-8-.86-.35-1.71-.67-2.55-1a6.13,6.13,0,0,0,2.23-3.53,3.88,3.88,0,0,0-.48-2.69,3.67,3.67,0,0,0,.15-1A17.54,17.54,0,0,1,136,80.94a.39.39,0,0,0,.14.08S138.5,82.06,138.68,87.35Z"/><path class="cls-3" d="M127.59,59.72a43.43,43.43,0,0,1,8.11,19,19.49,19.49,0,0,0-11.2-2.92,4.62,4.62,0,0,0-.47-.95.79.79,0,0,0-.94-.26,17.12,17.12,0,0,0-1.83.89s0-.09,0-.14c1.17-7.41,3.77-12.23,3.41-12.47s-3.34,4.66-4.76,10a.68.68,0,0,0-.2-.07.78.78,0,0,0-.63.13L113,77.51a.76.76,0,0,0-.22.25l-3.09,5.55v0h0c-.35.1-.86.28-.82-.08a118.1,118.1,0,0,1,4.85-23.17.75.75,0,0,0-.34-1c-1.94-.73-5.27-1.9-6.92-2.58a30.84,30.84,0,0,0,2.83-1.28h0a15.54,15.54,0,0,0,3.12-3h0a1,1,0,0,1,.85,0c6.16,2.59,11.21,5.16,11.67,5.29.5-.11,1.53,0,1.54,1l0,0s-1.4,2.74-1,3A17.69,17.69,0,0,0,127.59,59.72Z"/><path class="cls-3" d="M114,19.21c1.33,1.71,2.33,2.3,2.25,4.46S113.15,27,111,26.41a.05.05,0,0,1,0,0l0-3.78s0-.05.06,0a4.1,4.1,0,0,0,3.1.5s0-.06,0-.07c-1.4-.41-2.77-2.88-4.73-3.9-2.29-1.19-2.56-.83-4.69-1.57-2.85-1-5.59-2.94-6.55-4.75,0,0-.09,0-.07,0,1,4.37-3,4.21-7.09,1.54a14.29,14.29,0,0,1-4.34-5.43c.16,4.05,4.15,7.87,4.46,8.07.15.1.62.93-3.2.05a13.55,13.55,0,0,1-6.69-3.69s-.05,0,0,0C82.64,17.68,86.77,18.82,86,19c-1.9.45-4.72.25-6.37-1.37a0,0,0,0,0-.07.06,7.64,7.64,0,0,0,3.76,3.25c1,.37,1,2.88,1,3.27,0,0,0,.05,0,0-.47-.12-4.24-1.16-6-3.59A5.84,5.84,0,0,1,79,13.11c1.72-1.9-.35-2.1,1.36-3.9,1.52-1.6,3-.33,5.93-2.46C89,4.8,92,3.48,96.45,5.3s5.42,3.27,8.24,2.85c3.32-.5,5.62,2.19,6.58,4.57S112.64,17.5,114,19.21Z"/><path class="cls-3" d="M112.35,60.2c-.68,2-2.72,8.81-4.51,22a2.52,2.52,0,0,1-2.1,2,15.84,15.84,0,0,1-4.23.3c-5-.3-14.36-.4-14.44-.4h0a15.64,15.64,0,0,0-6.66,1.8,1.54,1.54,0,0,1-2.22-1.52,13.05,13.05,0,0,0-.5-5.3c-.68-1.69-1.68-1.67-2-1.71C75.61,72.5,71.31,62.85,70.93,63S74,72.63,74.14,77.2a32.09,32.09,0,0,0-15,2.77,43,43,0,0,1,4.39-14.2A37.45,37.45,0,0,1,67.2,60.3c.33-.4,1.29-1,3.09,1.65.37-.23-1.27-3.48-1.27-3.48-.16-.28-.18-1.12,1.35-1,.46-.13,6.77-3.33,11.46-5.21a1,1,0,0,1,1.12.26,18.75,18.75,0,0,0,6.55,4.16,0,0,0,0,1,0,.07c-2.07.77-4,3.95-4,3.95a3,3,0,0,1-.43.44h0a2,2,0,0,0-1.15,2c.29,1.5,2.17,1.44,2.91,1.44a15.19,15.19,0,0,0,4.71-.81,12,12,0,0,0,5.93-4.43,0,0,0,0,1,.06,0A10,10,0,0,0,102.63,63a12.61,12.61,0,0,0,4,.67c.81,0,3,0,3.29-1.64a1.66,1.66,0,0,0-.1-1h0c-.64-.75-1.77-2.06-2.68-3C108.63,58.58,110.85,59.4,112.35,60.2Z"/><path class="cls-3" d="M109.64,20.94a.05.05,0,0,1,0,0c0,.24-.08,2.47-.09,4.85,0,0,0,.06-.06,0-.47-.33-3.62-2.31-11.93-2.31-7.85,0-11.43,2-11.93,2.25a0,0,0,0,1-.06,0c0-2.38-.08-4.55-.09-4.79a.05.05,0,0,1,0,0C89.7,18,105.46,18,109.64,20.94Z"/><path class="cls-3" d="M76.67,80.53c.32,2,.56,5.08-.48,7.37a21.37,21.37,0,0,0-2.76.15,21.74,21.74,0,0,0-12.47,6,26.43,26.43,0,0,0-2.12,2.25c-.68.83-3-.6-3.14-5.41-.12-3,.35-7.06,3.1-8.68A25.13,25.13,0,0,1,75,78.87,2,2,0,0,1,76.67,80.53Z"/><path class="cls-7" d="M94.4,43.14a7.5,7.5,0,0,0,4.54.62h0a17.4,17.4,0,0,0,1.74-.52,3.94,3.94,0,0,1-1.65,1.37,1.09,1.09,0,0,0-.44.35c-.33.48-.71.88-1.08.88s-.7-.35-1-.79a1.23,1.23,0,0,0-.51-.42,4.68,4.68,0,0,1-1.66-1.46S94.38,43.13,94.4,43.14Z"/><path class="cls-7" d="M97.52,37.44h.1a3.27,3.27,0,0,0,1.47-.52c.84-.56,1.33.08,1.74-.22a.58.58,0,0,0,.24-.34v0a1.15,1.15,0,0,0-.37-.68.32.32,0,0,1,.25-.56,8.16,8.16,0,0,1,3,1,.14.14,0,0,1-.07.27,2.18,2.18,0,0,0-2.18.9.1.1,0,0,0,.05.14,4.87,4.87,0,0,0,3.44-.25.1.1,0,0,1,.14.07,11.79,11.79,0,0,1-2.82,7.29.14.14,0,0,1-.22-.16,11.6,11.6,0,0,0,1.56-4.68.1.1,0,0,0-.15-.1,2,2,0,0,1-.65.25.14.14,0,0,0-.1.07c-.86,1.77-3.17,2.7-5.38,2.7h-.1c-2.2,0-4.52-.93-5.38-2.7a.14.14,0,0,0-.1-.07,2,2,0,0,1-.65-.25.1.1,0,0,0-.15.1,11.37,11.37,0,0,0,1.75,5c.06.09-.07.19-.16.12a11.7,11.7,0,0,1-3.07-7.55.11.11,0,0,1,.15-.07,4.84,4.84,0,0,0,3.43.25.1.1,0,0,0,.06-.14,2.21,2.21,0,0,0-2.19-.9.14.14,0,0,1-.07-.27,8.22,8.22,0,0,1,3-1,.32.32,0,0,1,.26.56,1.17,1.17,0,0,0-.38.68v0a.58.58,0,0,0,.24.34c.41.3.9-.34,1.74.22a3.27,3.27,0,0,0,1.47.52h0Zm4,2.83a.09.09,0,0,0-.09-.16,4.86,4.86,0,0,1-3.84-.18h0a4.86,4.86,0,0,1-3.84.18.09.09,0,0,0-.09.16,5.32,5.32,0,0,0,1.69.77,8.47,8.47,0,0,0,2.24.31h0A7.14,7.14,0,0,0,101.49,40.27Z"/><path class="cls-7" d="M95.53,32.69a7,7,0,0,0,.2,2.58.1.1,0,0,1-.18.08,9.71,9.71,0,0,1-1.07-2.69.1.1,0,0,0-.14-.06,6.35,6.35,0,0,1-2.76.74c-.08,0-.1-.11,0-.13a9,9,0,0,0,1.5-.63.14.14,0,0,0-.06-.26c-1.36,0-3.41-.12-4-.15,0,0,0-.06,0-.08a13.07,13.07,0,0,1,2.56-.57.09.09,0,0,0,.06-.15,1.06,1.06,0,0,0-.57-.23,12.76,12.76,0,0,0-1.93.09l.56-.29h0a8.3,8.3,0,0,1,1.15-.78,3.34,3.34,0,0,1,1.2-.58l.07,0a.17.17,0,0,1,.12,0h.1a2.83,2.83,0,0,1,2.29,1.11.1.1,0,0,0,.17-.08c-.42-2.49-1.93-2.94-3.18-2.3A15.92,15.92,0,0,0,89.17,30c-.08.07-.21,0-.15-.11a12.26,12.26,0,0,1,2-2.87,2.59,2.59,0,0,1,2.42-.43c2.16.34,2.54,3.85,2.57,4.2v.05a7.13,7.13,0,0,0-.23.7c0,.19-.09.38-.12.56S95.55,32.51,95.53,32.69Z"/><path class="cls-3" d="M101.49,40.27a.09.09,0,0,0-.09-.16,4.86,4.86,0,0,1-3.84-.18h0a4.86,4.86,0,0,1-3.84.18.09.09,0,0,0-.09.16,5.32,5.32,0,0,0,1.69.77,8.47,8.47,0,0,0,2.24.31h0A7.14,7.14,0,0,0,101.49,40.27Z"/><path class="cls-7" d="M107.69,66.15a.73.73,0,0,0-.72-.73h-.11a1.4,1.4,0,0,1,.58-.12,1.39,1.39,0,1,1-1.39,1.38,1.31,1.31,0,0,1,.22-.73.58.58,0,0,0,0,.19.73.73,0,1,0,1.45,0Z"/><path class="cls-7" d="M106.24,74.94a1.38,1.38,0,0,1-1.39-1.38A1.37,1.37,0,0,1,105,73s0,.06,0,.09a.73.73,0,1,0,.73-.73h-.11a1.37,1.37,0,0,1,.64-.15,1.39,1.39,0,1,1,0,2.77Z"/><path class="cls-7" d="M105,82.49a1.39,1.39,0,0,1-1.39-1.39,1.48,1.48,0,0,1,.12-.56.49.49,0,0,0,0,.12.73.73,0,1,0,.73-.73.67.67,0,0,0-.28.06,1.4,1.4,0,0,1,.83-.28,1.39,1.39,0,0,1,0,2.78Z"/><path class="cls-6" d="M85.65,36.7c-1.41-1.46,0-2.12-.05-3s-1.15-2.2-1.47-2.66a.08.08,0,0,1,0-.1s0,0,0,0c-.39.54.27,4.62,1.51,5.77Zm-1.41-5.76.29.09A.49.49,0,0,0,84.24,30.94Z"/><path class="cls-6" d="M109.9,36.15a5.66,5.66,0,0,0,.3-.51,17.59,17.59,0,0,0,.84-2.87,3.22,3.22,0,0,0,0-1.83,8.05,8.05,0,0,0-1.52,2.8c0,.72,1,1.32.39,2.4Z"/><path class="cls-8" d="M119.73,72.87a.68.68,0,0,1,.2.07,33.63,33.63,0,0,1,4.16-9.45c-1.66,1.63-4.34,5.92-9.45,12.86L119.1,73A.78.78,0,0,1,119.73,72.87Z"/><path class="cls-8" d="M91.57,63.79a14.94,14.94,0,0,1-4,.78c-.55.6-5.41,5.9,1.37,2.88,7.17-3.19,8.54-8.09,8.54-8.09A12,12,0,0,1,91.57,63.79Z"/><path class="cls-8" d="M105.67,66.46a1.4,1.4,0,0,1,1.15-1.57c.59-.16.24-.86-.12-1.27h-.06a12.61,12.61,0,0,1-4-.67,10,10,0,0,1-5-3.55l-.09,0A8.47,8.47,0,0,0,105.67,66.46Z"/><path class="cls-8" d="M71.48,63.83a5.17,5.17,0,0,0-.33-.58Zm14.79,17.7c-4-.26-6.17-1.92-8.71-6.83S73,66.4,71.48,63.83c1.27,2.41,4.15,9.57,4.24,13.56a1.88,1.88,0,0,1,1.41.75h0l.07.09h0l.07.1h0a.86.86,0,0,0,.07.1v0l.06.1v0a.41.41,0,0,1,0,.09l0,0,0,.09,0,.07,0,.07.06.15.06.17.06.18h0c0,.14.07.29.11.45a14.86,14.86,0,0,1,.26,4.49,1.54,1.54,0,0,0,2.22,1.52l.48-.24.14-.06.48-.22h0l.55-.23h0l.57-.21a16.57,16.57,0,0,1,4.41-.83h0c.08,0,9.43.1,14.44.4a15.84,15.84,0,0,0,4.23-.3,2.52,2.52,0,0,0,2.1-2l.12-.87C107,84.09,101.7,82.54,86.27,81.53Z"/><path class="cls-6" d="M127.11,96.8h0Zm7.7.93c-1.41-5.76-6.32-8.64-8.56-9.9a28.21,28.21,0,0,0-8-3c3,1.06,7.23,2.95,9.9,7,2.57,3.93-.36,4.84-1,4.9,7.64-.65,7.42,1.94,8.09,3A13.44,13.44,0,0,0,134.81,97.73Z"/><path class="cls-8" d="M76.19,87.9h0s-4.17-.71-10.4,1.29c-3.31,1.07-4.7,2.71-6,3-1.65.35-2.47,0-2.95-1.68,0,.14,0,.28,0,.42.12,3.21,1.12,4.92,2,5.45l0,0A26.43,26.43,0,0,1,61,94.08a21.74,21.74,0,0,1,12.47-6A21.37,21.37,0,0,1,76.19,87.9Z"/><path class="cls-8" d="M135.78,93.37c.84-.56,1.83-2.23,2.05-5.33,0-.13,0-.27,0-.42-.53,1.63-1.36,2-3,1.58-1.29-.32-2.63-2-5.9-3.18a30,30,0,0,0-6-1.49l-.06,0c.84.28,1.69.6,2.55,1C130.72,87.7,134.17,90.21,135.78,93.37Z"/><path class="cls-8" d="M114.16,23s0,.07,0,.07a4.1,4.1,0,0,1-3.1-.5s-.06,0-.06,0l0,3.78s0,0,0,0a5,5,0,0,0,3.27-1.26A1.45,1.45,0,0,0,114.16,23ZM81.34,13.41A13.47,13.47,0,0,0,88,17c3.82.88,3.35,0,3.2-.05-.31-.2-4.3-4-4.46-8.07C86.35,16.82,82.07,13.65,81.34,13.41Zm-.12,0c2.34,6.67-.8,4.52-1.5,4.36,1.67,1.52,4.4,1.71,6.26,1.27C86.77,18.82,82.72,17.65,81.22,13.37Zm24,2.77c-5.17-.7-4.82-6.45-8-4.42-6,3.77-10.54-2.81-10.54-2.81A14.29,14.29,0,0,0,91,14.34c4.08,2.67,8.12,2.83,7.09-1.54,0-.05,0-.07.07,0,1,1.81,3.7,3.76,6.55,4.75,2.13.74,2.4.38,4.69,1.57a8,8,0,0,1,1.78,1.37C110.06,18.93,110.88,16.9,105.27,16.14Zm-22,4.8a7.64,7.64,0,0,1-3.76-3.25s1.88,2.57,1.19,3.45c-.46.59,3.1,3,3.54,3.11,0,0,0,0,0,0C84.33,23.82,84.33,21.31,83.3,20.94Z"/><path class="cls-6" d="M99.16,100.54a.69.69,0,0,1-.11.13A.69.69,0,0,0,99.16,100.54Zm0,0ZM99,99.65a44.78,44.78,0,0,0-4.55-3.48l-.19-.06s3.51,2.21-1.18,3.3c-9.27,2.15-18.78.31-21.93.15s-5.82.6-6.6.48c-2-.32-1.18-3,1.22-4.68C68.42,93.54,77.12,94,77.12,94s-6.08-.71-5.27-2.56c.59-1.33,3.46-1.71,5-1.77a20.93,20.93,0,0,0-3.16.12A18.58,18.58,0,0,0,62.42,95.9c-1.23,1.33-2.63,3.79-1.94,5.46a2.2,2.2,0,0,0,.21.41c.81,1.18,3.25.71,4.56.63a.85.85,0,0,1,.51.15A34.46,34.46,0,0,0,81,104.87c8.71-.57,15.79-2.62,18.19-4.33A.62.62,0,0,0,99,99.65Z"/><path class="cls-6" d="M131.21,103.26Zm0,0a.82.82,0,0,0-.3.1Zm-17.69-2.49a34.82,34.82,0,0,1-5.5-2.15c-1.72-.89-1.15-1.57.4-1.49a153.68,153.68,0,0,0,18.25-.34s-15.29-.6-23.31-3.12c-4.07-1.28-8.49-2.58-11.86-3.54A30,30,0,0,0,79,88.06h0c9.17,1,17.66,6.53,23.09,10.06l1.47.94a61,61,0,0,0,15.4,5.3,23.06,23.06,0,0,0,11.86-1l-.05,0,.1-.07A57.84,57.84,0,0,1,113.52,100.77Z"/><path class="cls-8" d="M87.81,19.91a13.53,13.53,0,0,0-1.29.48l.08,3.85Z"/><path class="cls-8" d="M108.67,20.4a11.56,11.56,0,0,0-1.15-.44l1.24,4.43Z"/><path class="cls-8" d="M60.49,79.4c.62-.25,1.27-.49,1.94-.7.3-8.67,5.07-16.54,5.07-16.54C62.35,67.17,60.78,77.17,60.49,79.4Z"/><path class="cls-8" d="M128.17,62.84A42.23,42.23,0,0,1,132.25,77a17,17,0,0,1,1.93.83C133.52,74.15,131.64,66.67,128.17,62.84Z"/><path class="cls-8" d="M109.11,83.46h0c3.82-16.27,5.94-21.14,5.94-21.14l-1.84-.68a125.82,125.82,0,0,0-4.34,21.53Z"/><path class="cls-5" d="M42.76,107.88l.31-.16c1.53-.78,3.26-1.67,4.91-2.39l-1.07-1.14c-1.73.73-3.17,1.46-4.78,2.28l-.31.16c-.93.48-1.82.94-2.68,1.36h0l.93,1.25C40.93,108.82,41.83,108.36,42.76,107.88Z"/><path class="cls-5" d="M50.07,126.38a61.47,61.47,0,0,1-18.5,11.32,13.16,13.16,0,0,1-1.91.55,11.51,11.51,0,0,1-2.24.23h0c-.33,0-.66,0-1,0l1.09,1.25a7.56,7.56,0,0,0,.83,0h0a11.59,11.59,0,0,0,2.24-.23,13.16,13.16,0,0,0,1.91-.55A61.48,61.48,0,0,0,51,127.59Z"/><path class="cls-5" d="M18.39,157.92l-.17.05a2.51,2.51,0,0,1-.55.06,3.14,3.14,0,0,1-1.79-.61,7.39,7.39,0,0,1-.75-.66,6.22,6.22,0,0,0,1.68,1.9,3.16,3.16,0,0,0,1.79.61,2.6,2.6,0,0,0,.56-.06h.06Z"/><path class="cls-5" d="M109.45,141h.3a4,4,0,0,0,2-.89,16.39,16.39,0,0,1,7.58-3.29l.3,0a2.67,2.67,0,0,0-.1-1.21,2.86,2.86,0,0,0-.56,0l-.57,0a16.52,16.52,0,0,0-7.59,3.29,4,4,0,0,1-2,.89l-.3,0a2.5,2.5,0,0,1-1.47-.47s0,.05,0,.07A2.54,2.54,0,0,0,109.45,141Z"/><path class="cls-5" d="M87.6,140.6a2.94,2.94,0,0,0-.14-1.24,2,2,0,0,0-.41,0,6.55,6.55,0,0,0-.72,0,16.42,16.42,0,0,0-7.43,3.56,3.89,3.89,0,0,1-1.94,1,2.33,2.33,0,0,1-.4,0,2.43,2.43,0,0,1-1.45-.46l0,.15a2.51,2.51,0,0,0,2.34,1.56,2.41,2.41,0,0,0,.4,0,3.92,3.92,0,0,0,1.94-1,16.24,16.24,0,0,1,7.42-3.56Z"/><path class="cls-5" d="M72.43,128a4.64,4.64,0,0,0,1.25,1.52,2.63,2.63,0,0,1,.86.55,4.84,4.84,0,0,0,2.1.49,4.38,4.38,0,0,0,2.4-.69c1.22-.8,4.08-3.26,6.67-5.49l.93-.81a1.85,1.85,0,0,0-.37-3,1.86,1.86,0,0,1-.57,1.79l-.93.8c-2.58,2.24-5.44,4.69-6.67,5.49a4.32,4.32,0,0,1-2.39.69A4.78,4.78,0,0,1,72.43,128Z"/><path class="cls-5" d="M75.25,111.2a6.72,6.72,0,0,1-.91,1.36,5.12,5.12,0,0,1-3.14,1.7,5.69,5.69,0,0,1-.83.06,5.14,5.14,0,0,1-1.18-.13l1,1.26a5.45,5.45,0,0,0,1.14.12,4.76,4.76,0,0,0,.84-.07,5.08,5.08,0,0,0,3.14-1.69,6.62,6.62,0,0,0,1-1.56Z"/><path class="cls-5" d="M108.55,126.69c.19.29.22.19,0,0Zm0,0,0,0h0ZM119,118a1.75,1.75,0,0,0-.84-1h0a1.8,1.8,0,0,1-.7,1.72c-.55.39-1.67,1.28-2.85,2.21-2.49,2-4.33,3.42-5.19,3.94a4,4,0,0,1-1.76.55,2.79,2.79,0,0,1,.78,1,2.46,2.46,0,0,0,.17.3,3.92,3.92,0,0,0,1.74-.56c.87-.51,2.7-2,5.19-3.93,1.19-.94,2.3-1.82,2.85-2.22A1.77,1.77,0,0,0,119,118Z"/><path class="cls-5" d="M150.2,119l1.05,1.1a40.45,40.45,0,0,1,10.19-9.55,9.27,9.27,0,0,0,.57-2C159.9,109.28,155,112.87,150.2,119Z"/><path class="cls-5" d="M120.26,157.36l1.13,1c3.69-5.38,6.87-11.86,7.51-17.14L128,140C127.32,145.32,124,151.92,120.26,157.36Z"/><path class="cls-5" d="M88.67,161.63l1.12,1c3.64-5.62,6.75-12.48,7.19-18h0l-.93-1.24C95.59,149,92.38,156,88.67,161.63Z"/><path class="cls-5" d="M175.08,131.24l1.23.89a22.48,22.48,0,0,0,1.6-2.27c1.77-3,2-5.71,1.48-7.06a2.8,2.8,0,0,0-.93-1.24c.53,1.35.28,4.06-1.49,7.05A21.09,21.09,0,0,1,175.08,131.24Z"/><path class="cls-5" d="M73.62,140a23.57,23.57,0,0,1-7.16,7.53L67,149a23.42,23.42,0,0,0,7.07-7A8,8,0,0,1,73.62,140Z"/><path class="cls-5" d="M144.14,151.16c1.69-2.06,3.78-4.23,5-6.63.21-.43-.36-1-.7-.54-1.72,2.11-2.9,4.79-4.32,7.12,0,0,0,.09.06,0Z"/><path class="cls-5" d="M163.17,162.93a63.46,63.46,0,0,0,4-6.55c.33-.62-.66-1.16-.93-.54-1,2.36-2.07,4.72-3.14,7.07a0,0,0,0,0,0,0Z"/><path class="cls-5" d="M50.18,146.15c-.15-.84-.43-1.69-.53-2.54a.76.76,0,1,0-1.14.65,8.43,8.43,0,0,1,1.6,1.92s.08,0,.07,0Z"/><path class="cls-5" d="M33.43,160.34c-.64-1.66-1-3.5-1.73-5.11-.26-.55-1.11-.16-1,.4a15.14,15.14,0,0,0,2.65,4.73s0,0,0,0Z"/><path class="cls-5" d="M114.6,195c1.77-.13,3.51-.45,5.27-.61.77-.07.56-1.23-.13-1-1.71.55-3.45,1-5.15,1.52,0,0,0,.11,0,.1Z"/><path class="cls-5" d="M122.8,193a7.5,7.5,0,0,1,1.06-.14,3.33,3.33,0,0,0,.94-.09c.62-.24.35-1.25-.28-1a3.06,3.06,0,0,0-.82.56c-.29.23-.62.41-.93.61a0,0,0,0,0,0,.08Z"/><path class="cls-5" d="M132.17,189.54c-1,.27-1.95.54-2.92.84a6.64,6.64,0,0,0-2.35.9.45.45,0,0,0,.32.76,5.9,5.9,0,0,0,2.33-.95c.91-.46,1.77-1,2.63-1.52,0,0,0,0,0,0Z"/><path class="cls-5" d="M80,172.05c-1.52.75-2.91.5-4.51.52-.11,0-.2.16-.1.24,1.41,1.12,3.47.44,4.69-.66.06-.05,0-.13-.08-.1Z"/><path class="cls-5" d="M75.34,172.65,75,172.5s0,0,0,.05l.38.13a0,0,0,0,0,0,0Z"/><path class="cls-5" d="M111.14,167.75c-1.51.86-3.09.78-4.76.8a.1.1,0,0,0,0,.19c1.55,1.16,3.67.39,4.87-.9a.06.06,0,0,0-.06-.09Z"/><path class="cls-5" d="M106.18,168.57s0,0,0,0,0,0,0,0Z"/><path class="cls-5" d="M99.17,126.63a14,14,0,0,0,3.87-4.81.47.47,0,1,0-.87-.37,18.39,18.39,0,0,1-3,5.13s0,.08,0,0Z"/><path class="cls-5" d="M133,121.79c2.54-2.62,4.49-5.84,4.28-9.57a.06.06,0,0,0-.12,0c-1.08,3.34-2.05,6.73-4.18,9.58,0,0,0,0,0,0Z"/><path class="cls-5" d="M173.84,113.54c1.59-1.62,3.47-4.2,2.9-6.61a.15.15,0,0,0-.28,0,21,21,0,0,0-1,3,17.43,17.43,0,0,1-1.65,3.56s0,.07.06,0Z"/><path class="cls-5" d="M53,103.87a22.76,22.76,0,0,0-10.13,3,.37.37,0,0,0,.38.64A34.44,34.44,0,0,1,53,103.9s0,0,0,0Z"/><path class="cls-5" d="M23.77,109.73c.93.72,2.28,1.7,3.51,1.7a.19.19,0,0,0,.1-.36,13.22,13.22,0,0,0-1.65-.53,11.44,11.44,0,0,1-1.94-.83s0,0,0,0Z"/><path class="cls-5" d="M61.26,97.53s-1.6,5,4,4.87c0,0-3.94.92-4.72-.73S61.26,97.53,61.26,97.53Z"/><path class="cls-5" d="M87.12,27.5a64.35,64.35,0,0,0,.49,11c.42,2.88,1.06,6.08,2.43,7.39,0,0-3.11-2.1-3.33-7.68A72.61,72.61,0,0,1,87.12,27.5Z"/><path class="cls-5" d="M108,27.5a64.35,64.35,0,0,1-.49,11c-.42,2.88-1.06,6.08-2.43,7.39,0,0,3.11-2.1,3.33-7.68A72.61,72.61,0,0,0,108,27.5Z"/><path class="cls-2" d="M157.34,53.18h-25a.62.62,0,0,1-.62-.62h0a.62.62,0,0,1,.62-.62h25a.62.62,0,0,1,.62.62h0A.62.62,0,0,1,157.34,53.18Z"/><path class="cls-5" d="M135.85,52.39a13.67,13.67,0,0,0-3.71-.31.37.37,0,0,0,0,.74,14.08,14.08,0,0,0,3.71-.31.06.06,0,0,0,0-.12Z"/><path class="cls-5" d="M155.35,52.53a9,9,0,0,0,2.06.34.39.39,0,0,0,0-.77,9,9,0,0,0-2.06.33.05.05,0,0,0,0,.1Z"/><path class="cls-2" d="M61.72,53.18H36.77a.62.62,0,0,1-.62-.62h0a.62.62,0,0,1,.62-.62H61.72a.62.62,0,0,1,.62.62h0A.62.62,0,0,1,61.72,53.18Z"/><path class="cls-5" d="M58.33,52.62a16.48,16.48,0,0,0,3.56.31.35.35,0,0,0,0-.69,16.48,16.48,0,0,0-3.56.31s0,.07,0,.07Z"/><path class="cls-5" d="M38,52.57a4,4,0,0,0-1.31-.36.41.41,0,0,0,0,.82A4.06,4.06,0,0,0,38,52.67a.05.05,0,0,0,0-.1Z"/></g><g id="Text"><path class="cls-1" d="M55.08,168.83l-2.35-2.3,1.33-1.36,2.49,2.45,1-1L54,163.16l-5.47,5.58,0,0,1,1,2.25-2.29,2.35,2.3Zm-1.43,5,1.3,1,1.61-1,2.5,1.92-.53,1.83,1.33,1,2.2-8.24-1-.76Zm5.8.56-1.68-1.3,2.6-1.63Zm8.21,5.82.79-5.54v0l-1.88-1-3.74,6.93,1.23.67L67,175.75l-1,6.45.91.49,4.83-4.39-2.92,5.42,1.23.66,3.74-6.93-1.86-1Zm6.24,5.76,1.37.53,2.83-7.35-1.37-.53Zm8.59-5.3,0-.07-1.41-.4L79,187.68l0,.07L83.37,189h.06l.38-1.33-3.06-.86Zm6.41,4.49-1.25-3.25v0l-1.81-.31,2.07,4.93-.57,3.32,1.45.24.56-3.31,3.5-3.88.08-.09-1.72-.3Zm16.46,3.51a2.68,2.68,0,0,1-.74.73,1.86,1.86,0,0,1-.84.25,2.31,2.31,0,0,1-1-.17,2.24,2.24,0,0,1-.81-.55,2.59,2.59,0,0,1-.55-.86,3.53,3.53,0,0,1-.23-1.11,3.12,3.12,0,0,1,.13-1.07,2.85,2.85,0,0,1,.47-.88,2.5,2.5,0,0,1,.76-.61,2.55,2.55,0,0,1,1-.25,2,2,0,0,1,.76.12,2.13,2.13,0,0,1,.8.55l0,.05,1.1-.92,0,0a3.34,3.34,0,0,0-1.27-.91,3.68,3.68,0,0,0-1.45-.22,4.36,4.36,0,0,0-1.6.36,3.7,3.7,0,0,0-1.23.9,4.07,4.07,0,0,0-.77,1.35,4.65,4.65,0,0,0-.22,1.73,4.39,4.39,0,0,0,.37,1.66,3.83,3.83,0,0,0,.89,1.26,3.73,3.73,0,0,0,1.3.78,4.34,4.34,0,0,0,1.41.23h.22a3.79,3.79,0,0,0,1.56-.4,3.11,3.11,0,0,0,1.21-1.13l0-.05-1.24-.84Zm9.34-7.3-1.44.28.92,4.83a1.9,1.9,0,0,1,0,.59,1.58,1.58,0,0,1-.16.59,1.37,1.37,0,0,1-.41.5,1.65,1.65,0,0,1-.72.3,1.56,1.56,0,0,1-.78,0,1.33,1.33,0,0,1-.56-.31,1.63,1.63,0,0,1-.37-.49,2.57,2.57,0,0,1-.19-.55l-.92-4.84-1.44.28.93,4.88a3.57,3.57,0,0,0,.47,1.22,2.74,2.74,0,0,0,.82.84,3.1,3.1,0,0,0,1.08.43,3.45,3.45,0,0,0,.57,0,3.18,3.18,0,0,0,.67-.07,3.4,3.4,0,0,0,1.15-.44,2.77,2.77,0,0,0,1.29-1.88,3.22,3.22,0,0,0,0-1.31Zm4.4-1.31-1.41.43,2.31,7.46,0,.07,1.4-.43-2.3-7.46Zm8.89,1.27a2.38,2.38,0,0,0-.89-.37,3.83,3.83,0,0,0-1,0l-.9.06a2.3,2.3,0,0,1-.72-.08.63.63,0,0,1-.43-.41A1,1,0,0,1,124,180a.92.92,0,0,1,.13-.36,1.13,1.13,0,0,1,.28-.3,2.22,2.22,0,0,1,.37-.21,1.82,1.82,0,0,1,.72-.15h0a1.19,1.19,0,0,1,.66.2l.08,0,.53-1.5-.06,0a2.72,2.72,0,0,0-1.19-.18,3.59,3.59,0,0,0-1.15.28,4.19,4.19,0,0,0-.89.53,2.78,2.78,0,0,0-.66.76,2.21,2.21,0,0,0-.3.94,2.12,2.12,0,0,0,.19,1.08,2,2,0,0,0,.69.94,2.31,2.31,0,0,0,.89.37,3.35,3.35,0,0,0,1,0c.32,0,.62-.05.9-.05h0a2.09,2.09,0,0,1,.69.1.75.75,0,0,1,.46.46,1,1,0,0,1,.07.44,1,1,0,0,1-.15.4,1.28,1.28,0,0,1-.29.33,1.9,1.9,0,0,1-.39.23,1.65,1.65,0,0,1-.82.12,1.52,1.52,0,0,1-.79-.29l-.07-.05-.59,1.46.06,0a2.71,2.71,0,0,0,1.26.32h.11a4,4,0,0,0,1.35-.3,4,4,0,0,0,.92-.56,2.62,2.62,0,0,0,.64-.78,2.45,2.45,0,0,0,.26-1,2.61,2.61,0,0,0-.23-1.12A2.15,2.15,0,0,0,128,181.29Zm1.1-5.48,3.75,6.93,1.29-.7-3.75-6.93Zm8.48-5.32,3.22,4.6-6.08-2.56h0l-1.53,1.07,4.52,6.45,1.2-.84-3.32-4.75,6.28,2.68,1.47-1-4.52-6.46Zm11.9-1.72-2.79,2.6-1.34-1.44,2.46-2.29,0,0-.94-1-2.51,2.34-1.2-1.3,2.6-2.41,0-.05-.94-1-3.68,3.41,0,.05,5.32,5.72.05,0,3.81-3.55,0,0Z"/><path class="cls-1" d="M81.45,184.33,80,184l-1,3.69,0,.07L83.37,189h.06l.38-1.33-3.06-.86Zm-12.65-.61,1.23.66,1.64-3-1.31-.52Zm-6-3.22,1.23.67,1.41-2.61c-.42-.21-.83-.43-1.24-.66Zm11.06,5.43,1.37.53L76.58,183l-1.4-.44Zm-5.85-6.1-.39.34.07-.49-1.26-.61L66,182.2l.91.49,2.49-2.27Zm79.8-12.24-.2-.21c-.67.81-1.38,1.61-2.14,2.39l2.29-2.13Zm-94.2,6.2,1.3,1,1.61-1,2.5,1.92-.53,1.83,1.33,1,.75-2.84a48.12,48.12,0,0,1-4.47-3.34Zm-5.14-5,0,0,1,1,2-2.06c-.32-.38-.63-.76-.92-1.15Zm91.74,5.58.54.77-1-.42-1.43,1,3.47,1.48,1.47-1-1.87-2.67C141,173.74,140.65,174,140.25,174.32Zm-12.26,7-.25-.15c-1.15.46-2.32.89-3.52,1.29l.08,0a3.35,3.35,0,0,0,1,0c.32,0,.62-.05.9-.05h0a2.09,2.09,0,0,1,.69.1.75.75,0,0,1,.46.46,1,1,0,0,1,.07.44,1,1,0,0,1-.15.4,1.28,1.28,0,0,1-.29.33,1.9,1.9,0,0,1-.39.23,1.65,1.65,0,0,1-.82.12,1.52,1.52,0,0,1-.79-.29l-.07-.05-.59,1.46.06,0a2.71,2.71,0,0,0,1.26.32h.11a4,4,0,0,0,1.35-.3,4,4,0,0,0,.92-.56,2.62,2.62,0,0,0,.64-.78,2.45,2.45,0,0,0,.26-1,2.61,2.61,0,0,0-.23-1.12A2.15,2.15,0,0,0,128,181.29ZM87.9,186.46l-.57,3.32,1.45.24.56-3.31.83-.91c-.91-.11-1.81-.22-2.7-.35Zm43.28-6.8,1.66,3.08,1.29-.7-1.63-3Zm18.29-10.89-2.79,2.6-1.33-1.43-1,1,2.2,2.37.05,0,3.81-3.55,0,0Zm-13.74,8.51,1.93,2.76,1.2-.84L137,176.53Zm-30.37,11.35a2.68,2.68,0,0,1-.74.73,1.86,1.86,0,0,1-.84.25,2.31,2.31,0,0,1-1-.17,2.24,2.24,0,0,1-.81-.55,2.59,2.59,0,0,1-.55-.86,3.53,3.53,0,0,1-.23-1.11,3.25,3.25,0,0,1,0-.63l-1.53,0a4.76,4.76,0,0,0,0,.76,4.39,4.39,0,0,0,.37,1.66,3.83,3.83,0,0,0,.89,1.26,3.73,3.73,0,0,0,1.3.78,4.34,4.34,0,0,0,1.41.23h.22a3.79,3.79,0,0,0,1.56-.4,3.11,3.11,0,0,0,1.21-1.13l0-.05-1.24-.84Zm10-3.86-1.44.27.26,1.4a1.9,1.9,0,0,1,0,.59,1.58,1.58,0,0,1-.16.59,1.37,1.37,0,0,1-.41.5,1.65,1.65,0,0,1-.72.3,1.56,1.56,0,0,1-.78,0,1.33,1.33,0,0,1-.56-.31,1.63,1.63,0,0,1-.37-.49,2.57,2.57,0,0,1-.19-.55l-.28-1.51-1.46.19.31,1.64a3.57,3.57,0,0,0,.47,1.22,2.74,2.74,0,0,0,.82.84,3.1,3.1,0,0,0,1.08.43,3.45,3.45,0,0,0,.57,0,3.18,3.18,0,0,0,.67-.07,3.4,3.4,0,0,0,1.15-.44,2.77,2.77,0,0,0,1.29-1.88,3.22,3.22,0,0,0,0-1.31Zm3.43-.77,1.21,3.91,0,.07,1.4-.43-1.21-3.92Z"/><path class="cls-5" d="M54.17,167.62l-2.35-2.3L53.14,164l2.5,2.44,1-1L53.07,162l-5.47,5.58-.05.05,1.05,1,2.25-2.29,2.35,2.3Zm-1.43,5,1.3,1,1.61-1,2.5,1.92-.53,1.83,1.32,1,2.2-8.24-1-.76Zm5.8.56-1.68-1.29,2.6-1.64ZM66.75,179l.79-5.54v0l-1.89-1-3.74,6.93,1.24.67,2.92-5.42-1,6.45.9.49,4.84-4.39-2.92,5.42,1.23.67,3.74-6.94-1.87-1ZM73,184.72l1.36.53,2.84-7.35-1.37-.53Zm8.59-5.3,0-.07L80.18,179l-2.11,7.52,0,.06,4.41,1.24.06,0,.38-1.34-3.06-.85ZM88,183.91l-1.25-3.24v0l-1.81-.31L87,185.25l-.57,3.32,1.45.24.56-3.31,3.5-3.88.08-.09-1.72-.29Zm16.46,3.51a2.46,2.46,0,0,1-.75.73,1.78,1.78,0,0,1-.83.25,2.28,2.28,0,0,1-1-.17,2.26,2.26,0,0,1-.81-.54,2.58,2.58,0,0,1-.55-.87,3.27,3.27,0,0,1-.23-1.11,3.12,3.12,0,0,1,.13-1.07,2.85,2.85,0,0,1,.47-.88,2.38,2.38,0,0,1,.76-.61,2.55,2.55,0,0,1,1-.25,2,2,0,0,1,.76.12,2,2,0,0,1,.79.56l0,0,1.1-.92,0,0a3.42,3.42,0,0,0-1.27-.91,3.68,3.68,0,0,0-1.45-.22,4.37,4.37,0,0,0-1.6.37,3.54,3.54,0,0,0-1.23.89,3.79,3.79,0,0,0-.77,1.36,4.78,4.78,0,0,0-.23,1.72,4.59,4.59,0,0,0,.38,1.66,3.73,3.73,0,0,0,.89,1.26,3.64,3.64,0,0,0,1.3.78,4.24,4.24,0,0,0,1.4.23h.23a3.79,3.79,0,0,0,1.56-.4,3,3,0,0,0,1.21-1.13l0-.05-1.25-.84Zm9.34-7.29-1.44.27.92,4.84a1.82,1.82,0,0,1,0,.58,1.79,1.79,0,0,1-.16.59,1.48,1.48,0,0,1-.41.5,1.93,1.93,0,0,1-1.5.29,1.57,1.57,0,0,1-.93-.81,2.4,2.4,0,0,1-.19-.55l-.92-4.84-1.44.28.93,4.88a3.57,3.57,0,0,0,.47,1.22,2.74,2.74,0,0,0,.82.84,2.85,2.85,0,0,0,1.08.43,3.43,3.43,0,0,0,.56,0,3.05,3.05,0,0,0,.67-.07,3.37,3.37,0,0,0,1.16-.44,2.89,2.89,0,0,0,.84-.79,3,3,0,0,0,.45-1.09,3.4,3.4,0,0,0,0-1.31Zm4.39-1.32-1.4.43,2.31,7.47,0,.06,1.4-.43-2.31-7.46Zm8.9,1.27a2.38,2.38,0,0,0-.89-.37,3.85,3.85,0,0,0-1,0l-.9.06a2.3,2.3,0,0,1-.72-.08.61.61,0,0,1-.43-.41.83.83,0,0,1-.08-.42.91.91,0,0,1,.13-.37,1.06,1.06,0,0,1,.27-.29,2.08,2.08,0,0,1,.38-.22,1.79,1.79,0,0,1,.72-.15h0a1.19,1.19,0,0,1,.66.2l.07.05.54-1.5-.06,0a2.72,2.72,0,0,0-1.19-.18,3.64,3.64,0,0,0-2,.82,2.47,2.47,0,0,0-.66.75,2.21,2.21,0,0,0-.3.94,2.18,2.18,0,0,0,.19,1.09,2.06,2.06,0,0,0,.69.94,2.25,2.25,0,0,0,.88.36,3.42,3.42,0,0,0,1,0c.32,0,.62,0,.9,0h0a2.13,2.13,0,0,1,.69.1.8.8,0,0,1,.46.46.86.86,0,0,1,.06.44.8.8,0,0,1-.14.4,1.81,1.81,0,0,1-.29.33,2,2,0,0,1-.39.23,1.65,1.65,0,0,1-.82.12,1.52,1.52,0,0,1-.79-.29l-.07,0-.59,1.45,0,0a2.78,2.78,0,0,0,1.27.32h.1a4,4,0,0,0,1.36-.3,3.71,3.71,0,0,0,.92-.56,2.78,2.78,0,0,0,.64-.78,2.41,2.41,0,0,0,.26-1,2.61,2.61,0,0,0-.23-1.12A2.15,2.15,0,0,0,127.08,180.08Zm1.1-5.48,3.75,6.93,1.29-.7-3.75-6.93Zm8.48-5.32,3.22,4.6-6.08-2.56h0l-1.53,1.07,4.52,6.46L138,178l-3.33-4.75,6.28,2.69,1.47-1-4.51-6.46Zm11.9-1.72-2.79,2.6-1.34-1.44,2.46-2.29.05,0-.94-1-2.51,2.34-1.2-1.29,2.6-2.42.05-.05-.95-1-3.67,3.42,0,0,5.32,5.72,0,0,3.81-3.55.05,0Z"/><path class="cls-2" d="M80.54,183.12l-1.43-.34-1,3.7,0,.06,4.41,1.24.06,0,.38-1.34-3.06-.85Zm-12.65-.61,1.23.67,1.64-3-1.32-.52Zm-6-3.22,1.24.67,1.4-2.6c-.41-.22-.83-.44-1.23-.67ZM73,184.72l1.36.53,1.32-3.42-1.4-.44Zm-5.85-6.1-.39.34.07-.49-1.26-.61L65.07,181l.9.49,2.5-2.27Zm79.8-12.23-.2-.22c-.67.82-1.38,1.62-2.14,2.39l2.29-2.13Zm-94.2,6.19,1.3,1,1.61-1,2.5,1.92-.53,1.83,1.32,1,.76-2.84a48.12,48.12,0,0,1-4.47-3.34Zm-5.14-5.05-.05.05,1.05,1,2-2.06c-.32-.38-.63-.76-.93-1.15Zm91.74,5.58.54.77-1-.42-1.43,1,3.46,1.49,1.47-1-1.86-2.67Zm-12.26,7-.25-.14c-1.15.45-2.32.88-3.52,1.28l.07,0a3.42,3.42,0,0,0,1,0c.32,0,.62,0,.9,0h0a2.13,2.13,0,0,1,.69.1.8.8,0,0,1,.46.46.86.86,0,0,1,.06.44.8.8,0,0,1-.14.4,1.81,1.81,0,0,1-.29.33,2,2,0,0,1-.39.23,1.65,1.65,0,0,1-.82.12,1.52,1.52,0,0,1-.79-.29l-.07,0-.59,1.45,0,0a2.78,2.78,0,0,0,1.27.32h.1a4,4,0,0,0,1.36-.3,3.71,3.71,0,0,0,.92-.56,2.78,2.78,0,0,0,.64-.78,2.41,2.41,0,0,0,.26-1,2.61,2.61,0,0,0-.23-1.12A2.15,2.15,0,0,0,127.08,180.08ZM87,185.25l-.57,3.32,1.45.24.56-3.31.83-.91c-.91-.1-1.81-.22-2.7-.35Zm43.27-6.8,1.67,3.08,1.29-.7-1.63-3Zm18.3-10.89-2.79,2.6-1.33-1.43-1.05,1,2.2,2.37,0,0,3.81-3.55.05,0Zm-13.75,8.51,1.94,2.77L138,178l-1.87-2.67Zm-30.36,11.35a2.46,2.46,0,0,1-.75.73,1.78,1.78,0,0,1-.83.25,2.28,2.28,0,0,1-1-.17,2.26,2.26,0,0,1-.81-.54,2.58,2.58,0,0,1-.55-.87,3.51,3.51,0,0,1-.2-1.74l-1.53,0a4.78,4.78,0,0,0,0,.76,4.59,4.59,0,0,0,.38,1.66,3.73,3.73,0,0,0,.89,1.26,3.64,3.64,0,0,0,1.3.78,4.24,4.24,0,0,0,1.4.23h.23a3.79,3.79,0,0,0,1.56-.4,3,3,0,0,0,1.21-1.13l0-.05-1.25-.84Zm10-3.86-1.44.27.27,1.41a1.82,1.82,0,0,1,0,.58,1.79,1.79,0,0,1-.16.59,1.48,1.48,0,0,1-.41.5,1.93,1.93,0,0,1-1.5.29,1.57,1.57,0,0,1-.93-.81,2.4,2.4,0,0,1-.19-.55l-.29-1.51-1.45.19.31,1.64a3.57,3.57,0,0,0,.47,1.22,2.74,2.74,0,0,0,.82.84,2.85,2.85,0,0,0,1.08.43,3.43,3.43,0,0,0,.56,0,3.05,3.05,0,0,0,.67-.07,3.37,3.37,0,0,0,1.16-.44,2.89,2.89,0,0,0,.84-.79,3,3,0,0,0,.45-1.09,3.4,3.4,0,0,0,0-1.31Zm3.44-.77,1.21,3.92,0,.06,1.4-.43-1.21-3.92Z"/><path class="cls-1" d="M45.2,39.88l-1.06,0H42.21A5.74,5.74,0,0,0,41,40a1.94,1.94,0,0,0-1.45,1.36.23.23,0,0,0,0,.13.19.19,0,0,0,.35.09,1.65,1.65,0,0,1,.92-.63,6.56,6.56,0,0,1,1.34-.35A19.23,19.23,0,0,0,41,43h-.24a.63.63,0,0,0-.39.21c-.16.15-.23.26-.23.37a.19.19,0,0,0,.21.19h.34a9.3,9.3,0,0,0-.8,2.85c0,.53.27.61.43.61h3a5.86,5.86,0,0,0,.66,0,2.8,2.8,0,0,0,.57-.17,1.79,1.79,0,0,0,.89-1.21.76.76,0,0,0,0-.19.18.18,0,0,0-.19-.2.2.2,0,0,0-.19.11c-.33.71-1.43,1.07-3.26,1.07a.73.73,0,0,1-.44-.09.35.35,0,0,1-.11-.29,5,5,0,0,1,.25-1.06c.16-.51.32-1,.48-1.4h2.32c.11,0,.22-.08.34-.27s.16-.29.16-.35v-.07L44.68,43h-2.4a15,15,0,0,1,1.21-2.3.31.31,0,0,1,.19-.15,1.62,1.62,0,0,1,.46-.05.8.8,0,0,1,.51.16.42.42,0,0,1,.19.36l-.08.63a.22.22,0,0,0,.24.22c.12,0,.23-.1.47-.63a2.39,2.39,0,0,0,.25-1,1.51,1.51,0,0,0,0-.22C45.62,39.88,45.3,39.88,45.2,39.88Zm5.63,4.52c-.1,0-.13,0-.5.7a2.88,2.88,0,0,1-.21.33,4.57,4.57,0,0,1-.47.65,1.27,1.27,0,0,0,0-.34,1.16,1.16,0,0,0-.24-.69,2.05,2.05,0,0,0-.5-.48,2.6,2.6,0,0,1-.45-.37.59.59,0,0,1-.18-.41.36.36,0,0,1,.16-.31.61.61,0,0,1,.63-.08.12.12,0,0,1,0,.11c0,.05,0,.11-.16.18s-.28.22-.28.33a.4.4,0,0,0,.45.44.75.75,0,0,0,.61-.29,1,1,0,0,0,.22-.63.63.63,0,0,0-.36-.59,1.5,1.5,0,0,0-.76-.17,1.6,1.6,0,0,0-1.12.38,1.27,1.27,0,0,0-.42,1,1.4,1.4,0,0,0,.44,1l.33.32a1.7,1.7,0,0,1,.26.34.88.88,0,0,1,.1.43.54.54,0,0,1-.2.41.63.63,0,0,1-.46.2c-.29,0-.41-.11-.41-.37a.46.46,0,0,1,.14-.35L47.6,46l0-.08a.41.41,0,0,0-.43-.27.55.55,0,0,0-.49.27.87.87,0,0,0-.16.52.84.84,0,0,0,.44.76,1.87,1.87,0,0,0,1,.24A2.5,2.5,0,0,0,49.55,47a7.09,7.09,0,0,0,1.35-1.8h0a1,1,0,0,0,.11-.43C51,44.51,51,44.4,50.83,44.4Zm3.68-2.95-.1-.25H54c-.53,0-1,.57-1.52,1.75h-.65c-.1,0-.16.08-.22.17a.43.43,0,0,0-.1.23.17.17,0,0,0,.17.19h.45c-.09.19-.18.4-.3.63l-.36.74a1.22,1.22,0,0,0-.15.47c0,.23.11.26.18.26a.17.17,0,0,0,.11,0,3.74,3.74,0,0,0-.09.78c0,.78.38.94.69.94a1.24,1.24,0,0,0,.77-.34,3.94,3.94,0,0,0,.65-.71c.74-1,.84-1.39.84-1.57s-.12-.3-.2-.3-.09,0-.58.82a4.7,4.7,0,0,1-.28.43c-.34.45-.56.55-.69.55s-.1,0-.1-.25a9.75,9.75,0,0,1,.73-2.41h.75a.41.41,0,0,0,.29-.18.42.42,0,0,0,.14-.26V43L54.4,43h-.84A3.87,3.87,0,0,1,54.51,41.45Zm5.1.48a4.19,4.19,0,0,1,.8-1.31l-.1-.24h-.39a2.69,2.69,0,0,0-.51,0,.57.57,0,0,0-.34.23.8.8,0,0,0-.13.22c0,.06-.08.17-.14.32s-.19.46-.38.95-.31.75-.46,1.07a1.15,1.15,0,0,0-.87-.32,1.89,1.89,0,0,0-1.3.55,3.59,3.59,0,0,0-.89,1.29,4,4,0,0,0-.3,1.48c0,.89.43,1.07.79,1.07a1.71,1.71,0,0,0,1.25-.72,7.31,7.31,0,0,0,.56-.75,3,3,0,0,0-.05.57c0,.77.35.93.65.93a1.21,1.21,0,0,0,.76-.34,3.66,3.66,0,0,0,.66-.71c.74-1,.83-1.38.84-1.55s-.11-.33-.21-.33-.14.06-.27.29l-.31.54c-.12.2-.21.35-.28.45a2.62,2.62,0,0,1-.34.35c-.18.16-.28.19-.32.19s0,0,0-.19a6.69,6.69,0,0,1,.39-1.75A20.5,20.5,0,0,1,59.61,41.93Zm-3.7,4.26s-.09,0-.09-.18a2.52,2.52,0,0,1,.25-1,3.67,3.67,0,0,1,.69-1,1.13,1.13,0,0,1,.79-.42.4.4,0,0,1,.23.06C56.81,45.74,56.23,46.19,55.91,46.19Z"/><path class="cls-1" d="M60.31,40.38h-.39a2.69,2.69,0,0,0-.51,0,.57.57,0,0,0-.34.23.8.8,0,0,0-.13.22c0,.06-.08.17-.14.32s-.19.46-.38.95-.31.75-.46,1.07a1.15,1.15,0,0,0-.87-.32,1.89,1.89,0,0,0-1.3.55,2.15,2.15,0,0,0-.32.35H57a1,1,0,0,1,.59-.24.4.4,0,0,1,.23.06,1.42,1.42,0,0,0-.08.18h1.15c.23-.65.48-1.28.76-1.88a4.19,4.19,0,0,1,.8-1.31Zm-5.8,1.07-.1-.25H54c-.53,0-1,.57-1.52,1.75h-.65c-.1,0-.16.08-.22.17a.43.43,0,0,0-.1.23.17.17,0,0,0,.17.19h.45l-.12.26h1.24a2.77,2.77,0,0,0,.1-.26h.75a.41.41,0,0,0,.29-.18.42.42,0,0,0,.14-.26V43L54.4,43h-.84A3.87,3.87,0,0,1,54.51,41.45ZM45.2,39.88l-1.06,0H42.21A5.74,5.74,0,0,0,41,40a1.94,1.94,0,0,0-1.45,1.36.23.23,0,0,0,0,.13.19.19,0,0,0,.35.09,1.65,1.65,0,0,1,.92-.63,6.56,6.56,0,0,1,1.34-.35A19.23,19.23,0,0,0,41,43h-.24a.63.63,0,0,0-.39.21c-.16.15-.23.26-.23.37a.19.19,0,0,0,.19.19h4c.1,0,.2-.09.32-.27s.16-.29.16-.35v-.07L44.68,43h-2.4a15,15,0,0,1,1.21-2.3.31.31,0,0,1,.19-.15,1.62,1.62,0,0,1,.46-.05.8.8,0,0,1,.51.16.42.42,0,0,1,.19.36l-.08.63a.22.22,0,0,0,.24.22c.12,0,.23-.1.47-.63a2.39,2.39,0,0,0,.25-1,1.51,1.51,0,0,0,0-.22C45.62,39.88,45.3,39.88,45.2,39.88ZM49.64,43a1.5,1.5,0,0,0-.76-.17,1.6,1.6,0,0,0-1.12.38,1.28,1.28,0,0,0-.38.65h.95v0a.36.36,0,0,1,.16-.31.61.61,0,0,1,.63-.08.12.12,0,0,1,0,.11c0,.05,0,.11-.16.18l-.16.12H50a1.26,1.26,0,0,0,0-.27A.63.63,0,0,0,49.64,43Z"/><path class="cls-1" d="M49.31,46A.87.87,0,0,0,49.09,45c-.22-.25-.62-.47-.72-.83a1.28,1.28,0,0,1,.29-1,.21.21,0,0,0-.24-.3A1,1,0,0,0,47.73,44a1.19,1.19,0,0,0,.39.64c.42.38,1.41.53,1.16,1.36a0,0,0,0,0,0,0Z"/><path class="cls-1" d="M41.06,46c.5-1.47,1.17-2.91,1.78-4.34.16-.37-.34-.69-.55-.32A9.27,9.27,0,0,0,41,46s0,0,0,0Z"/><path class="cls-1" d="M43.72,46.59a1.35,1.35,0,0,0,1.11-.13,1.24,1.24,0,0,0,.57-.92.22.22,0,0,0-.4-.11,2.56,2.56,0,0,1-.39.68,1.53,1.53,0,0,1-.88.43,0,0,0,0,0,0,.05Z"/><path class="cls-1" d="M47.42,46.79a.5.5,0,0,1,.11-.67c.25-.21-.11-.57-.36-.36a.64.64,0,0,0-.23.68.69.69,0,0,0,.42.43.05.05,0,0,0,.06-.08Z"/><path class="cls-1" d="M52.44,45.79c.29-1,.87-2,1.16-3,.09-.31-.32-.44-.49-.21a5.25,5.25,0,0,0-.7,3.21s0,0,0,0Z"/><path class="cls-1" d="M54.72,45.87a3.41,3.41,0,0,1,2-2.41.22.22,0,1,0-.17-.4,3.12,3.12,0,0,0-1.93,2.8s.07,0,.07,0Z"/><path class="cls-1" d="M57.16,45a2.83,2.83,0,0,0,1-1.38c.05-.2-.25-.36-.35-.15a12.35,12.35,0,0,1-.65,1.5s0,0,0,0Z"/><path class="cls-1" d="M59,46.12A2.64,2.64,0,0,0,60,44.57c.07-.27-.36-.39-.42-.11a3.51,3.51,0,0,1-.71,1.6s0,.08,0,.06Z"/><path class="cls-2" d="M44.79,39,43.73,39H41.8a5.74,5.74,0,0,0-1.23.11,1.92,1.92,0,0,0-1.45,1.36.23.23,0,0,0,0,.13.18.18,0,0,0,.35.08,1.7,1.7,0,0,1,.92-.62,6.56,6.56,0,0,1,1.34-.36,20.33,20.33,0,0,0-1.11,2.41h-.24a.58.58,0,0,0-.39.21.53.53,0,0,0-.23.37.19.19,0,0,0,.21.19h.34a9.42,9.42,0,0,0-.81,2.85c0,.53.28.61.44.61h3a4,4,0,0,0,.66,0,2.24,2.24,0,0,0,.57-.16A1.79,1.79,0,0,0,45,44.94a.65.65,0,0,0,0-.18.18.18,0,0,0-.19-.2.2.2,0,0,0-.19.11c-.33.71-1.43,1.07-3.26,1.07a.73.73,0,0,1-.44-.09.37.37,0,0,1-.11-.29,4.87,4.87,0,0,1,.25-1.06c.16-.51.32-1,.48-1.4h2.32c.11,0,.22-.08.34-.27a.7.7,0,0,0,.16-.35v-.07l-.08-.08h-2.4a14.57,14.57,0,0,1,1.21-2.3.37.37,0,0,1,.19-.16,1.71,1.71,0,0,1,.46,0,.85.85,0,0,1,.51.15.44.44,0,0,1,.19.37l-.08.63a.22.22,0,0,0,.24.22c.12,0,.23-.1.47-.63a2.58,2.58,0,0,0,.25-.95,1.51,1.51,0,0,0,0-.22C45.21,39,44.89,39,44.79,39Zm5.63,4.52c-.1,0-.13,0-.5.7-.12.2-.18.29-.21.33a5.22,5.22,0,0,1-.47.65,1.27,1.27,0,0,0,0-.34,1.16,1.16,0,0,0-.24-.69,2.05,2.05,0,0,0-.5-.48,2.6,2.6,0,0,1-.45-.37.61.61,0,0,1-.18-.41.36.36,0,0,1,.16-.31.58.58,0,0,1,.63-.08s0,.06,0,.11,0,.11-.16.18-.28.22-.28.33a.4.4,0,0,0,.45.44.75.75,0,0,0,.61-.29,1,1,0,0,0,.21-.64.64.64,0,0,0-.35-.59,1.86,1.86,0,0,0-1.88.22,1.26,1.26,0,0,0-.42,1,1.4,1.4,0,0,0,.44,1l.33.32a1.46,1.46,0,0,1,.26.34.85.85,0,0,1,.1.43.54.54,0,0,1-.2.41.62.62,0,0,1-.46.19c-.29,0-.41-.1-.41-.36a.5.5,0,0,1,.14-.36l.06-.06,0-.08a.41.41,0,0,0-.43-.27.56.56,0,0,0-.49.26.92.92,0,0,0-.16.53.84.84,0,0,0,.44.76,2,2,0,0,0,1,.23A2.5,2.5,0,0,0,49.14,46a7.09,7.09,0,0,0,1.35-1.8h0a1,1,0,0,0,.11-.43C50.61,43.59,50.54,43.49,50.42,43.49Zm3.68-3L54,40.29h-.44c-.53,0-1,.57-1.52,1.75h-.65a.27.27,0,0,0-.22.17.43.43,0,0,0-.1.23.17.17,0,0,0,.17.18h.45c-.09.2-.18.41-.3.64L51,44a1.22,1.22,0,0,0-.15.47c0,.23.11.26.18.26a.13.13,0,0,0,.1,0,4.38,4.38,0,0,0-.08.77c0,.79.38,1,.69,1a1.3,1.3,0,0,0,.77-.34,4.31,4.31,0,0,0,.65-.71c.74-1,.84-1.39.84-1.58s-.12-.29-.2-.29-.09,0-.58.81a2.91,2.91,0,0,1-.28.43c-.34.46-.56.56-.69.56s-.1,0-.1-.25a9.9,9.9,0,0,1,.73-2.42h.75a.4.4,0,0,0,.29-.17c.1-.12.14-.19.14-.27v-.06L54,42.05h-.84A4,4,0,0,1,54.1,40.53Zm5.1.49a3.91,3.91,0,0,1,.8-1.31l-.1-.24h-.39a2.21,2.21,0,0,0-.52.05.56.56,0,0,0-.33.22,1.27,1.27,0,0,0-.13.22l-.14.32-.38,1c-.16.4-.31.76-.46,1.07a1.14,1.14,0,0,0-.87-.31,1.92,1.92,0,0,0-1.3.54,3.77,3.77,0,0,0-.89,1.29,4,4,0,0,0-.3,1.49c0,.89.43,1.07.79,1.07a1.69,1.69,0,0,0,1.25-.73,5.63,5.63,0,0,0,.56-.75,3,3,0,0,0,0,.57c0,.78.35.94.65.94a1.27,1.27,0,0,0,.76-.34,4,4,0,0,0,.66-.71c.74-1,.83-1.38.84-1.56s-.12-.32-.21-.32-.14.06-.27.29l-.31.54c-.12.2-.21.35-.28.45a2.62,2.62,0,0,1-.34.35c-.18.16-.28.19-.32.19a.36.36,0,0,1,0-.19,6.53,6.53,0,0,1,.39-1.75A20.5,20.5,0,0,1,59.2,41Zm-3.7,4.26s-.09,0-.09-.18a2.52,2.52,0,0,1,.25-1,3.87,3.87,0,0,1,.69-1,1.15,1.15,0,0,1,.79-.41.4.4,0,0,1,.23.06C56.4,44.83,55.82,45.28,55.5,45.28Z"/><path class="cls-5" d="M59.9,39.47h-.39a2.21,2.21,0,0,0-.52.05.56.56,0,0,0-.33.22,1.27,1.27,0,0,0-.13.22l-.14.32-.38,1c-.16.4-.31.76-.46,1.07a1.14,1.14,0,0,0-.87-.31,1.92,1.92,0,0,0-1.3.54,3.49,3.49,0,0,0-.32.35h1.49a1,1,0,0,1,.59-.23.4.4,0,0,1,.23.06l-.08.17h1.15c.23-.64.48-1.27.76-1.87a3.91,3.91,0,0,1,.8-1.31Zm-5.8,1.06L54,40.29h-.44c-.53,0-1,.57-1.52,1.75h-.65a.27.27,0,0,0-.22.17.43.43,0,0,0-.1.23.17.17,0,0,0,.17.18h.45l-.12.26H52.8a1.57,1.57,0,0,0,.1-.26h.75a.4.4,0,0,0,.29-.17c.1-.12.14-.19.14-.27v-.06L54,42.05h-.84A4,4,0,0,1,54.1,40.53ZM44.79,39,43.73,39H41.8a5.74,5.74,0,0,0-1.23.11,1.92,1.92,0,0,0-1.45,1.36.23.23,0,0,0,0,.13.18.18,0,0,0,.35.08,1.7,1.7,0,0,1,.92-.62,6.56,6.56,0,0,1,1.34-.36,20.33,20.33,0,0,0-1.11,2.41h-.24a.58.58,0,0,0-.39.21.53.53,0,0,0-.23.37.18.18,0,0,0,.19.18h4c.1,0,.2-.08.32-.26a.7.7,0,0,0,.16-.35v-.07l-.08-.08h-2.4a14.57,14.57,0,0,1,1.21-2.3.37.37,0,0,1,.19-.16,1.71,1.71,0,0,1,.46,0,.85.85,0,0,1,.51.15.44.44,0,0,1,.19.37l-.08.63a.22.22,0,0,0,.24.22c.12,0,.23-.1.47-.63a2.58,2.58,0,0,0,.25-.95,1.51,1.51,0,0,0,0-.22C45.21,39,44.89,39,44.79,39ZM49.23,42a1.86,1.86,0,0,0-1.88.22,1.25,1.25,0,0,0-.38.64h.94a.36.36,0,0,1,.16-.31.58.58,0,0,1,.63-.08s0,.06,0,.11,0,.11-.16.18l-.16.11h1.12a1.12,1.12,0,0,0,0-.27A.64.64,0,0,0,49.23,42Z"/><path class="cls-5" d="M48.89,45.1A.85.85,0,0,0,48.68,44c-.22-.25-.62-.47-.72-.83a1.31,1.31,0,0,1,.28-1,.21.21,0,0,0-.23-.31,1,1,0,0,0-.69,1.17,1.17,1.17,0,0,0,.38.65c.43.38,1.42.53,1.17,1.36Z"/><path class="cls-5" d="M40.65,45.1c.5-1.48,1.17-2.91,1.78-4.34.16-.37-.34-.69-.56-.33a9.43,9.43,0,0,0-1.25,4.66s0,0,0,0Z"/><path class="cls-5" d="M43.31,45.68a1.31,1.31,0,0,0,1.11-.14,1.21,1.21,0,0,0,.57-.91.22.22,0,0,0-.4-.11,2.56,2.56,0,0,1-.39.68,1.56,1.56,0,0,1-.88.43,0,0,0,0,0,0,0Z"/><path class="cls-5" d="M47,45.88a.5.5,0,0,1,.11-.67c.25-.22-.11-.58-.36-.36a.62.62,0,0,0-.23.68A.67.67,0,0,0,47,46a0,0,0,0,0,.06-.07Z"/><path class="cls-5" d="M52,44.88c.29-1,.87-2,1.16-3a.27.27,0,0,0-.49-.21,5.25,5.25,0,0,0-.7,3.21Z"/><path class="cls-5" d="M54.31,45a3.41,3.41,0,0,1,2-2.41.22.22,0,1,0-.17-.4A3.12,3.12,0,0,0,54.24,45a0,0,0,0,0,.07,0Z"/><path class="cls-5" d="M56.75,44.08a2.87,2.87,0,0,0,1-1.38c0-.2-.25-.36-.35-.15a12.35,12.35,0,0,1-.65,1.5s0,0,0,0Z"/><path class="cls-5" d="M58.54,45.2a2.62,2.62,0,0,0,1.09-1.54c.07-.27-.36-.39-.42-.12a3.47,3.47,0,0,1-.71,1.6s0,.09,0,.06Z"/><path class="cls-1" d="M133.79,42.21h.69l1-1-.31.87c-1,2.82-1.65,4.49-1.85,5l-.08.19h1.5l0-.11a31.55,31.55,0,0,1,1-3.31c.57-1.7,1-3,1.39-3.83l.07-.19h-1.5Zm7.32-2.44a3,3,0,0,0-2,.73,2.59,2.59,0,0,0-.83,2,2.12,2.12,0,0,0,.62,1.57,2.17,2.17,0,0,0,1.6.61,2.85,2.85,0,0,0,1.43-.37,7.54,7.54,0,0,1-.63,1.3,2.78,2.78,0,0,1-1,1,1.32,1.32,0,0,1-.7.21.76.76,0,0,1-.53-.18.75.75,0,0,1-.19-.59,1.21,1.21,0,0,1,.17-.7l.08-.13-.13-.07a1,1,0,0,0-.43-.11.77.77,0,0,0-.64.34,1.17,1.17,0,0,0-.22.68c0,.62.3,1.35,1.7,1.35a3.54,3.54,0,0,0,2.92-1.46h0a6.27,6.27,0,0,0,.92-1.81,6.35,6.35,0,0,0,.36-2C143.55,40.56,142.73,39.77,141.11,39.77Zm1,3.24a1.48,1.48,0,0,1-.48.72,1.32,1.32,0,0,1-.89.28,1,1,0,0,1-.88-.44,2,2,0,0,1-.35-1.19A2.23,2.23,0,0,1,140,41a1.31,1.31,0,0,1,1-.62h0a1,1,0,0,1,.9.42,1.78,1.78,0,0,1,.31,1.07A3.57,3.57,0,0,1,142.13,43ZM150,40.14a2.33,2.33,0,0,0-1.47-.43,2.9,2.9,0,0,0-1.93.61,2,2,0,0,0-.72,1.56,1.53,1.53,0,0,0,.57,1.2,3.72,3.72,0,0,0-1.37.92,2.2,2.2,0,0,0-.62,1.5,1.67,1.67,0,0,0,.66,1.36,2.5,2.5,0,0,0,1.62.52A3.51,3.51,0,0,0,149,46.6a2.36,2.36,0,0,0,1-1.87,1.84,1.84,0,0,0-.82-1.56,2,2,0,0,0,1.42-1.87A1.39,1.39,0,0,0,150,40.14Zm-1.75,6.08a2,2,0,0,1-1.22.42,1.46,1.46,0,0,1-1-.3,1,1,0,0,1-.34-.75c0-.73.55-1.32,1.64-1.78a4.12,4.12,0,0,1,1,.4.92.92,0,0,1,.45.82A1.39,1.39,0,0,1,148.26,46.22Zm.07-3.55a2.17,2.17,0,0,1-.92-.52,1.1,1.1,0,0,1-.4-.77.87.87,0,0,1,.43-.7,1.55,1.55,0,0,1,.95-.33,1.32,1.32,0,0,1,.88.3.88.88,0,0,1,.36.69C149.61,41.88,149.17,42.33,148.33,42.67Zm8.33-2.55a2.15,2.15,0,0,0-1.26-.34,2.87,2.87,0,0,0-1.56.52,4.64,4.64,0,0,0-1.29,1.32,7.12,7.12,0,0,0-.8,1.72,6.2,6.2,0,0,0-.3,1.88,2.35,2.35,0,0,0,.47,1.53,2.15,2.15,0,0,0,1.72.58,3.23,3.23,0,0,0,2.15-.79,2.78,2.78,0,0,0,1-2.24,1.9,1.9,0,0,0-.52-1.39,1.94,1.94,0,0,0-1.43-.53,3,3,0,0,0-1.6.42,5.18,5.18,0,0,1,1-1.6,1.86,1.86,0,0,1,1.36-.75.79.79,0,0,1,.49.14.51.51,0,0,1,.16.42.44.44,0,0,1-.19.41l-.09.07,0,.1a.58.58,0,0,0,.55.42.77.77,0,0,0,.43-.16.73.73,0,0,0,.27-.67A1.2,1.2,0,0,0,156.66,40.12Zm-2.35,3a1,1,0,0,1,.83.38,1.63,1.63,0,0,1,.3,1,2.54,2.54,0,0,1-.51,1.54,1.5,1.5,0,0,1-1.25.69.79.79,0,0,1-.71-.36,1.71,1.71,0,0,1-.26-1,3,3,0,0,1,.41-1.6A1.42,1.42,0,0,1,154.31,43.09Z"/><path class="cls-1" d="M156.66,40.12a2.15,2.15,0,0,0-1.26-.34,2.87,2.87,0,0,0-1.56.52,4.64,4.64,0,0,0-1.29,1.32,7.12,7.12,0,0,0-.8,1.72c0,.13-.08.25-.11.38h1.51a1.4,1.4,0,0,1,1.16-.63,1,1,0,0,1,.83.38,1,1,0,0,1,.14.25h1.4a1.81,1.81,0,0,0-.45-.81,1.94,1.94,0,0,0-1.43-.53,3,3,0,0,0-1.6.42,5.18,5.18,0,0,1,1-1.6,1.86,1.86,0,0,1,1.36-.75.79.79,0,0,1,.49.14.51.51,0,0,1,.16.42.44.44,0,0,1-.19.41l-.09.07,0,.1a.58.58,0,0,0,.55.42.77.77,0,0,0,.43-.16.73.73,0,0,0,.27-.67A1.2,1.2,0,0,0,156.66,40.12Zm-6.65,0a2.33,2.33,0,0,0-1.47-.43,2.9,2.9,0,0,0-1.93.61,2,2,0,0,0-.72,1.56,1.53,1.53,0,0,0,.57,1.2,3.9,3.9,0,0,0-1.07.64h4.3a2.29,2.29,0,0,0-.53-.55,2,2,0,0,0,1.42-1.87A1.39,1.39,0,0,0,150,40.14Zm-1.68,2.53a2.17,2.17,0,0,1-.92-.52,1.1,1.1,0,0,1-.4-.77.87.87,0,0,1,.43-.7,1.55,1.55,0,0,1,.95-.33,1.32,1.32,0,0,1,.88.3.88.88,0,0,1,.36.69C149.61,41.88,149.17,42.33,148.33,42.67Zm-14.54-.46h.69l1-1-.31.87c-.21.58-.41,1.12-.58,1.61h1.21c.55-1.64,1-2.88,1.35-3.7l.07-.19h-1.5Zm7.32-2.44a3,3,0,0,0-2,.73,2.59,2.59,0,0,0-.83,2,2.32,2.32,0,0,0,.31,1.19H140l-.14-.15a2,2,0,0,1-.35-1.19A2.23,2.23,0,0,1,140,41a1.31,1.31,0,0,1,1-.62h0a1,1,0,0,1,.9.42,1.78,1.78,0,0,1,.31,1.07,3.57,3.57,0,0,1-.14,1.11,1.46,1.46,0,0,1-.46.71h1.65a6.39,6.39,0,0,0,.23-1.62C143.55,40.56,142.73,39.77,141.11,39.77Z"/><path class="cls-1" d="M133.9,45.85A33.46,33.46,0,0,0,136,40.94c.11-.33-.42-.48-.52-.15-.52,1.69-1.1,3.37-1.66,5,0,0,0,0,0,0Z"/><path class="cls-1" d="M141.14,44a2.07,2.07,0,0,1-1.91-1.94.39.39,0,0,0-.77,0,2,2,0,0,0,2.68,2s0,0,0,0Z"/><path class="cls-1" d="M139.1,46.83a.78.78,0,0,1,0-1.23.26.26,0,0,0-.26-.45.93.93,0,0,0,.26,1.76s.07-.06,0-.08Z"/><path class="cls-1" d="M145.65,45.36c-.11.6-.24,1.15.31,1.59a1.44,1.44,0,0,0,1.86-.11.08.08,0,0,0,0-.14,5.76,5.76,0,0,1-1.38-.09,1.15,1.15,0,0,1-.72-1.25,0,0,0,1,0,0,0Z"/><path class="cls-1" d="M154.67,46.24a1.21,1.21,0,0,1-1.1.32c-.26-.05-.43-.22-.7-.18a.15.15,0,0,0-.1.17c.12.39.62.41,1,.36a1.47,1.47,0,0,0,1-.64s0-.05,0,0Z"/><path class="cls-1" d="M152.68,46.22h0a.21.21,0,0,0,.16-.2.27.27,0,0,0-.29-.27.24.24,0,0,0-.22.33.24.24,0,0,0,.4.08h0l-.1.06h-.08l-.09-.06a.2.2,0,0,0,.2.08Z"/><path class="cls-1" d="M152.66,45.38a.15.15,0,0,0-.26-.12.17.17,0,1,0,.24,0l0,0,0,.11v0l-.07.11h0a.08.08,0,0,0,.11-.06Z"/><path class="cls-2" d="M133.38,41.3h.69l1-1-.31.87c-1,2.82-1.65,4.49-1.85,5l-.08.19h1.5l0-.11a31.55,31.55,0,0,1,1-3.31c.57-1.7,1-3,1.38-3.83l.08-.19h-1.5Zm7.32-2.44a3,3,0,0,0-2,.73,2.57,2.57,0,0,0-.83,2,2.14,2.14,0,0,0,.62,1.57,2.21,2.21,0,0,0,1.6.61,3,3,0,0,0,1.43-.37,7.4,7.4,0,0,1-.63,1.29,2.8,2.8,0,0,1-1,1,1.31,1.31,0,0,1-.7.2.64.64,0,0,1-.72-.76,1.21,1.21,0,0,1,.17-.7l.08-.13-.13-.07a1,1,0,0,0-.43-.11.76.76,0,0,0-.64.33,1.23,1.23,0,0,0-.22.69c0,.62.3,1.35,1.7,1.35A3.54,3.54,0,0,0,141.86,45h0a7,7,0,0,0,1.28-3.84C143.14,39.64,142.32,38.86,140.7,38.86Zm1,3.24a1.53,1.53,0,0,1-.48.72,1.32,1.32,0,0,1-.89.28,1.06,1.06,0,0,1-.88-.45,1.9,1.9,0,0,1-.35-1.18,2.23,2.23,0,0,1,.46-1.35,1.29,1.29,0,0,1,1-.62h0a1,1,0,0,1,.9.42,1.78,1.78,0,0,1,.31,1.07A3.57,3.57,0,0,1,141.72,42.1Zm7.88-2.87a2.33,2.33,0,0,0-1.47-.43,2.85,2.85,0,0,0-1.93.61,2,2,0,0,0-.72,1.56,1.53,1.53,0,0,0,.57,1.2,3.72,3.72,0,0,0-1.37.92,2.2,2.2,0,0,0-.62,1.5,1.67,1.67,0,0,0,.66,1.36,2.5,2.5,0,0,0,1.62.52,3.51,3.51,0,0,0,2.24-.78,2.36,2.36,0,0,0,1-1.87,1.87,1.87,0,0,0-.82-1.56,2,2,0,0,0,1.42-1.87A1.42,1.42,0,0,0,149.6,39.23Zm-1.75,6.07a2,2,0,0,1-1.22.43,1.46,1.46,0,0,1-1-.3,1,1,0,0,1-.34-.76c0-.72.55-1.32,1.64-1.77a3.75,3.75,0,0,1,1,.4.91.91,0,0,1,.45.82A1.36,1.36,0,0,1,147.85,45.3Zm.07-3.54a2.17,2.17,0,0,1-.92-.52,1.1,1.1,0,0,1-.4-.78.88.88,0,0,1,.42-.7,1.65,1.65,0,0,1,1-.32,1.32,1.32,0,0,1,.88.3.87.87,0,0,1,.36.69C149.2,41,148.76,41.42,147.92,41.76Zm8.33-2.55a2.15,2.15,0,0,0-1.26-.34,2.87,2.87,0,0,0-1.56.52,4.64,4.64,0,0,0-1.29,1.32,7.12,7.12,0,0,0-.8,1.72,6.11,6.11,0,0,0-.3,1.88,2.35,2.35,0,0,0,.47,1.53,2.13,2.13,0,0,0,1.71.58,3.25,3.25,0,0,0,2.16-.8,2.74,2.74,0,0,0,1-2.23,1.81,1.81,0,0,0-2-1.92,3.07,3.07,0,0,0-1.6.41,5.24,5.24,0,0,1,1-1.59,1.86,1.86,0,0,1,1.36-.75.79.79,0,0,1,.49.14.5.5,0,0,1,.16.42.45.45,0,0,1-.19.41l-.09.06,0,.11a.59.59,0,0,0,.55.42.77.77,0,0,0,.43-.16.73.73,0,0,0,.27-.67A1.2,1.2,0,0,0,156.25,39.21Zm-2.35,3a1,1,0,0,1,.83.38,1.63,1.63,0,0,1,.3,1,2.56,2.56,0,0,1-.51,1.54,1.49,1.49,0,0,1-1.25.68.77.77,0,0,1-.71-.36,1.68,1.68,0,0,1-.26-1,3,3,0,0,1,.41-1.6A1.39,1.39,0,0,1,153.9,42.18Z"/><path class="cls-5" d="M156.25,39.21a2.15,2.15,0,0,0-1.26-.34,2.87,2.87,0,0,0-1.56.52,4.64,4.64,0,0,0-1.29,1.32,7.12,7.12,0,0,0-.8,1.72c0,.13-.08.25-.11.37h1.51a1.39,1.39,0,0,1,1.16-.62,1,1,0,0,1,.83.38,1.16,1.16,0,0,1,.14.24h1.4a1.72,1.72,0,0,0-.45-.8,1.94,1.94,0,0,0-1.43-.53,3.07,3.07,0,0,0-1.6.41,5.24,5.24,0,0,1,1-1.59,1.86,1.86,0,0,1,1.36-.75.79.79,0,0,1,.49.14.5.5,0,0,1,.16.42.45.45,0,0,1-.19.41l-.09.06,0,.11a.59.59,0,0,0,.55.42.77.77,0,0,0,.43-.16.73.73,0,0,0,.27-.67A1.2,1.2,0,0,0,156.25,39.21Zm-6.65,0a2.33,2.33,0,0,0-1.47-.43,2.85,2.85,0,0,0-1.93.61,2,2,0,0,0-.72,1.56,1.53,1.53,0,0,0,.57,1.2,3.88,3.88,0,0,0-1.07.63h4.3a2.26,2.26,0,0,0-.53-.54,2,2,0,0,0,1.42-1.87A1.42,1.42,0,0,0,149.6,39.23Zm-1.68,2.53a2.17,2.17,0,0,1-.92-.52,1.1,1.1,0,0,1-.4-.78.88.88,0,0,1,.42-.7,1.65,1.65,0,0,1,1-.32,1.32,1.32,0,0,1,.88.3.87.87,0,0,1,.36.69C149.2,41,148.76,41.42,147.92,41.76Zm-14.54-.46h.69l1-1-.31.87c-.21.58-.41,1.12-.58,1.6h1.21c.55-1.63,1-2.88,1.34-3.69l.08-.19h-1.5Zm7.32-2.44a3,3,0,0,0-2,.73,2.57,2.57,0,0,0-.83,2,2.25,2.25,0,0,0,.31,1.18h1.47a1,1,0,0,1-.14-.15,1.9,1.9,0,0,1-.35-1.18,2.23,2.23,0,0,1,.46-1.35,1.29,1.29,0,0,1,1-.62h0a1,1,0,0,1,.9.42,1.78,1.78,0,0,1,.31,1.07,3.57,3.57,0,0,1-.14,1.11,1.44,1.44,0,0,1-.46.7h1.64a5.88,5.88,0,0,0,.24-1.61C143.14,39.64,142.32,38.86,140.7,38.86Z"/><path class="cls-5" d="M133.49,44.94A34.41,34.41,0,0,0,135.63,40c.11-.33-.42-.48-.52-.15-.52,1.69-1.1,3.36-1.67,5,0,0,0,0,.05,0Z"/><path class="cls-5" d="M140.73,43.12a2.07,2.07,0,0,1-1.92-1.93.38.38,0,0,0-.76,0,2,2,0,0,0,2.68,2s0,0,0,0Z"/><path class="cls-5" d="M138.69,45.91a.78.78,0,0,1,0-1.23.26.26,0,0,0-.26-.44.93.93,0,0,0,.26,1.76.06.06,0,0,0,0-.09Z"/><path class="cls-5" d="M145.24,44.44c-.11.61-.24,1.16.31,1.6a1.44,1.44,0,0,0,1.86-.11.08.08,0,0,0,0-.15A5.76,5.76,0,0,1,146,45.7a1.14,1.14,0,0,1-.72-1.25s0,0,0,0Z"/><path class="cls-5" d="M154.26,45.33a1.25,1.25,0,0,1-1.1.32c-.26-.06-.43-.22-.7-.18a.15.15,0,0,0-.1.17c.12.39.62.41,1,.35a1.44,1.44,0,0,0,1-.63s0,0,0,0Z"/><path class="cls-5" d="M152.27,45.3h0a.21.21,0,0,0,.16-.2.29.29,0,0,0-.29-.28.25.25,0,1,0,.18.42v0l-.1.07h-.08l-.1-.06a.21.21,0,0,0,.21.07Z"/><path class="cls-5" d="M152.25,44.47a.14.14,0,0,0-.26-.12.17.17,0,0,0,.12.28c.14,0,.23-.19.12-.28l0,0,0,.11v0l-.07.11,0,0-.08,0h0a.09.09,0,0,0,.11-.06Z"/></g></svg>