<svg id="Icon" xmlns="http://www.w3.org/2000/svg" viewBox="0 0 511.21 511.48"><defs><style>.cls-1{fill:#231f20;}</style></defs><path class="cls-1" d="M446.84,301.12c1.54-4,.72-9.45.8-13.68.07-3.88.07-7.75.09-11.63,0-3.4-5.27-3.41-5.29,0,0,3.88,0,7.75,0,11.63.05,4.23-.8,9.64.71,13.68a1.93,1.93,0,0,0,3.68,0Z" transform="translate(-244 -244.37)"/><path class="cls-1" d="M446.16,299.85a143.78,143.78,0,0,0-15-10.34c-2.88-1.82-5.53,2.75-2.67,4.56,5,3.14,10.2,6.57,15.28,8.93,1.9.88,4.32-1.58,2.43-3.15Z" transform="translate(-244 -244.37)"/><path class="cls-1" d="M446.5,302.86c5.3-2.91,10.53-5.94,15.78-8.93,3-1.7.27-6.38-2.69-4.62-5.2,3.09-10.42,6.14-15.56,9.31a2.45,2.45,0,0,0,2.47,4.24Z" transform="translate(-244 -244.37)"/><path class="cls-1" d="M661.84,439.12c1.54-4,.72-9.45.8-13.68.07-3.88.07-7.75.09-11.63,0-3.4-5.27-3.41-5.29,0,0,3.88,0,7.75,0,11.63,0,4.23-.8,9.64.71,13.68a1.93,1.93,0,0,0,3.68,0Z" transform="translate(-244 -244.37)"/><path class="cls-1" d="M677.16,446.85a143.78,143.78,0,0,0-15-10.34c-2.88-1.82-5.53,2.75-2.67,4.56,5,3.14,10.2,6.57,15.28,8.93,1.9.88,4.32-1.58,2.43-3.15Z" transform="translate(-244 -244.37)"/><path class="cls-1" d="M661.5,440.86c5.3-2.91,10.53-5.94,15.78-8.93,3-1.7.27-6.38-2.69-4.62-5.2,3.09-10.42,6.14-15.56,9.31a2.45,2.45,0,0,0,2.47,4.24Z" transform="translate(-244 -244.37)"/><path class="cls-1" d="M746.68,391.38l7.24-4.19c3-1.73.28-6.36-2.7-4.62L744,386.79c-3,1.73-.28,6.31,2.68,4.59Z" transform="translate(-244 -244.37)"/><path class="cls-1" d="M726.78,402.69l8-4.43c3-1.63.32-6.2-2.66-4.56l-8,4.43c-3,1.64-.32,6.2,2.66,4.56Z" transform="translate(-244 -244.37)"/><path class="cls-1" d="M706.19,415.06q3.69-2.19,7.36-4.41c2.9-1.76.25-6.33-2.67-4.56q-3.68,2.22-7.33,4.46c-2.85,1.76-.26,6.23,2.64,4.51Z" transform="translate(-244 -244.37)"/><path class="cls-1" d="M687.15,425.6l6.67-3.85c2.83-1.63.27-6-2.55-4.37l-6.65,3.9c-2.77,1.63-.27,5.93,2.53,4.32Z" transform="translate(-244 -244.37)"/><path class="cls-1" d="M746.68,584.38l7.24-4.19c3-1.73.28-6.36-2.7-4.62L744,579.79c-3,1.73-.28,6.31,2.68,4.59Z" transform="translate(-244 -244.37)"/><path class="cls-1" d="M726.78,595.69l8-4.43c3-1.63.32-6.2-2.66-4.56l-8,4.43c-3,1.64-.32,6.2,2.66,4.56Z" transform="translate(-244 -244.37)"/><path class="cls-1" d="M706.19,608.06q3.69-2.19,7.36-4.41c2.9-1.76.25-6.33-2.67-4.56q-3.68,2.22-7.33,4.46c-2.85,1.76-.26,6.23,2.64,4.51Z" transform="translate(-244 -244.37)"/><path class="cls-1" d="M687.15,618.6l6.67-3.85c2.83-1.63.27-6-2.55-4.37l-6.65,3.9c-2.77,1.63-.27,5.93,2.53,4.32Z" transform="translate(-244 -244.37)"/><path class="cls-1" d="M744,682.53l7.22,4.22c3,1.73,5.67-2.89,2.7-4.62l-7.24-4.19c-3-1.72-5.63,2.86-2.68,4.59Z" transform="translate(-244 -244.37)"/><path class="cls-1" d="M724.12,671.19l8,4.42c3,1.64,5.64-2.91,2.66-4.56l-8-4.42c-3-1.64-5.65,2.92-2.66,4.56Z" transform="translate(-244 -244.37)"/><path class="cls-1" d="M703.55,658.76q3.66,2.25,7.33,4.47c2.92,1.76,5.58-2.8,2.67-4.56q-3.67-2.22-7.36-4.41c-2.9-1.72-5.5,2.75-2.64,4.5Z" transform="translate(-244 -244.37)"/><path class="cls-1" d="M684.62,648l6.65,3.9c2.81,1.66,5.38-2.74,2.55-4.37l-6.67-3.85c-2.79-1.61-5.3,2.69-2.53,4.32Z" transform="translate(-244 -244.37)"/><path class="cls-1" d="M744,489.53l7.22,4.22c3,1.73,5.67-2.89,2.7-4.62l-7.24-4.19c-3-1.72-5.63,2.86-2.68,4.59Z" transform="translate(-244 -244.37)"/><path class="cls-1" d="M724.12,478.19l8,4.42c3,1.64,5.64-2.91,2.66-4.56l-8-4.42c-3-1.64-5.65,2.92-2.66,4.56Z" transform="translate(-244 -244.37)"/><path class="cls-1" d="M703.55,465.76q3.66,2.25,7.33,4.47c2.92,1.76,5.58-2.8,2.67-4.56q-3.67-2.22-7.36-4.41c-2.9-1.72-5.5,2.75-2.64,4.5Z" transform="translate(-244 -244.37)"/><path class="cls-1" d="M684.62,455l6.65,3.9c2.81,1.66,5.38-2.74,2.55-4.37l-6.67-3.85c-2.79-1.61-5.3,2.69-2.53,4.32Z" transform="translate(-244 -244.37)"/><path class="cls-1" d="M408,283.53l7.22,4.22c3,1.73,5.67-2.89,2.7-4.62l-7.24-4.19c-3-1.72-5.63,2.86-2.68,4.59Z" transform="translate(-244 -244.37)"/><path class="cls-1" d="M388.12,272.19l8,4.42c3,1.64,5.64-2.91,2.66-4.56l-8-4.42c-3-1.64-5.65,2.92-2.66,4.56Z" transform="translate(-244 -244.37)"/><path class="cls-1" d="M367.55,259.76q3.66,2.25,7.33,4.47c2.92,1.76,5.58-2.8,2.67-4.56q-3.68-2.22-7.36-4.41c-2.9-1.72-5.5,2.75-2.64,4.5Z" transform="translate(-244 -244.37)"/><path class="cls-1" d="M348.62,249l6.65,3.9c2.81,1.66,5.38-2.74,2.55-4.37l-6.67-3.85c-2.79-1.61-5.3,2.69-2.53,4.32Z" transform="translate(-244 -244.37)"/><path class="cls-1" d="M480.77,278.94l-7.23,4.19c-3,1.73-.28,6.36,2.69,4.62l7.22-4.22c2.95-1.73.29-6.31-2.68-4.59Z" transform="translate(-244 -244.37)"/><path class="cls-1" d="M500.67,267.63l-8,4.42c-3,1.64-.32,6.21,2.67,4.56l8-4.42c3-1.64.32-6.2-2.67-4.56Z" transform="translate(-244 -244.37)"/><path class="cls-1" d="M521.27,255.26q-3.69,2.19-7.36,4.41c-2.91,1.76-.26,6.32,2.66,4.56,2.45-1.48,4.9-3,7.33-4.47,2.86-1.75.27-6.22-2.63-4.5Z" transform="translate(-244 -244.37)"/><path class="cls-1" d="M540.31,244.72l-6.68,3.85c-2.82,1.63-.26,6,2.56,4.37l6.64-3.9c2.77-1.63.27-5.93-2.52-4.32Z" transform="translate(-244 -244.37)"/><path class="cls-1" d="M661.84,631.12c1.54-4,.72-9.45.8-13.68.07-3.88.07-7.75.09-11.63,0-3.4-5.27-3.41-5.29,0,0,3.88,0,7.75,0,11.63,0,4.23-.8,9.64.71,13.68a1.93,1.93,0,0,0,3.68,0Z" transform="translate(-244 -244.37)"/><path class="cls-1" d="M677.16,638.85a143.78,143.78,0,0,0-15-10.34c-2.88-1.82-5.53,2.75-2.67,4.56,5,3.14,10.2,6.57,15.28,8.93,1.9.88,4.32-1.58,2.43-3.15Z" transform="translate(-244 -244.37)"/><path class="cls-1" d="M661.5,632.86c5.3-2.91,10.53-5.94,15.78-8.93,3-1.7.27-6.38-2.69-4.62-5.2,3.09-10.42,6.14-15.56,9.31a2.45,2.45,0,0,0,2.47,4.24Z" transform="translate(-244 -244.37)"/><path class="cls-1" d="M639.77,444.78c-.9,41.72-.86,83.44-1,125.17,0,17,.23,34.11-.23,51.14-.2,7.67-3.8,12.21-9.71,17.27-1,.84.9-.66,0,0l-1.17.84c-1.11.77-2.22,1.54-3.34,2.29-7.63,5.11-15.44,10-23.23,14.82-41.32,25.8-83.09,50.91-124.85,76-6.13,3.68-12.15,7.29-18.91,9.8-9.56,3.54-17.42,4.34-27.16.64-6.51-2.47-12-6.31-17.8-10-13.73-8.84-28-16.94-42-25.4L302,665.88l-26.52-16.06c-3.69-2.22-7.73-4.23-11.21-6.77-6.24-4.57-9.3-9.78-9.42-17.49-.09-6.79-10.66-6.81-10.56,0,.18,12.08,6.1,21.43,16.42,27.67l18.14,11,67.52,40.87,56,33.9c7.52,4.55,14.58,9.68,22.77,13,9.62,4,19.13,5.11,29.16,2.17a92.23,92.23,0,0,0,22.15-9.81c37.62-23,75.52-45.64,113-68.87,10.07-6.23,20.13-12.49,30.1-18.88,5.51-3.53,11.28-6.93,16.34-11.09,6.11-5,11.48-11.69,12.38-19.76a77.1,77.1,0,0,0,.33-8.46c.06-8.28.06-16.56.07-24.84.07-48.14.33-96.3-.7-144.43,0-1.09,0-2.18-.07-3.28-.11-5.26-8.07-5.27-8.18,0Z" transform="translate(-244 -244.37)"/><path class="cls-1" d="M457.08,581.48c-.18,24.79-.38,49.58-.39,74.37,0,11.55-.23,23.1-.26,34.65,0,5.24-.34,11,2.64,15.56a14.11,14.11,0,0,0,11.77,6.28c6.88.22,6.88-10.5,0-10.68-5-.14-3.83-7.82-3.83-11.16,0-5,.1-10,.17-15,.14-10.21.07-20.43.08-30.64,0-21.13-.22-42.27-.36-63.4,0-6.32-9.77-6.33-9.82,0Z" transform="translate(-244 -244.37)"/><path class="cls-1" d="M600.31,477.71c-35.24,20.76-70.18,42-105.24,63.08-7.67,4.6-15.56,9-23,14-5.33,3.57-11.37,7.88-13.92,14-1.82,4.37-1.36,9.78-1.37,14.43s.2,9.5.05,14.24c-.2,6.64,10.13,6.64,10.32,0,.12-4.36-.08-8.74-.09-13.1,0-3.84-.76-9.35.92-12.43,3-5.44,10-8.95,15.11-12q11.87-7.2,23.75-14.34c32.79-19.8,65.71-39.4,98.33-59.48,5.26-3.24.5-11.46-4.86-8.31Z" transform="translate(-244 -244.37)"/><path class="cls-1" d="M648.12,450.23c.07-5.88-.46-11.94-4-16.86-2.09-2.93-5-5.23-7.75-7.47-3.3-2.66-6.89-5-10.41-7.31-13.47-8.92-27.27-17.36-41-25.84q-47.64-29.38-95.61-58.21c-8.42-5.08-17-11.23-26-15.14-16-6.95-31.92-5.74-47.08,2.66-4.56,2.53-8.68,5.72-13.15,8.41q-41.22,24.86-82.39,49.83l-44.93,27.19c-7.67,4.64-16.69,8.73-22.86,15.4-4.83,5.21-8.28,11.3-8.51,18.52-.21,6.8,10.35,6.8,10.57,0,.36-11.34,12.7-16.67,21-21.68L316,395.48q43.19-26.14,86.38-52.3c11.94-7.26,24-17.84,38.41-18.27,14.21-.42,25.66,7.85,37.27,14.8Q521.62,365.8,565,392.15c15.08,9.19,30.14,18.41,45.1,27.8,5,3.13,10,6.21,14.91,9.43,1.52,1,3,2,4.51,3,.82.56,1.22.91.55.38,1.41,1.12,2.81,2.27,4.18,3.44,4.47,3.81,5.39,8.17,5.64,14,.22,5.28,8.18,5.33,8.25,0Z" transform="translate(-244 -244.37)"/><path class="cls-1" d="M599,435.47c1.45,2,3.25,4.68,2.81,7.36-.28,1.69-1.62,2.77-2.68,3.95-2.91,3.25-.75.7-.8.73-.84.6-1.72,1.13-2.6,1.67-3.48,2.15-7,4.2-10.52,6.34q-17.83,11-35.73,21.87Q510.78,501.08,472,524.53c-5.78,3.51-11.66,7.82-17.81,10.68-9.4,4.38-16.49.62-24.46-4.56-2.24-1.46-4.58-2.78-6.86-4.17Q386.93,504.68,351,483l-41.58-25.15-12.61-7.62c-3-1.8-6.74-3.61-7-7.67-.46-6.75-11-6.8-10.57,0,.76,11.26,10.42,15.68,18.77,20.73l35.63,21.55q40.14,24.29,80.31,48.51c7.85,4.73,17,12,25.8,13.81,12.31,2.54,22.25-4.52,32.13-10.55q39.45-24.08,78.78-48.3c12.79-7.89,25.55-15.8,38.18-23.93,7.25-4.66,19.68-10.93,20.88-20.44.69-5.54-3.06-9-7.5-11.68-1.94-1.15-4.68,1.25-3.25,3.25Z" transform="translate(-244 -244.37)"/><path class="cls-1" d="M420.92,350Q360,385.67,299.18,421.5c-8.72,5.12-19.17,9.52-20,21.25-.45,6.79,10.11,6.76,10.57,0,.39-5.88,10.55-9.68,14.72-12.13L336,412.13q36.6-21.51,73.18-43L426.19,359c5.78-3.41.55-12.42-5.27-9Z" transform="translate(-244 -244.37)"/><path class="cls-1" d="M601.15,453.05c3.32-1.81,6.65-4,7.45-7.91s-1.16-7.42-3.6-10.26a34.52,34.52,0,0,0-6.66-5.7c-7.68-5.42-15.7-10.35-23.66-15.35-24.34-15.27-49-30-73.6-44.88q-14.81-9-29.61-18c-5.67-3.47-10.88,5.47-5.2,8.9q60,36.27,120.06,72.39c2.95,1.78,6,3.45,8.9,5.27.7.44,1.41.87,2.08,1.35-1.95-1.38.87.77,1.32,1.23,1,1,2,2,2,3.45.15,2.16-1.67,4.61-2.78,6.24-1.4,2.06,1.28,4.32,3.25,3.25Z" transform="translate(-244 -244.37)"/><path class="cls-1" d="M253.81,624.62q.33-31.08.67-62.17c.36-33.05.42-66.11.67-99.16q.09-11.44.18-22.87c0-6.88-10.65-6.88-10.69,0-.12,20.72-.18,41.45-.3,62.17q-.3,49.59-.32,99.17,0,11.43,0,22.86c0,6.32,9.74,6.32,9.81,0Z" transform="translate(-244 -244.37)"/><path class="cls-1" d="M602,488.1c2.9-1.69,5.79-3.41,8.75-5a8.79,8.79,0,0,1,2.13-1.1c1.17-.17.07,0-.36,1.22s0,3.56-.06,4.7c-.09,9.27-.11,18.53-.13,27.8-.06,19.34-.19,38.68-.14,58,0,9.43.12,18.86,0,28.29-.06,3.75.49,8.35-.49,12-.79,3-3.1,5.22-5.28,7.3-.17.16-2,1.75-1.07,1s0,0-.23.15c-.71.52-1.44,1-2.18,1.51-2,1.34-4,2.63-6,3.92-30.35,19.29-61.44,37.46-92.35,55.82-10.21,6.07-20.59,13.67-31.86,17.61-6.37,2.23-3.63,12.44,2.81,10.19,11.28-3.94,21.35-11,31.56-17.1q26.12-15.6,52.15-31.33c15.22-9.21,30.51-18.35,45.43-28,5.48-3.55,10.75-7.18,14.37-12.81,4.19-6.49,3.26-14.75,3.33-22.14.09-10.41-.06-20.81-.09-31.22q-.06-34.85,0-69.71c0-5.61.28-11.27.11-16.87-.12-3.85-1.09-7.78-4.9-9.58-6.62-3.13-15,3.85-20.33,7.09s-.5,11.46,4.86,8.31Z" transform="translate(-244 -244.37)"/><path class="cls-1" d="M370.37,550q-30.42,19.21-60.92,38.3c-10.59,6.63-21.31,15.07-33.19,19.22-6.38,2.23-3.64,12.44,2.8,10.19,12.51-4.37,23.43-12.64,34.58-19.66q31-19.53,61.93-39.15c5.59-3.55.43-12.46-5.2-8.9Z" transform="translate(-244 -244.37)"/><path class="cls-1" d="M413.59,365.13c2.9-1.7,5.79-3.43,8.75-5,.46-.25,2.5-1.56,2.85-1.41-1.62-.67-1.11,3.92-1.11,4.36-.1,8.91-.12,17.81-.15,26.72q-.07,26.58-.15,53.17c0,23,.27,46-.16,69-.12,6.55,10.08,6.56,10.19,0,.45-27.92,0-55.85,0-83.77,0-20.14-.07-40.29.07-60.44,0-6.57,1.73-17.48-7.34-18.73-6.05-.83-13,4.86-17.82,7.8-5.29,3.2-.5,11.45,4.86,8.31Z" transform="translate(-244 -244.37)"/><path class="cls-1" d="M426,581.48c-.14,21.13-.37,42.27-.36,63.4,0,9.92-.07,19.84.06,29.75.06,5,.18,10,.18,15,0,3.43,1.36,11.92-3.83,12.06-6.87.18-6.89,10.9,0,10.68a14.1,14.1,0,0,0,11.77-6.28c2.83-4.36,2.65-9.67,2.64-14.65,0-11.85-.25-23.71-.26-35.56,0-24.79-.21-49.58-.39-74.37-.05-6.32-9.77-6.33-9.81,0Z" transform="translate(-244 -244.37)"/><path class="cls-1" d="M287.71,486C320.33,506.1,353.24,525.7,386,545.5q11.88,7.17,23.75,14.34c5.07,3.08,12.15,6.62,15.11,12,1.68,3.08.94,8.61.93,12.43,0,4.37-.22,8.74-.09,13.1.19,6.62,10.52,6.65,10.31,0-.15-4.74.07-9.5,0-14.24s.45-10.06-1.37-14.43c-2.54-6.11-8.6-10.44-13.92-14-7.44-5-15.32-9.36-23-14-35.06-21-70-42.32-105.23-63.08-5.36-3.15-10.13,5.07-4.86,8.31Z" transform="translate(-244 -244.37)"/><path class="cls-1" d="M295.75,479.79c-4.86-2.94-11.76-8.62-17.82-7.79-9.36,1.29-7.37,12.95-7.33,19.66.13,20.82.06,41.64.07,62.46q0,15.18-.09,30.35c-.05,9.89-.77,20.26.5,30.09,1.06,8.16,7.57,14.05,14.08,18.42,30.87,20.75,63.49,39.17,95.4,58.26,11.86,7.09,23.75,15.67,36.86,20.26,6.43,2.24,9.2-8,2.81-10.19-9.61-3.36-18.36-9.6-27.08-14.77q-23.83-14.16-47.62-28.41c-15.2-9.14-30.41-18.27-45.44-27.69-4.11-2.57-8.2-5.15-12.19-7.91-1.54-1.07.84,1-.82-.69-2.2-2.17-4.83-4.35-5.77-7.39-1.07-3.47-.51-7.86-.57-11.45-.09-5.2-.1-10.4-.09-15.61q.06-31.89-.06-63.79c0-10.65,0-21.29-.13-31.94a62.54,62.54,0,0,0-.07-7.5c-.33-2.45-1.63-2.83.62-1.69,3.37,1.71,6.62,3.72,9.88,5.63,5.36,3.14,10.16-5.1,4.86-8.31Z" transform="translate(-244 -244.37)"/><path class="cls-1" d="M515,561q31.37,19.93,63,39.51c11.49,7.15,22.85,15.67,35.7,20.16,6.43,2.25,9.2-8,2.81-10.19-12.24-4.27-23.37-12.93-34.32-19.7q-31-19.21-61.93-38.69c-5.63-3.56-10.8,5.35-5.21,8.91Z" transform="translate(-244 -244.37)"/><path class="cls-1" d="M394.69,566.15c-32.82,20.79-65.9,41.15-98.82,61.76-5.75,3.6-.45,12.75,5.33,9.12,32.88-20.69,65.91-41.14,98.69-62,5.59-3.55.43-12.47-5.2-8.91Z" transform="translate(-244 -244.37)"/><path class="cls-1" d="M491,576.73c33,21,66.19,41.65,99.4,62.3,5.79,3.6,11.11-5.55,5.33-9.12-33.25-20.57-66.49-41.16-99.52-62.08-5.63-3.57-10.8,5.35-5.21,8.9Z" transform="translate(-244 -244.37)"/><path class="cls-1" d="M481,356.82c-4.1-2.49-8.53-5.86-13.18-7.33-5.55-1.75-10.85,1.13-11.85,7-1.21,7.15-.09,15.29-.08,22.54q0,12.28,0,24.58,0,37.65-.11,75.31c0,11.05-.1,22.12.22,33.17.19,6.54,10.39,6.57,10.19,0-.71-22.48-.22-45-.25-67.5q0-26.4-.15-52.8c0-8.94,0-17.88-.13-26.82,0-.82.64-6.76-1.13-6.23.35-.11,1.65.77,2.18,1.05,3.21,1.65,6.3,3.55,9.41,5.37,5.36,3.14,10.16-5.1,4.86-8.31Z" transform="translate(-244 -244.37)"/><path class="cls-1" d="M563.41,328c1.65,9.78,5.93,19.09,9.84,28.18,1.5,3.49,6.79,3.14,8.46.24,4.75-8.21,9.5-16.39,14.25-24.39h-8.91c4.93,8,9.85,16.51,14.87,24.82,1.9,3.16,7.46,3.66,9.2-.12,3.8-8.25,7.59-16.57,11.4-24.81,2.84-6.13-6.26-11.63-9.12-5.46-3.81,8.24-7.65,16.57-11.48,24.57h9.2c-5-8-10.07-16.52-15.16-24.8-2-3.23-7-3.52-8.91-.05-4.6,8.3-9.2,16.85-13.8,24.85h8.46c-4-9-8.05-17.89-14.07-25.6-1.73-2.22-4.59.4-4.23,2.57Z" transform="translate(-244 -244.37)"/><path class="cls-1" d="M602.28,717.59c-6.59-16.34-29.41-9.22-31.45,6.53-1,8,2.64,16,10.28,19.07,6.4,2.61,15.66,2.32,21.53-1.47,3.16-2.05,2.1-7.52-2-7.4-6.6.2-17.66,3.86-20.54-4.67a10,10,0,0,1,4.68-12c3.5-1.89,10.53-1.9,13.06,1.87,1.43,2.13,5.55.84,4.45-1.88Z" transform="translate(-244 -244.37)"/><path class="cls-1" d="M597.15,687.67c-2.35,7.9-2,16.67-2.12,24.83-.15,8.6-.06,17.25.21,25.85.23,7,10.88,7,10.88,0,0-8.6-.17-17.26-.58-25.85-.39-8.17-.24-17-2.85-24.83a2.9,2.9,0,0,0-5.54,0Z" transform="translate(-244 -244.37)"/><path class="cls-1" d="M668.3,507.45c-2.36,7.34-2,15.6-2.14,23.23-.15,8.07-.06,16.19.19,24.26.22,7,10.88,7,10.87,0,0-8.07-.16-16.2-.56-24.26-.37-7.63-.23-16-2.82-23.23a2.9,2.9,0,0,0-5.54,0Z" transform="translate(-244 -244.37)"/><path class="cls-1" d="M674.43,539.37c3.09-1.81,5.17-5.16,9.19-4.65,2.55.32,4,2,5.45,3.86,1,1.34.64.66.71,2.54.18,4.63.11,9.29.06,13.93-.08,6.76,10.37,6.76,10.5,0,.16-8.28,1.46-17.81-4.47-24.46-4.3-4.81-11.23-7-17.37-4.66-5,1.92-9.69,7.08-7.32,12.59a2.39,2.39,0,0,0,3.25.85Z" transform="translate(-244 -244.37)"/></svg>