<svg id="Layer_1" data-name="Layer 1" xmlns="http://www.w3.org/2000/svg" viewBox="0 0 1405.69 1058.99"><defs><style>.cls-1{fill:#0276db;}.cls-2{fill:#fccf04;}</style></defs><path class="cls-1" d="M1395,958.36l-80,6.7,1.24,14.48-22.08,164.25L1217,1314.22l17.25.18S1390,1092.94,1454.71,997.61l-36.89-33A34.41,34.41,0,0,0,1395,958.36Z" transform="translate(-526.18 -490.42)"/><path class="cls-1" d="M901.2,999.52h-.38a29.11,29.11,0,0,0-12.37,2.75c40.92,68.49,167.91,312.13,167.91,312.13h18.26L963.74,994.75Z" transform="translate(-526.18 -490.42)"/><path class="cls-1" d="M1931.87,826.64s-121-82-284-114.73c-92.45-18.54-178.53-17.22-235.75-12.6-3-.15-5.92-.2-8.85-.2v-.28l-303-7.6-22.06-1.31-44.74-68.5-.15-.23-2.42-3.72c-50.9-76.56-137.94-127-236.78-127a283.18,283.18,0,0,0-202,84.41l-58-2.31a7.64,7.64,0,0,0-1.82,15.12l45.59,18.51,25,212.05c0,.26.06.53.1.79l0,.34c2.36,16.63,12.19,29.08,29.94,29.08,18.13,0,38.43-13,42.93-30.16l48.72-134.84,113.76,225L831,915.82,704.53,1047.93l56.3,191.15H776l-23-164.71,124.26-89.08a1.45,1.45,0,0,1,.17.18,49.07,49.07,0,0,1,23-5.91l2.67-.21-.07.19,23.74-2L957,975.24l-.08-.22,356.36-29.91c0,.06,80.08-6.64,80.08-6.64A54.29,54.29,0,0,1,1430,948.83l.73.6,20,17.86L1466,980.9l.06-.08,38.17,33.75,100,82.34,164.55,213.59h15.68L1662.25,1057,1551.17,804.11c23.54,7.2,48.46,13.67,74.46,18.88C1788.61,855.68,1931.87,826.64,1931.87,826.64Z" transform="translate(-526.18 -490.42)"/><path class="cls-2" d="M873.46,1440.42v14c0,3-1,4.91-4.91,4.91H842.66V1542c0,3.89-1.86,4.91-4.91,4.91H821c-3,0-4.91-1-4.91-4.91v-82.59H790c-3.9,0-4.91-1.86-4.91-4.91v-14c0-3.05,1-4.91,4.91-4.91h78.52C872.44,1435.51,873.46,1437.37,873.46,1440.42Z" transform="translate(-526.18 -490.42)"/><path class="cls-2" d="M994.8,1511.16c0,26.74-25.38,38.24-45.52,38.24s-45.19-11.5-45.19-38.24v-39.94c0-26.74,25-38.25,45.19-38.25s45.52,11.51,45.52,38.25Zm-26.57-37.57c0-10.83-7.78-17.1-19-17.1-11,0-18.79,6.27-18.79,17.1v35.2c0,10.83,7.79,17.09,18.79,17.09,11.17,0,19-6.26,19-17.09Z" transform="translate(-526.18 -490.42)"/><path class="cls-2" d="M1120.88,1440.25,1086,1505.06V1542c0,3.89-1.86,4.91-4.91,4.91h-16.92c-3.22,0-4.91-1-4.91-4.91v-36.9l-36.22-64.81c-.84-1.86-.5-4.74,2.71-4.74h19.47c3.89,0,5.58.51,8,5.08L1073,1477l19.12-36.38c2.2-4.57,3.9-5.08,7.79-5.08h18.28C1121.39,1435.51,1121.73,1438.39,1120.88,1440.25Z" transform="translate(-526.18 -490.42)"/><path class="cls-1" d="M1235.12,1513.87c0,24-18.95,35.53-45,35.53-21.15,0-45.52-12.18-45.52-35.87,0-3.9,1-4.74,4.91-4.74h16.41c3.89,0,5.76.51,6.1,4.74a11.58,11.58,0,0,0,3.21,6.94c3.38,4.06,10.32,5.58,16.59,5.58,9.13,0,16.58-2,16.58-11.51s-15.06-9.64-29.45-14.21c-17.09-5.42-32.83-12.19-32.83-33.68,0-22,20-32.83,41.13-33.68,21.49,0,45,9.82,45,32.16,0,4.06-1,4.74-4.9,4.74h-16.59c-3.22,0-3.72-2.37-4.57-4.57a13.91,13.91,0,0,0-3.55-5.08c-3.22-3-9.31-4.57-14.39-4.57-5.58,0-14.89,2.2-14.89,9.81,0,10.33,24.88,14,31.65,16.76C1217.18,1485.94,1235.12,1490.85,1235.12,1513.87Z" transform="translate(-526.18 -490.42)"/><path class="cls-1" d="M1352.06,1440.42v14c0,3-1,4.91-4.91,4.91h-25.89V1542c0,3.89-1.86,4.91-4.91,4.91H1299.6c-3,0-4.91-1-4.91-4.91v-82.59h-26.06c-3.89,0-4.91-1.86-4.91-4.91v-14c0-3.05,1-4.91,4.91-4.91h78.52C1351.05,1435.51,1352.06,1437.37,1352.06,1440.42Z" transform="translate(-526.18 -490.42)"/><path class="cls-1" d="M1473.41,1511.16c0,26.74-25.39,38.24-45.53,38.24s-45.18-11.5-45.18-38.24v-39.94c0-26.74,25-38.25,45.18-38.25s45.53,11.51,45.53,38.25Zm-26.57-37.57c0-10.83-7.79-17.1-19-17.1-11,0-18.78,6.27-18.78,17.1v35.2c0,10.83,7.78,17.09,18.78,17.09,11.17,0,19-6.26,19-17.09Z" transform="translate(-526.18 -490.42)"/><path class="cls-1" d="M1600.67,1546.87h-20c-4.06,0-6.09-1.53-8.46-5.08L1554,1514.54c-1.52-2-1.86-3.89-1.86-8.63v-13.54c0-3,1-4.9,4.91-4.9h3.38c8.3,0,16.08-5.76,16.08-13.71,0-8.8-6.77-14.39-15.57-14.39h-22.5V1542c0,3.89-1.87,4.91-4.91,4.91h-16.76c-3,0-4.74-1-4.74-4.91V1440.59c0-3,.85-4.91,4.74-4.91h42.65c18.45,0,26.57,3.72,33.68,10.83,6.26,6.09,9.82,15.74,9.82,26.57,0,17.77-13,30.12-23.53,33.68l23.86,34.69C1604.74,1543.82,1603.89,1546.87,1600.67,1546.87Z" transform="translate(-526.18 -490.42)"/><path class="cls-1" d="M1727.26,1528.08V1542c0,3-1,4.91-4.9,4.91h-75.82c-3.9,0-4.91-1.86-4.91-4.91V1440.42c0-3.05,1-4.91,4.91-4.91h72.94c3.89,0,4.91,1.86,4.91,4.91v14c0,3-1,4.91-4.91,4.91h-51.11v18.45h45.35c3.9,0,4.91,1.86,4.91,4.91v13.2c0,3-1,4.9-4.91,4.9h-45.35v22.34h54C1726.25,1523.17,1727.26,1525,1727.26,1528.08Z" transform="translate(-526.18 -490.42)"/></svg>