<svg id="Layer_1" data-name="Layer 1" xmlns="http://www.w3.org/2000/svg" viewBox="0 0 874.12 1172.99"><defs><style>.cls-1{fill:#3d3863;}</style></defs><path class="cls-1" d="M1413.55,868.46a303.25,303.25,0,0,0-331.89-52.12L936.11,887.1,846.67,775.52l-30.27-281q-.09-1-.21-1.92l-.08-.81a57.94,57.94,0,0,0-16.57-33.19l38.29-15.59a21.29,21.29,0,0,0-6.27-41.63c-.35,0-.69,0-1,.05,0-.05-85.25,0-85.25,0-.6,0-1.18-.09-1.78-.09s-1.18.06-1.77.09h-.55a33.32,33.32,0,0,0-22.12,55.93l-.24.23-15,.83c-12.4.69-24.42,7.38-32.77,17.55l-2.64,3.63a6.11,6.11,0,0,0-1,3.32,6,6,0,0,0,6,6,5.5,5.5,0,0,0,.91-.09s27.23,0,27.23,0a48.37,48.37,0,0,0,24.74,81.65L676.25,648.9C555.19,826.75,612.33,983,826.71,1074.5l10.16,4.12c15.92,6.81,27,15.39,35.32,29.25l23.34,38.92c0-.09,35,58.54,35,58.54l-22.66,159.61,19.49,1.75,52.52-161.36L981,1072.58Z" transform="translate(-606.84 -401.42)"/><path class="cls-1" d="M827.9,1100.67l-1,101.41L804.23,1361.7l19.49,1.74,52.52-161.36,8.44-24.18-34.2-57A51.07,51.07,0,0,0,827.9,1100.67Z" transform="translate(-606.84 -401.42)"/><path class="cls-1" d="M606.84,1442.77c0-2.88,1.32-4.33,4-4.33h54.41a42.9,42.9,0,0,1,17.27,3.47,43.69,43.69,0,0,1,26.4,40.38,43.09,43.09,0,0,1-1.58,11.73,44.33,44.33,0,0,1-4.42,10.42,42.37,42.37,0,0,1-6.91,8.8,44.06,44.06,0,0,1-8.93,6.77l23,48.27a1.13,1.13,0,0,0,.09.41,1.08,1.08,0,0,1,.09.4,3.37,3.37,0,0,1-.86,2.48,4.38,4.38,0,0,1-3.11.86H684.7q-2.43,0-3.42-2.8l-20-44H633.46v43c0,2.53-1.33,3.79-4,3.79H610.81a4.47,4.47,0,0,1-2.8-.9,3.41,3.41,0,0,1-1.17-2.89Zm76.33,39.34a18.28,18.28,0,0,0-1.35-6.81,19.62,19.62,0,0,0-3.84-6.09,19.83,19.83,0,0,0-6-4.42,17.26,17.26,0,0,0-7.72-1.72H633.46v38.08h31.48a18.82,18.82,0,0,0,7.76-1.53,16.15,16.15,0,0,0,5.73-4.2,18.65,18.65,0,0,0,3.52-6.09A21.18,21.18,0,0,0,683.17,1482.11Z" transform="translate(-606.84 -401.42)"/><path class="cls-1" d="M721.25,1505.57a68.47,68.47,0,0,1,9.38-34.87,69.83,69.83,0,0,1,10.78-14,67.08,67.08,0,0,1,13.94-10.78,70.32,70.32,0,0,1,16.47-7,69.05,69.05,0,0,1,36.68,0,70.26,70.26,0,0,1,16.51,7,68.62,68.62,0,0,1,24.77,24.81,71.57,71.57,0,0,1,6.94,16.51,69.2,69.2,0,0,1,0,36.72,69.81,69.81,0,0,1-6.94,16.42,67.76,67.76,0,0,1-10.79,13.9A70.65,70.65,0,0,1,825,1565a69,69,0,0,1-69.66,0,69.8,69.8,0,0,1-24.72-24.68,67.42,67.42,0,0,1-7-16.42A68.59,68.59,0,0,1,721.25,1505.57Zm26.79,0a46.58,46.58,0,0,0,3.12,17.1,42.79,42.79,0,0,0,8.7,13.94,41.57,41.57,0,0,0,60.28,0,43.77,43.77,0,0,0,8.75-13.94,46.19,46.19,0,0,0,3.16-17.1,46.76,46.76,0,0,0-3.16-17.23,43.56,43.56,0,0,0-8.75-14,41.44,41.44,0,0,0-13.31-9.43,42.65,42.65,0,0,0-33.7,0,41.49,41.49,0,0,0-13.27,9.43,42.6,42.6,0,0,0-8.7,14A47.16,47.16,0,0,0,748,1505.57Z" transform="translate(-606.84 -401.42)"/><path class="cls-1" d="M875.17,1505.57a68.61,68.61,0,0,1,9.39-34.87,69.46,69.46,0,0,1,10.78-14,67.08,67.08,0,0,1,13.94-10.78,70.32,70.32,0,0,1,16.47-7,69.05,69.05,0,0,1,36.68,0,70.44,70.44,0,0,1,16.51,7,68.62,68.62,0,0,1,24.77,24.81,71.57,71.57,0,0,1,6.94,16.51,69.2,69.2,0,0,1,0,36.72,69.81,69.81,0,0,1-6.94,16.42,67.76,67.76,0,0,1-10.79,13.9,70.65,70.65,0,0,1-14,10.78,69,69,0,0,1-69.66,0,69.8,69.8,0,0,1-24.72-24.68,67,67,0,0,1-6.95-16.42A68.6,68.6,0,0,1,875.17,1505.57Zm26.8,0a46.58,46.58,0,0,0,3.12,17.1,42.79,42.79,0,0,0,8.7,13.94,41.55,41.55,0,0,0,60.27,0,43.62,43.62,0,0,0,8.76-13.94,46.19,46.19,0,0,0,3.16-17.1,46.76,46.76,0,0,0-3.16-17.23,43.41,43.41,0,0,0-8.76-14,41.39,41.39,0,0,0-13.3-9.43,42.65,42.65,0,0,0-33.7,0,41.49,41.49,0,0,0-13.27,9.43,42.6,42.6,0,0,0-8.7,14A47.16,47.16,0,0,0,902,1505.57Z" transform="translate(-606.84 -401.42)"/><path class="cls-1" d="M1112,1474.17a4.17,4.17,0,0,1-2.16-.58,22.92,22.92,0,0,1-2.26-1.58l-.18-.09a47.21,47.21,0,0,0-10.46-7.67,43.33,43.33,0,0,0-7.18-3.07,24.82,24.82,0,0,0-7.8-1.26A32.23,32.23,0,0,0,1073,1461a20.59,20.59,0,0,0-6.49,3.07,13.18,13.18,0,0,0-4,4.56,12,12,0,0,0-1.36,5.59,8.6,8.6,0,0,0,2,5.69,19.18,19.18,0,0,0,5.5,4.37,50,50,0,0,0,8,3.52q4.52,1.58,9.48,3,8.47,2.63,16.74,5.82a68,68,0,0,1,14.75,7.81,38.32,38.32,0,0,1,10.51,11,28.86,28.86,0,0,1,4,15.57,39.14,39.14,0,0,1-4,17.77,40.55,40.55,0,0,1-11,13.58,50.27,50.27,0,0,1-16.42,8.66,65.88,65.88,0,0,1-20.26,3,59.81,59.81,0,0,1-13.8-1.62,67.17,67.17,0,0,1-13.17-4.6,70.42,70.42,0,0,1-12-7.17,60.13,60.13,0,0,1-10.06-9.43v.09l-.18-.36a6.57,6.57,0,0,1-2-4.15c0-1.21.73-2.5,2.17-3.88l1.26-1.36,1.72-1.62c.9-.78,1.86-1.66,2.89-2.62s2-1.83,3.06-2.62a34.17,34.17,0,0,1,2.85-2,4.37,4.37,0,0,1,2.11-.81,3.83,3.83,0,0,1,2.35.81,16.89,16.89,0,0,1,1.8,1.53l.37.37H1050a60,60,0,0,0,7.08,5.68,72.43,72.43,0,0,0,8.08,4.83,48.15,48.15,0,0,0,8.25,3.33,26.94,26.94,0,0,0,7.72,1.22,33.16,33.16,0,0,0,9.29-1.26,23.87,23.87,0,0,0,7.49-3.57,17.1,17.1,0,0,0,5-5.54,14.65,14.65,0,0,0,1.8-7.22,10.35,10.35,0,0,0-2.34-6.81,21.43,21.43,0,0,0-6.14-5,47.27,47.27,0,0,0-8.52-3.65q-4.74-1.53-9.52-2.89a142.5,142.5,0,0,1-19.27-7.22,58.27,58.27,0,0,1-13.76-8.7,32.38,32.38,0,0,1-8.25-10.83,31.92,31.92,0,0,1-2.75-13.49,33.51,33.51,0,0,1,13-27.11,46.13,46.13,0,0,1,15-7.67,64.91,64.91,0,0,1,19.58-2.76,57.19,57.19,0,0,1,16.69,2.58,64.89,64.89,0,0,1,15.7,7.08c1.44.9,2.92,1.93,4.42,3.07s2.89,2.3,4.15,3.47a24.36,24.36,0,0,1,3.11,3.43,5.19,5.19,0,0,1,1.22,2.84,4.69,4.69,0,0,1-.54,2.21,11.92,11.92,0,0,1-1.35,2l-2.71,2.89v-.09l-2.8,3a33.37,33.37,0,0,1-2.89,2.75c-1,.81-1.83,1.49-2.61,2A3.75,3.75,0,0,1,1112,1474.17Z" transform="translate(-606.84 -401.42)"/><path class="cls-1" d="M1140.62,1442.41a3.59,3.59,0,0,1,1.36-2.8,4.67,4.67,0,0,1,3.16-1.17h92.12a5.12,5.12,0,0,1,3,1,3.9,3.9,0,0,1,1.58,3v15.88a5.12,5.12,0,0,1-1.17,3.39,4.24,4.24,0,0,1-3.43,1.39h-32.75v104.76a3.52,3.52,0,0,1-.37,1.49,9,9,0,0,1-.9,1.49,4.44,4.44,0,0,1-1.31,1.17,3.05,3.05,0,0,1-1.57.45h-18a2.94,2.94,0,0,1-1.4-.41,6.69,6.69,0,0,1-1.44-1,5.59,5.59,0,0,1-1.13-1.49,3.58,3.58,0,0,1-.45-1.67V1463.07h-32.75a4.48,4.48,0,0,1-3.16-1.26,4.56,4.56,0,0,1-1.36-3.52Z" transform="translate(-606.84 -401.42)"/><path class="cls-1" d="M1261.71,1442.77c0-2.88,1.32-4.33,4-4.33h87a4,4,0,0,1,3.34,1.31,5.3,5.3,0,0,1,1,3.29v15.88a4.21,4.21,0,0,1-1.13,2.89,4.3,4.3,0,0,1-3.38,1.26h-64.15v27.43h49.44a3.66,3.66,0,0,1,2.89.77,4.08,4.08,0,0,1,1.08,3.2v16.33a4.84,4.84,0,0,1-.9,2.89A3.31,3.31,0,0,1,1338,1515h-49.62v32.85h66.49c1.69,0,2.8.36,3.34,1.08a5.51,5.51,0,0,1,.82,3.34v16.42q0,3.79-4,3.79h-89.32a4.47,4.47,0,0,1-2.8-.9,3.41,3.41,0,0,1-1.17-2.89Z" transform="translate(-606.84 -401.42)"/><path class="cls-1" d="M1377.56,1442.77c0-2.88,1.32-4.33,4-4.33h54.41a43,43,0,0,1,17.28,3.47,43.7,43.7,0,0,1,26.39,40.38A43.09,43.09,0,0,1,1478,1494a43.92,43.92,0,0,1-4.42,10.42,42.37,42.37,0,0,1-6.91,8.8,44.06,44.06,0,0,1-8.93,6.77l23,48.27a1.13,1.13,0,0,0,.09.41,1.08,1.08,0,0,1,.09.4,3.33,3.33,0,0,1-.86,2.48,4.36,4.36,0,0,1-3.11.86h-21.56q-2.45,0-3.43-2.8l-20-44h-27.79v43c0,2.53-1.33,3.79-4,3.79h-18.68a4.47,4.47,0,0,1-2.8-.9,3.41,3.41,0,0,1-1.17-2.89Zm76.33,39.34a18.28,18.28,0,0,0-1.35-6.81,19.79,19.79,0,0,0-9.79-10.51,17.25,17.25,0,0,0-7.71-1.72h-30.86v38.08h31.49a18.86,18.86,0,0,0,7.76-1.53,16.33,16.33,0,0,0,5.73-4.2,19,19,0,0,0,3.52-6.09A21.42,21.42,0,0,0,1453.89,1482.11Z" transform="translate(-606.84 -401.42)"/><path class="cls-1" d="M1034.85,1357.11a1.76,1.76,0,0,1,.51-1.34,2.05,2.05,0,0,1,1.44-.48h1.85a2,2,0,0,1,1.45.5,2,2,0,0,1,.61,1.32l.25,3.12a15,15,0,0,1,2-2.2,13.16,13.16,0,0,1,5.38-3,12.53,12.53,0,0,1,3.27-.42,14.9,14.9,0,0,1,6.41,1.4,16.15,16.15,0,0,1,5.16,3.86,18.18,18.18,0,0,1,3.47,5.75,20.49,20.49,0,0,1,0,14.15,18.36,18.36,0,0,1-3.47,5.74,16.26,16.26,0,0,1-5.16,3.85,14.76,14.76,0,0,1-6.41,1.4,12.11,12.11,0,0,1-10.55-5.39v16.72a1.67,1.67,0,0,1-.52,1.3,2.11,2.11,0,0,1-1.5.48h-2.1a2.22,2.22,0,0,1-1.49-.48,1.61,1.61,0,0,1-.57-1.3Zm6.11,15.73a13.56,13.56,0,0,0,.8,4.72,12.24,12.24,0,0,0,2.2,3.85,10.26,10.26,0,0,0,3.28,2.6,9.06,9.06,0,0,0,4,.94,8.88,8.88,0,0,0,4-.94,10,10,0,0,0,3.25-2.6,12.18,12.18,0,0,0,2.17-3.85,14.64,14.64,0,0,0,0-9.43,12.17,12.17,0,0,0-2.17-3.87,10.56,10.56,0,0,0-3.25-2.63,8.54,8.54,0,0,0-4-1,8.94,8.94,0,0,0-4,.95,10.56,10.56,0,0,0-3.26,2.62,12.55,12.55,0,0,0-2.19,3.83,14,14,0,0,0-.83,4.64Z" transform="translate(-606.84 -401.42)"/><path class="cls-1" d="M1075.44,1345.49a4.3,4.3,0,0,1,.36-1.74,4.45,4.45,0,0,1,1-1.42,4.71,4.71,0,0,1,1.4-1,4.26,4.26,0,0,1,1.72-.35,4.56,4.56,0,0,1,1.78.35,4.68,4.68,0,0,1,1.42,1,4.57,4.57,0,0,1,.94,1.42,4.65,4.65,0,0,1,.34,1.74,4.42,4.42,0,0,1-1.28,3.13,4.68,4.68,0,0,1-1.42,1,4.56,4.56,0,0,1-1.78.35,4.26,4.26,0,0,1-1.72-.35,4.71,4.71,0,0,1-1.4-1,4.3,4.3,0,0,1-1-1.41A4.11,4.11,0,0,1,1075.44,1345.49Zm7.53,43.15a1.49,1.49,0,0,1-.43,1.17,1.65,1.65,0,0,1-1.17.39h-2.94a1.4,1.4,0,0,1-1.6-1.56v-31.78a1.53,1.53,0,0,1,.41-1.14,1.57,1.57,0,0,1,1.19-.43h2.94a1.63,1.63,0,0,1,1.16.43,1.51,1.51,0,0,1,.44,1.14Z" transform="translate(-606.84 -401.42)"/><path class="cls-1" d="M1110.1,1385.34a11.88,11.88,0,0,0,4.3-.85,13.71,13.71,0,0,0,3.87-2.31,3.5,3.5,0,0,1,.62-.37,1.52,1.52,0,0,1,.66-.16.89.89,0,0,1,.78.42l2,2.88c0,.12.1.23.16.35a.75.75,0,0,1,.09.25,1.23,1.23,0,0,1-.39.94,4.09,4.09,0,0,1-.75.59,25.12,25.12,0,0,1-5.2,2.82,16.06,16.06,0,0,1-6.09,1.16,18.07,18.07,0,0,1-7.12-1.42,18.11,18.11,0,0,1-9.68-9.68,18.34,18.34,0,0,1,3.89-20A18.55,18.55,0,0,1,1103,1356a17.73,17.73,0,0,1,7.12-1.44,17.47,17.47,0,0,1,5.49.87,21.79,21.79,0,0,1,5.49,2.83H1121a7.88,7.88,0,0,1,.88.73,1,1,0,0,1,.3.69,1.46,1.46,0,0,1-.08.42,1.07,1.07,0,0,1-.14.36l-2,3,0,0a1.17,1.17,0,0,1-.93.42,1.07,1.07,0,0,1-.48-.16,5.48,5.48,0,0,1-.65-.4,17,17,0,0,0-3.64-2.19,10.42,10.42,0,0,0-4.25-.87,11.84,11.84,0,0,0-4.83,1,12.72,12.72,0,0,0-4,2.71,13.1,13.1,0,0,0-2.69,4,12.16,12.16,0,0,0,0,9.66,12.65,12.65,0,0,0,6.67,6.67A11.84,11.84,0,0,0,1110.1,1385.34Z" transform="translate(-606.84 -401.42)"/><path class="cls-1" d="M1130.81,1339a1.6,1.6,0,0,1,.4-1.1,1.47,1.47,0,0,1,1.16-.46h3a1.7,1.7,0,0,1,1.13.42,1.42,1.42,0,0,1,.5,1.14v30.15l12.29-12.89a6.77,6.77,0,0,1,.78-.68,1.85,1.85,0,0,1,1.1-.28h5a1.3,1.3,0,0,1,.84.23.69.69,0,0,1,.26.55,1.08,1.08,0,0,1-.12.6,5.5,5.5,0,0,1-.48.57l-10.87,11.12,5.4,6.57,4.07,4.94,2.91,3.53c.79,1,1.44,1.74,1.94,2.36,1.18,1.47,1.85,2.29,2,2.45a2.69,2.69,0,0,1,.46.62,1.27,1.27,0,0,1,.18.52.74.74,0,0,1-.3.57,1.37,1.37,0,0,1-.87.24h-4.94a2.16,2.16,0,0,1-1-.28,2.94,2.94,0,0,1-1-.85l-13.1-16.34-4.55,4.69v11.22c0,1-.56,1.56-1.67,1.56h-2.91a1.38,1.38,0,0,1-1.56-1.56Z" transform="translate(-606.84 -401.42)"/><path class="cls-1" d="M1194.8,1388.64c-.12-.54-.22-1.08-.32-1.6s-.19-1-.28-1.59c-.55.68-1.14,1.36-1.79,2a13.81,13.81,0,0,1-2.17,1.78,11,11,0,0,1-2.59,1.24,9.63,9.63,0,0,1-3,.46,14.22,14.22,0,0,1-5.72-1.15,14.64,14.64,0,0,1-4.63-3.16,14.89,14.89,0,0,1-3.11-4.69,14.6,14.6,0,0,1-1.14-5.77v-18.93a1.82,1.82,0,0,1,.5-1.39,1.69,1.69,0,0,1,1.21-.46h2.87a1.5,1.5,0,0,1,1.28.43,2.2,2.2,0,0,1,.32,1.35v19.07a7.59,7.59,0,0,0,.75,3.33,8.92,8.92,0,0,0,2,2.74,9.79,9.79,0,0,0,2.88,1.85,8.72,8.72,0,0,0,3.39.67,8.61,8.61,0,0,0,3.31-.66,9.08,9.08,0,0,0,2.82-1.81,9.23,9.23,0,0,0,2-2.7,8.46,8.46,0,0,0,.87-3.32V1357a1.55,1.55,0,0,1,.43-1.19,1.62,1.62,0,0,1,1.17-.41h2.91a1.42,1.42,0,0,1,1.63,1.6v31.64a1.45,1.45,0,0,1-1.56,1.56h-2.34a1.57,1.57,0,0,1-1.23-.44A1.59,1.59,0,0,1,1194.8,1388.64Z" transform="translate(-606.84 -401.42)"/><path class="cls-1" d="M1211.85,1357.11a1.73,1.73,0,0,1,.52-1.34,2,2,0,0,1,1.43-.48h1.85a2,2,0,0,1,1.45.5,2,2,0,0,1,.61,1.32l.25,3.12a15,15,0,0,1,2-2.2,13.31,13.31,0,0,1,2.47-1.79,12.91,12.91,0,0,1,2.91-1.2,12.53,12.53,0,0,1,3.27-.42,14.9,14.9,0,0,1,6.41,1.4,16.3,16.3,0,0,1,5.17,3.86,18.34,18.34,0,0,1,3.46,5.75,20.49,20.49,0,0,1,0,14.15,18.52,18.52,0,0,1-3.46,5.74,16.42,16.42,0,0,1-5.17,3.85,14.76,14.76,0,0,1-6.41,1.4,12.11,12.11,0,0,1-10.55-5.39v16.72a1.67,1.67,0,0,1-.52,1.3,2.11,2.11,0,0,1-1.5.48h-2.1a2.22,2.22,0,0,1-1.49-.48,1.61,1.61,0,0,1-.57-1.3Zm6.11,15.73a13.56,13.56,0,0,0,.8,4.72,12.24,12.24,0,0,0,2.2,3.85,10.26,10.26,0,0,0,3.28,2.6,9.06,9.06,0,0,0,4,.94,8.88,8.88,0,0,0,4-.94,10,10,0,0,0,3.25-2.6,12.18,12.18,0,0,0,2.17-3.85,14.64,14.64,0,0,0,0-9.43,12.17,12.17,0,0,0-2.17-3.87,10.56,10.56,0,0,0-3.25-2.63,8.54,8.54,0,0,0-4-1,8.94,8.94,0,0,0-4,.95,10.56,10.56,0,0,0-3.26,2.62,12.76,12.76,0,0,0-2.19,3.83,14,14,0,0,0-.83,4.64Z" transform="translate(-606.84 -401.42)"/><path class="cls-1" d="M1273.11,1383.07a1.8,1.8,0,0,1-.09-.77,1,1,0,0,1,.45-.62l3.58-1.45a.92.92,0,0,1,1.07.15,2.57,2.57,0,0,1,.57.95,4.53,4.53,0,0,0,1.2,1.84,6.84,6.84,0,0,0,1.78,1.19,8.51,8.51,0,0,0,1.9.64,8.36,8.36,0,0,0,1.65.2,9.18,9.18,0,0,0,2.36-.32,8.33,8.33,0,0,0,2.15-.91,5.05,5.05,0,0,0,1.56-1.45,3.29,3.29,0,0,0,.61-1.94,3.34,3.34,0,0,0-.61-2,5.68,5.68,0,0,0-1.61-1.5,13.29,13.29,0,0,0-2.33-1.12c-.87-.31-1.8-.6-2.77-.86a23.43,23.43,0,0,1-4.26-1.6,13.1,13.1,0,0,1-3.29-2.29,9.79,9.79,0,0,1-2.11-3,9.2,9.2,0,0,1-.74-3.73,9.77,9.77,0,0,1,.83-4,9.25,9.25,0,0,1,2.33-3.16,11,11,0,0,1,3.58-2.06,14,14,0,0,1,4.66-.74,12.34,12.34,0,0,1,3.55.48,10.32,10.32,0,0,1,2.88,1.36,12,12,0,0,1,2.32,2.15,19.33,19.33,0,0,1,1.94,2.86,2.3,2.3,0,0,1,.21.48,1.87,1.87,0,0,1,0,.34.63.63,0,0,1-.21.48,5.51,5.51,0,0,1-.53.41,7.14,7.14,0,0,0-.75.51,9.29,9.29,0,0,1-.78.55c-.26.17-.51.31-.74.43a1.38,1.38,0,0,1-.61.17,1.78,1.78,0,0,1-.51-.06.88.88,0,0,1-.34-.24,1.78,1.78,0,0,1-.28-.39l-.36-.55a11.21,11.21,0,0,0-2.45-2.41,5.52,5.52,0,0,0-3.34-1,6.8,6.8,0,0,0-2.32.37,5.79,5.79,0,0,0-1.8,1,4.69,4.69,0,0,0-1.17,1.43,3.64,3.64,0,0,0-.43,1.67,3.28,3.28,0,0,0,.54,1.87,4.85,4.85,0,0,0,1.35,1.36,8.14,8.14,0,0,0,1.86,1,17.06,17.06,0,0,0,2.08.64.27.27,0,0,1,.14,0l.14,0a19,19,0,0,1,8.7,4.14,9.17,9.17,0,0,1,3.13,7,9.61,9.61,0,0,1-.94,4.28,9.45,9.45,0,0,1-2.63,3.23,12,12,0,0,1-4,2,16.87,16.87,0,0,1-5,.71,15.46,15.46,0,0,1-3.85-.49,13.72,13.72,0,0,1-3.59-1.48,11.43,11.43,0,0,1-2.89-2.43A8.82,8.82,0,0,1,1273.11,1383.07Z" transform="translate(-606.84 -401.42)"/><path class="cls-1" d="M1321.91,1385.34a11.88,11.88,0,0,0,4.3-.85,13.71,13.71,0,0,0,3.87-2.31,3.18,3.18,0,0,1,.62-.37,1.45,1.45,0,0,1,.65-.16.9.9,0,0,1,.79.42l1.95,2.88c.05.12.1.23.16.35a.75.75,0,0,1,.09.25,1.23,1.23,0,0,1-.39.94,4.09,4.09,0,0,1-.75.59,25.38,25.38,0,0,1-5.2,2.82,16.14,16.14,0,0,1-6.09,1.16,18,18,0,0,1-7.12-1.42,18.11,18.11,0,0,1-9.68-9.68,18.51,18.51,0,0,1,0-14.22,18.08,18.08,0,0,1,3.89-5.81,18.32,18.32,0,0,1,5.79-3.91,17.66,17.66,0,0,1,7.12-1.44,17.41,17.41,0,0,1,5.48.87,21.46,21.46,0,0,1,5.49,2.83h-.07a6.84,6.84,0,0,1,.87.73,1,1,0,0,1,.3.69,1.41,1.41,0,0,1-.07.42,1.33,1.33,0,0,1-.14.36l-2,3,0,0a1.15,1.15,0,0,1-.92.42,1.07,1.07,0,0,1-.48-.16,6.47,6.47,0,0,1-.66-.4,16.53,16.53,0,0,0-3.64-2.19,10.38,10.38,0,0,0-4.24-.87,11.77,11.77,0,0,0-4.83,1,12.6,12.6,0,0,0-4,2.71,13,13,0,0,0-2.7,4,12.28,12.28,0,0,0,0,9.66,12.71,12.71,0,0,0,6.68,6.67A11.77,11.77,0,0,0,1321.91,1385.34Z" transform="translate(-606.84 -401.42)"/><path class="cls-1" d="M1342.61,1339.06a1.63,1.63,0,0,1,.41-1.15,1.52,1.52,0,0,1,1.19-.44h2.91a1.63,1.63,0,0,1,1.16.44,1.49,1.49,0,0,1,.48,1.15v20.39a19.21,19.21,0,0,1,1.72-1.79,12,12,0,0,1,2.06-1.53,10.77,10.77,0,0,1,2.45-1.05,10.25,10.25,0,0,1,2.89-.39A14.22,14.22,0,0,1,1364,1356a13.62,13.62,0,0,1,4.58,3.44,15.59,15.59,0,0,1,2.89,5.1,18.79,18.79,0,0,1,1,6.25v17.9a1.44,1.44,0,0,1-.46,1.17,1.74,1.74,0,0,1-1.17.39h-2.91a1.94,1.94,0,0,1-1.21-.33,1.52,1.52,0,0,1-.43-1.23v-19.28a8.19,8.19,0,0,0-.69-3.39,8.52,8.52,0,0,0-1.88-2.74,8.8,8.8,0,0,0-2.77-1.81,8.52,8.52,0,0,0-3.32-.66,8.31,8.31,0,0,0-3.27.66,9.48,9.48,0,0,0-2.77,1.79,9.11,9.11,0,0,0-2,2.69,8.56,8.56,0,0,0-.85,3.28v19.46a1.38,1.38,0,0,1-1.57,1.56h-3a1.4,1.4,0,0,1-1.6-1.56Z" transform="translate(-606.84 -401.42)"/><path class="cls-1" d="M1381.32,1372.84a17.86,17.86,0,0,1,1.42-7.1,18.24,18.24,0,0,1,3.89-5.81,18.57,18.57,0,0,1,5.77-3.91,18.25,18.25,0,0,1,14.21,0,18.19,18.19,0,0,1,9.71,9.72,18.27,18.27,0,0,1,0,14.22,18.69,18.69,0,0,1-3.9,5.79,18.47,18.47,0,0,1-5.81,3.89,18.49,18.49,0,0,1-14.21,0,18.16,18.16,0,0,1-9.66-9.68A17.89,17.89,0,0,1,1381.32,1372.84Zm5.75,0a12.16,12.16,0,0,0,1,4.83,12.8,12.8,0,0,0,2.68,4,13,13,0,0,0,4,2.69,12.12,12.12,0,0,0,9.64,0,13.1,13.1,0,0,0,4-2.69,12.92,12.92,0,0,0,2.72-4,12.28,12.28,0,0,0,0-9.66,13,13,0,0,0-2.72-4,12.8,12.8,0,0,0-4-2.71,12.12,12.12,0,0,0-9.64,0,12.74,12.74,0,0,0-4,2.71,12.89,12.89,0,0,0-2.68,4A12.09,12.09,0,0,0,1387.07,1372.84Z" transform="translate(-606.84 -401.42)"/><path class="cls-1" d="M1424.65,1372.84a18.24,18.24,0,0,1,5.31-12.91,18.46,18.46,0,0,1,5.77-3.91,18.22,18.22,0,0,1,14.2,0,18.25,18.25,0,0,1,9.72,9.72,18.39,18.39,0,0,1,0,14.22,18.55,18.55,0,0,1-3.91,5.79,18.35,18.35,0,0,1-5.81,3.89,18.46,18.46,0,0,1-14.2,0,18.4,18.4,0,0,1-5.77-3.89,18.16,18.16,0,0,1-3.89-5.79A17.89,17.89,0,0,1,1424.65,1372.84Zm5.75,0a12.16,12.16,0,0,0,1,4.83,12.63,12.63,0,0,0,2.68,4,13,13,0,0,0,4,2.69,12.12,12.12,0,0,0,9.64,0,13.1,13.1,0,0,0,4-2.69,12.89,12.89,0,0,0,2.71-4,12.16,12.16,0,0,0,0-9.66,13,13,0,0,0-2.71-4,12.8,12.8,0,0,0-4-2.71,12.12,12.12,0,0,0-9.64,0,12.71,12.71,0,0,0-6.64,6.71A12.09,12.09,0,0,0,1430.4,1372.84Z" transform="translate(-606.84 -401.42)"/><path class="cls-1" d="M1476.75,1388.64a1.52,1.52,0,0,1-.43,1.17,1.67,1.67,0,0,1-1.17.39h-3a1.4,1.4,0,0,1-1.6-1.56V1339a1.61,1.61,0,0,1,.41-1.14,1.58,1.58,0,0,1,1.19-.42h3a1.6,1.6,0,0,1,1.15.42,1.51,1.51,0,0,1,.45,1.14Z" transform="translate(-606.84 -401.42)"/></svg>