<svg id="Layer_1" data-name="Layer 1" xmlns="http://www.w3.org/2000/svg" viewBox="0 0 566.93 566.93"><defs><style>.cls-1{fill:#6c6d6d;}.cls-2{fill:#9e9e9e;}.cls-3{fill:#84ab44;}</style></defs><g id="Co.name"><path class="cls-1" d="M76.62,437.11H89.09q-2.75,10.47-10.47,16-7.73,5.73-19.45,5.73Q45,458.8,37,449.58q-8-9-8-25.68,0-16,7.73-24.93,8-9.23,22.18-9.22,15,0,23.19,9,8,9.22,8,25.68v2.74a4.49,4.49,0,0,1-.24,1.75H46.71q.24,7.73,3.74,11.46,3.22,4,9.72,4a14.15,14.15,0,0,0,7.23-1.74,3.53,3.53,0,0,0,1.37-.88l1.37-1.37a5.37,5.37,0,0,1,1.87-2A7.44,7.44,0,0,1,76.62,437.11ZM46.71,417.67H72.13q-.5-6.74-3.48-10-3.25-3.49-9.23-3.5a12.12,12.12,0,0,0-9,3.5Q47,411.18,46.71,417.67Z"/><path class="cls-1" d="M96.13,371.8h9a8.39,8.39,0,0,1,6,2.36,7.8,7.8,0,0,1,2.5,5.86v77.53H96.13Z"/><path class="cls-1" d="M166.77,437.11h12.46q-2.74,10.47-10.46,16-7.74,5.73-19.45,5.73-14.2,0-22.19-9.22-8-9-8-25.68,0-16,7.72-24.93,8-9.23,22.19-9.22,15,0,23.18,9,8,9.22,8,25.68v2.74a4.26,4.26,0,0,1-.25,1.75H136.85q.26,7.73,3.74,11.46,3.24,4,9.73,4a14.18,14.18,0,0,0,7.23-1.74,3.53,3.53,0,0,0,1.37-.88l1.37-1.37a5.37,5.37,0,0,1,1.87-2A7.42,7.42,0,0,1,166.77,437.11Zm-29.92-19.44h25.43q-.5-6.74-3.49-10-3.24-3.49-9.22-3.5a12.15,12.15,0,0,0-9,3.5Q137.09,411.18,136.85,417.67Z"/><path class="cls-1" d="M233.18,437.11h12.46q-2.74,10.47-10.47,16-7.72,5.73-19.45,5.73-14.21,0-22.18-9.22-8-9-8-25.68,0-16,7.73-24.93,8-9.23,22.19-9.22,15,0,23.18,9a34.27,34.27,0,0,1,6.48,12.71H227.69a14.62,14.62,0,0,0-2.49-3.73q-3.24-3.49-9.23-3.5a12.15,12.15,0,0,0-9,3.5q-4.49,5-4.49,16.45t4.49,16.2q3.24,4,9.72,4A14.13,14.13,0,0,0,224,442.6a3.46,3.46,0,0,0,1.37-.88l1.38-1.37a10.64,10.64,0,0,1,2-2A6.89,6.89,0,0,1,233.18,437.11Z"/><path class="cls-1" d="M280.35,457.55a129.52,129.52,0,0,1-17.82-.25q-9.6-.74-9.6-12.21V371.8h9a7.89,7.89,0,0,1,5.73,2.49,8.17,8.17,0,0,1,2.49,6v11.22h10.22V395a8.06,8.06,0,0,1-2.49,6.11,8.38,8.38,0,0,1-6,2.37h-1.75v36.89q0,4.25,5,4.24h5.23Z"/><path class="cls-1" d="M284.4,457.55V425.4q0-9.73,2.87-16.33a27,27,0,0,1,7.85-10.6A30.91,30.91,0,0,1,306.21,393a49.37,49.37,0,0,1,13.09-1.75h2.5v17.7h-5.74q-7.23,0-10.72,3.49t-3.49,11v34.15Z"/><path class="cls-1" d="M334.32,451.57a24.67,24.67,0,0,1-7.48-12.09,55.47,55.47,0,0,1-2.24-15.83,49.89,49.89,0,0,1,1.87-13.46A27.78,27.78,0,0,1,332.32,399,25.85,25.85,0,0,1,349,390.12a38.55,38.55,0,0,1,18.45,1.62,25.42,25.42,0,0,1,13.95,13,41.35,41.35,0,0,1,4.24,19.2,47.53,47.53,0,0,1-1.74,13.71,35,35,0,0,1-4.49,9.72,24.86,24.86,0,0,1-15.2,10.22,34,34,0,0,1-16.58.38Q339.3,456.06,334.32,451.57Zm12-43.87q-5.25,5.73-4.74,17.07t4.24,15.83A11.2,11.2,0,0,0,351,444a11.94,11.94,0,0,0,7.61.25q3.86-1.12,6.85-5.61t3.24-14.46q0-9-2.86-13.46T359.25,405a12.1,12.1,0,0,0-7.48-.12A13,13,0,0,0,346.29,407.7Z"/><path class="cls-1" d="M437.09,437.11h12.46q-2.74,10.47-10.47,16-7.72,5.73-19.44,5.73-14.2,0-22.19-9.22-8-9-8-25.68,0-16,7.73-24.93,8-9.23,22.19-9.22,15,0,23.18,9a34.27,34.27,0,0,1,6.48,12.71H431.6a14.62,14.62,0,0,0-2.49-3.73q-3.24-3.49-9.22-3.5a12.15,12.15,0,0,0-9,3.5q-4.49,5-4.49,16.45t4.49,16.2q3.24,4,9.72,4a14.19,14.19,0,0,0,7.24-1.74,3.6,3.6,0,0,0,1.37-.88l1.37-1.37a10.64,10.64,0,0,1,2-2A6.89,6.89,0,0,1,437.09,437.11Z"/><path class="cls-1" d="M497.23,454.81a30.76,30.76,0,0,1-11.1,3.37,100.42,100.42,0,0,1-10.34.62,26.15,26.15,0,0,1-15.71-4.86q-6.72-4.86-6.72-16.08,0-10.47,6.1-15t15.58-6a14.59,14.59,0,0,0,3-.38c1.16-.25,2.49-.45,4-.62,7.31-1,11-3.15,11-6.48q0-3.74-3.86-4.86a25.61,25.61,0,0,0-7.11-1.12,18.26,18.26,0,0,0-6.23,1,6.83,6.83,0,0,0-4,3.74H455.1a19.18,19.18,0,0,1,7-12.71q6.74-5.73,19.19-5.73,14,0,20.94,4.73a16,16,0,0,1,7.24,14v22.69q0,10-3.62,15.58A22.11,22.11,0,0,1,497.23,454.81Zm-4-30.66a47.53,47.53,0,0,1-9.72,3.24l-5.74,1.24a14.79,14.79,0,0,0-6.48,3.25,10.18,10.18,0,0,0-1.74,5.48,8.1,8.1,0,0,0,2.24,6c1.5,1.34,3.66,2,6.48,2q7,0,11-4t4-11Z"/><path class="cls-1" d="M514.49,457.55V425.4q0-9.73,2.87-16.33a26.93,26.93,0,0,1,7.85-10.6A30.91,30.91,0,0,1,536.3,393a49.42,49.42,0,0,1,13.09-1.75h2.49v17.7h-5.73q-7.23,0-10.72,3.49t-3.49,11v34.15Z"/></g><g id="Co.slogab"><path class="cls-2" d="M133.65,490.44a7.09,7.09,0,0,1,2.07-2.57,8.77,8.77,0,0,1,3.07-1.48,14.9,14.9,0,0,1,3.91-.48,17,17,0,0,1,3.24.32,7.66,7.66,0,0,1,2.9,1.16,6.29,6.29,0,0,1,2.1,2.41,8.65,8.65,0,0,1,.81,4v13.05a1.57,1.57,0,0,0,1.76,1.81,2.24,2.24,0,0,0,1-.19V511c-.35.07-.66.11-.93.14a7.36,7.36,0,0,1-1,.05,4.43,4.43,0,0,1-1.83-.31,2.43,2.43,0,0,1-1.08-.88,3.35,3.35,0,0,1-.5-1.36,11.46,11.46,0,0,1-.12-1.73h-.09a21.39,21.39,0,0,1-1.64,2.12,8.47,8.47,0,0,1-1.86,1.54,8.57,8.57,0,0,1-2.33,1,13,13,0,0,1-3.12.33,12.29,12.29,0,0,1-3.22-.41,7,7,0,0,1-2.62-1.28,6.29,6.29,0,0,1-1.76-2.24,7.41,7.41,0,0,1-.64-3.21,6.38,6.38,0,0,1,1.14-4,7.19,7.19,0,0,1,3-2.21,17,17,0,0,1,4.24-1.07c1.58-.21,3.17-.41,4.79-.6a15.52,15.52,0,0,0,1.67-.24,2.86,2.86,0,0,0,1.19-.5,2.37,2.37,0,0,0,.74-1,4.36,4.36,0,0,0,.26-1.62,5.5,5.5,0,0,0-.5-2.5,4.07,4.07,0,0,0-1.38-1.55,5.81,5.81,0,0,0-2.05-.79,14.12,14.12,0,0,0-2.5-.21,7.55,7.55,0,0,0-4.67,1.36,5.27,5.27,0,0,0-1.9,4.35h-3A9.87,9.87,0,0,1,133.65,490.44Zm15,7.33a1.71,1.71,0,0,1-1.09.77,14.66,14.66,0,0,1-1.43.33c-1.27.22-2.58.42-3.93.59a21.93,21.93,0,0,0-3.69.79,7.21,7.21,0,0,0-2.74,1.5,3.59,3.59,0,0,0-1.07,2.78,4.4,4.4,0,0,0,.45,2,4.85,4.85,0,0,0,1.22,1.52,5.13,5.13,0,0,0,1.76,1,6.47,6.47,0,0,0,2.05.33,10.29,10.29,0,0,0,3.28-.52,8.21,8.21,0,0,0,2.74-1.52,7.28,7.28,0,0,0,2.55-5.67v-3.91Z"/><path class="cls-2" d="M160.75,477.2v14.1h.09A7.16,7.16,0,0,1,162.2,489a8.71,8.71,0,0,1,4.5-2.71,11.11,11.11,0,0,1,2.67-.34,10.67,10.67,0,0,1,4.88,1,10,10,0,0,1,3.45,2.84,12.17,12.17,0,0,1,2.05,4.14,19.08,19.08,0,0,1,0,9.95A12.17,12.17,0,0,1,177.7,508a9.78,9.78,0,0,1-3.45,2.82,10.93,10.93,0,0,1-4.88,1,10.41,10.41,0,0,1-5.36-1.38,7.93,7.93,0,0,1-3.41-4h-.09v4.67h-2.76v-34ZM177,495.13a10.56,10.56,0,0,0-1.43-3.36,7.86,7.86,0,0,0-2.5-2.4,6.86,6.86,0,0,0-3.66-.93,8.09,8.09,0,0,0-4,.93,8,8,0,0,0-2.66,2.4,9.82,9.82,0,0,0-1.48,3.36,16.14,16.14,0,0,0,0,7.57,9.65,9.65,0,0,0,1.48,3.36,8,8,0,0,0,2.66,2.4,8.09,8.09,0,0,0,4,.93,6.86,6.86,0,0,0,3.66-.93,7.86,7.86,0,0,0,2.5-2.4A10.37,10.37,0,0,0,177,502.7a16.14,16.14,0,0,0,0-7.57Z"/><path class="cls-2" d="M199.22,491.41a4.78,4.78,0,0,0-1.4-1.68,5.84,5.84,0,0,0-2-1,9.2,9.2,0,0,0-2.43-.31,10.07,10.07,0,0,0-2,.21,6.27,6.27,0,0,0-1.88.72,4,4,0,0,0-1.38,1.31,3.59,3.59,0,0,0-.52,2,2.77,2.77,0,0,0,.5,1.69,4.42,4.42,0,0,0,1.26,1.17,8.73,8.73,0,0,0,1.66.78c.61.21,1.16.37,1.67.5l4,.91a10.73,10.73,0,0,1,2.55.69,8.15,8.15,0,0,1,2.24,1.31,6.29,6.29,0,0,1,1.59,2,5.9,5.9,0,0,1,.62,2.8,6.19,6.19,0,0,1-.9,3.41,7.53,7.53,0,0,1-2.31,2.29,10.12,10.12,0,0,1-3.17,1.26,16.63,16.63,0,0,1-3.48.38,11.26,11.26,0,0,1-7-2.05c-1.79-1.36-2.82-3.55-3.07-6.57h3a5.92,5.92,0,0,0,2.21,4.59,8,8,0,0,0,5,1.55,11.22,11.22,0,0,0,2.26-.24,7.09,7.09,0,0,0,2.17-.81,5.22,5.22,0,0,0,1.64-1.45,3.54,3.54,0,0,0,.64-2.16,3.48,3.48,0,0,0-.45-1.84,4.08,4.08,0,0,0-1.21-1.24,7.79,7.79,0,0,0-1.74-.83q-1-.33-2-.57l-3.86-.86a21.56,21.56,0,0,1-2.71-.88,8.31,8.31,0,0,1-2.17-1.24,5.12,5.12,0,0,1-1.45-1.81,5.94,5.94,0,0,1-.52-2.64,5.85,5.85,0,0,1,.83-3.19,6.53,6.53,0,0,1,2.17-2.14,9.89,9.89,0,0,1,3-1.19,14.09,14.09,0,0,1,3.26-.39,12,12,0,0,1,3.46.48,8,8,0,0,1,2.81,1.48,7.35,7.35,0,0,1,1.93,2.47,9.18,9.18,0,0,1,.81,3.48h-3A5.82,5.82,0,0,0,199.22,491.41Z"/><path class="cls-2" d="M217.75,486.63v2.52h-5v16.58a5.34,5.34,0,0,0,.4,2.3c.27.56.94.87,2,.93a22.3,22.3,0,0,0,2.58-.14v2.53c-.45,0-.89,0-1.34,0s-.89.05-1.33.05c-2,0-3.4-.39-4.19-1.17s-1.18-2.21-1.14-4.31V489.15h-4.29v-2.52h4.29v-7.38h3v7.38Z"/><path class="cls-2" d="M224.84,486.63v5.76h.1a9.39,9.39,0,0,1,3.55-4.62,9.22,9.22,0,0,1,5.73-1.47v3a9.08,9.08,0,0,0-3.71.54,8.31,8.31,0,0,0-2.88,1.84,8.11,8.11,0,0,0-1.88,2.83,9.42,9.42,0,0,0-.67,3.6V511.2h-3V486.63Z"/><path class="cls-2" d="M237.7,490.44a7.09,7.09,0,0,1,2.07-2.57,8.77,8.77,0,0,1,3.07-1.48,14.9,14.9,0,0,1,3.91-.48,17,17,0,0,1,3.24.32,7.79,7.79,0,0,1,2.9,1.16A6.19,6.19,0,0,1,255,489.8a8.65,8.65,0,0,1,.82,4v13.05a1.57,1.57,0,0,0,1.76,1.81,2.27,2.27,0,0,0,.95-.19V511c-.35.07-.66.11-.93.14a7.36,7.36,0,0,1-1,.05,4.52,4.52,0,0,1-1.84-.31,2.45,2.45,0,0,1-1.07-.88,3.35,3.35,0,0,1-.5-1.36,11.46,11.46,0,0,1-.12-1.73h-.09A21.39,21.39,0,0,1,251.3,509a8.47,8.47,0,0,1-1.86,1.54,8.64,8.64,0,0,1-2.34,1,12.84,12.84,0,0,1-3.11.33,12.29,12.29,0,0,1-3.22-.41,7,7,0,0,1-2.62-1.28,6.29,6.29,0,0,1-1.76-2.24,7.41,7.41,0,0,1-.64-3.21,6.38,6.38,0,0,1,1.14-4,7.19,7.19,0,0,1,3-2.21,17,17,0,0,1,4.24-1.07c1.57-.21,3.17-.41,4.79-.6a15,15,0,0,0,1.66-.24,2.75,2.75,0,0,0,1.19-.5,2.21,2.21,0,0,0,.74-1,4.16,4.16,0,0,0,.26-1.62,5.51,5.51,0,0,0-.49-2.5,4,4,0,0,0-1.39-1.55,5.68,5.68,0,0,0-2-.79,14.21,14.21,0,0,0-2.5-.21,7.55,7.55,0,0,0-4.67,1.36,5.31,5.31,0,0,0-1.91,4.35h-3A10.07,10.07,0,0,1,237.7,490.44Zm15,7.33a1.74,1.74,0,0,1-1.1.77,14.54,14.54,0,0,1-1.42.33c-1.27.22-2.58.42-3.93.59a21.93,21.93,0,0,0-3.69.79,7.14,7.14,0,0,0-2.74,1.5,3.55,3.55,0,0,0-1.07,2.78,4.4,4.4,0,0,0,.45,2,5,5,0,0,0,1.21,1.52,5.32,5.32,0,0,0,1.76,1,6.52,6.52,0,0,0,2.05.33,10.3,10.3,0,0,0,3.29-.52,8.21,8.21,0,0,0,2.74-1.52,7.32,7.32,0,0,0,2.54-5.67v-3.91Z"/><path class="cls-2" d="M276.84,490a6.51,6.51,0,0,0-4.66-1.57,7.58,7.58,0,0,0-3.76.9,8.28,8.28,0,0,0-2.7,2.39,11,11,0,0,0-1.62,3.35,13.89,13.89,0,0,0,0,7.67,11.14,11.14,0,0,0,1.62,3.36,8.25,8.25,0,0,0,2.7,2.38,7.58,7.58,0,0,0,3.76.9,6.66,6.66,0,0,0,2.62-.52,7.33,7.33,0,0,0,2.19-1.45,8,8,0,0,0,1.57-2.22,8.34,8.34,0,0,0,.76-2.81h3a11.32,11.32,0,0,1-3.29,7,9.58,9.58,0,0,1-6.85,2.5,11.57,11.57,0,0,1-5-1,10.73,10.73,0,0,1-3.64-2.79,12.07,12.07,0,0,1-2.24-4.12,17,17,0,0,1,0-10.05,12.17,12.17,0,0,1,2.24-4.12A10.91,10.91,0,0,1,267.2,487a11.29,11.29,0,0,1,5-1,10.69,10.69,0,0,1,6.69,2.1,9,9,0,0,1,3.26,6.33h-3A8.25,8.25,0,0,0,276.84,490Z"/><path class="cls-2" d="M296.27,486.63v2.52h-5v16.58a5.32,5.32,0,0,0,.41,2.3c.27.56.94.87,2,.93a22.13,22.13,0,0,0,2.57-.14v2.53c-.44,0-.89,0-1.33,0s-.89.05-1.34.05c-2,0-3.39-.39-4.19-1.17s-1.17-2.21-1.14-4.31V489.15H284v-2.52h4.28v-7.38h3v7.38Z"/><path class="cls-2" d="M314.42,486.63l7.71,21.57h.1l7.62-21.57h3.09l-9.19,24.57h-3.19l-9.48-24.57Z"/><path class="cls-2" d="M338.11,503.08a9.12,9.12,0,0,0,1.45,3.12,8.39,8.39,0,0,0,2.52,2.29,7.11,7.11,0,0,0,3.67.9,7.3,7.3,0,0,0,5.14-1.71,9,9,0,0,0,2.57-4.57h3a12,12,0,0,1-3.49,6.47c-1.71,1.53-4.11,2.29-7.22,2.29a11.44,11.44,0,0,1-5-1,9.23,9.23,0,0,1-3.46-2.82,12,12,0,0,1-2-4.14,18.75,18.75,0,0,1-.65-5,17.87,17.87,0,0,1,.65-4.77,12.58,12.58,0,0,1,2-4.16,9.87,9.87,0,0,1,3.46-3,10.66,10.66,0,0,1,5-1.12,9.73,9.73,0,0,1,8.45,4.32,12.93,12.93,0,0,1,1.88,4.42,19.69,19.69,0,0,1,.48,5.08H337.65A12.91,12.91,0,0,0,338.11,503.08ZM353,493.92a9.24,9.24,0,0,0-1.55-2.79,7.7,7.7,0,0,0-2.43-1.95,6.85,6.85,0,0,0-3.24-.74,7,7,0,0,0-3.29.74,7.55,7.55,0,0,0-2.42,1.95,9.79,9.79,0,0,0-1.6,2.81,13.73,13.73,0,0,0-.79,3.26h15.91A10.87,10.87,0,0,0,353,493.92Z"/><path class="cls-2" d="M363.56,477.2v13.67h.09a7.29,7.29,0,0,1,3.05-3.6,9,9,0,0,1,4.81-1.36,12.19,12.19,0,0,1,4.31.67,6.88,6.88,0,0,1,2.79,1.88,7,7,0,0,1,1.47,3,16.48,16.48,0,0,1,.43,3.95V511.2h-3V495.87a14.22,14.22,0,0,0-.28-2.93,6.21,6.21,0,0,0-1-2.36A4.74,4.74,0,0,0,374.3,489a7.12,7.12,0,0,0-3-.57,7.6,7.6,0,0,0-3.21.64,7,7,0,0,0-2.38,1.76,8.33,8.33,0,0,0-1.53,2.67,11,11,0,0,0-.59,3.36V511.2h-3v-34Z"/><path class="cls-2" d="M389.22,477.2V482h-3V477.2Zm0,9.43V511.2h-3V486.63Z"/><path class="cls-2" d="M410,490a6.55,6.55,0,0,0-4.67-1.57,7.58,7.58,0,0,0-3.76.9,8.25,8.25,0,0,0-2.69,2.39,10.53,10.53,0,0,0-1.62,3.35,13.65,13.65,0,0,0,0,7.67,10.69,10.69,0,0,0,1.62,3.36,8.22,8.22,0,0,0,2.69,2.38,7.58,7.58,0,0,0,3.76.9,6.66,6.66,0,0,0,2.62-.52,7.33,7.33,0,0,0,2.19-1.45,7.8,7.8,0,0,0,1.57-2.22,8.12,8.12,0,0,0,.76-2.81h3a11.32,11.32,0,0,1-3.29,7,9.58,9.58,0,0,1-6.85,2.5,11.57,11.57,0,0,1-5-1,10.73,10.73,0,0,1-3.64-2.79,12.07,12.07,0,0,1-2.24-4.12,17,17,0,0,1,0-10.05,12.17,12.17,0,0,1,2.24-4.12,10.91,10.91,0,0,1,3.64-2.81,11.29,11.29,0,0,1,5-1,10.69,10.69,0,0,1,6.69,2.1,9,9,0,0,1,3.26,6.33h-3A8.24,8.24,0,0,0,410,490Z"/><path class="cls-2" d="M422.75,477.2v34h-3v-34Z"/><path class="cls-2" d="M430.73,503.08a9.12,9.12,0,0,0,1.45,3.12,8.39,8.39,0,0,0,2.52,2.29,7.11,7.11,0,0,0,3.67.9,7.3,7.3,0,0,0,5.14-1.71,9,9,0,0,0,2.57-4.57h3a11.92,11.92,0,0,1-3.5,6.47q-2.55,2.3-7.21,2.29a11.52,11.52,0,0,1-5-1,9.28,9.28,0,0,1-3.45-2.82,12.21,12.21,0,0,1-2-4.14,18.75,18.75,0,0,1-.65-5,17.87,17.87,0,0,1,.65-4.77,12.78,12.78,0,0,1,2-4.16,9.93,9.93,0,0,1,3.45-3,10.73,10.73,0,0,1,5-1.12,9.73,9.73,0,0,1,8.45,4.32,12.93,12.93,0,0,1,1.88,4.42,19.69,19.69,0,0,1,.48,5.08H430.27A12.91,12.91,0,0,0,430.73,503.08Zm14.85-9.16a9,9,0,0,0-1.54-2.79,7.7,7.7,0,0,0-2.43-1.95,7.57,7.57,0,0,0-6.53,0,7.7,7.7,0,0,0-2.43,1.95,10,10,0,0,0-1.59,2.81,13.73,13.73,0,0,0-.79,3.26h15.91A10.58,10.58,0,0,0,445.58,493.92Z"/></g><path id="ecoCar" class="cls-3" d="M494.19,188.72c-6.74-42.3-13.35-68.49-26.73-78C433.74,84.92,268.31,94.75,268.31,94.75c-24,1-36.15,5.24-53.85,16.77a180.29,180.29,0,0,0-14.48,11c54.32-4.39,97.6-5.64,154.22-2.1,4.93.31,7.39,0,2.15,10.48s-22.81,42.84-22.81,42.84-4.46,4.69-15.1,4c-16-1-125.43,2.08-165.53-2.18-40.08,13.2-51.21,22.64-52.68,30.18,0,.11-3.28,9.14,10.32,13,9.31,2.63,95.52,3.67,95.52,3.67s27.62.45,41.94-3.37c17.89-4.76,47.61-11.72,53.36-13,11.22-2.5,15.56,4.36,11.74,15.42-5.44,15.79-8,18.11-30.58,19.16-104.78,4.9-192-4.84-191.56-8a15.15,15.15,0,0,0-7,8.8c-.89,3.32-.61,14.23,0,25.34,4.43,2.82,4.26,5.49,43.77,8,67.32,4.27,131.9,6.39,140.32,6.23,6.43-.12,12.29-.73,8.88,6.81S270.75,300.6,237.71,302s-98.58-4.31-117.83-6.11c-25.6-2.41-32.37-8.1-34.56-10.41.72,8.55.42,12.31,7.3,17.13,1.8,9.61,6.08,21.92,15.62,27.38,14.8,8.48,29.13,5.75,36.46,3.44,6.85-2.16,12.74-9,16.88-18.56,38.75,3.31,75.91,3.27,86.47,3.27,10.21,0,30.49.57,45-1,1.83,9.56,6.12,21.65,15.55,27.05,14.8,8.48,29.14,5.75,36.46,3.43,11.91-3.74,21-21.68,22.83-43.21l80.63-14c1.21,5.44,3.6,11.2,8.17,14.28,7,4.72,14.84,6.09,24.38,4a1.57,1.57,0,0,0,.81-.36c10.85-4.91,17.49-31.84,12.86-51.56C496.46,249.44,500.29,227,494.19,188.72Zm-134.94,110c-.52,17.6-7.63,31.67-15.91,31.43s-14.55-14.71-14-32.3,7.63-31.67,15.9-31.43S359.76,281.08,359.25,298.68Zm6-27.29c-6-22.34-16.32-27.54-36.24-25.48,15.49-22.28,37-8.52,36.5,16.77C365.41,265.6,365.32,268.52,365.21,271.39Zm55.71-84.74c-14.58.51-31.73,1.7-44.08,2.65,0-1.49-.07-3-.15-4.56,7.23-.75,21.07-2.23,26.86-3.24,8-1.38,6.48-8.63,4.78-21.38s-9.4-10.67-16.95-10.82-7.55,2.31-8.48,4.31-.77,14.95-1.69,16.34c-.65,1-3.8,1-5.63,1-1.12-10.59-2.77-21-4-28.21,3.55-6.39,6.2-10.93,6.2-10.93s4.93-11.71,15.72-12.95,16.64,0,16.64,0S422.77,163.23,420.92,186.65Zm20.24-1.85c.29-15.72-14.72-66.5-14.72-66.5,2,.68,23.43-3.52,36.21,7.28,10.16,8.59,15.3,48.17,15.3,57C472.07,184,466.34,183.13,441.16,184.8Zm49.15,91.34c-.94,11.64-5.94,20.73-11.16,20.31s-8.69-10.2-7.75-21.84,5.93-20.74,11.15-20.32S491.25,264.49,490.31,276.14Zm-3.93-33.61h0s-3.84-3.52-16.69-2c5.8-14.84,20.78-12.82,23.85,12.2C491.83,247.73,489.36,244.1,486.38,242.53Z"/></svg>