<svg id="OBJECTS" xmlns="http://www.w3.org/2000/svg" viewBox="0 0 200 200"><defs><style>.cls-1{font-size:20.2px;font-family:JosefinSans-Regular, JosefinSans Regular;letter-spacing:0.22em;}.cls-1,.cls-11,.cls-12,.cls-6{fill:#4c4d4e;}.cls-2{letter-spacing:0.3em;}.cls-3{fill:#c0d7dd;}.cls-4{fill:none;stroke:#4c4d4e;stroke-miterlimit:10;stroke-width:0.84px;}.cls-5{fill:#fddad3;}.cls-6{font-size:6.55px;font-family:JosefinSans-SemiBold, JosefinSans SemiBold;font-weight:600;letter-spacing:0.4em;}.cls-7{letter-spacing:0.41em;}.cls-8{letter-spacing:0.4em;}.cls-9{letter-spacing:0.35em;}.cls-10{letter-spacing:0.36em;}.cls-12{font-size:14.11px;font-family:JosefinSans-Light, JosefinSans Light;font-weight:300;letter-spacing:0.3em;}.cls-13{letter-spacing:0.27em;}</style></defs><g id="logo9"><text class="cls-1" transform="translate(42.46 121.87)">F<tspan class="cls-2" x="14.32" y="0">ASHION</tspan></text><g id="logobg"><path class="cls-3" d="M10.73,99.33a89.27,89.27,0,0,1,178.54,0"/><path class="cls-4" d="M187.88,116a89.28,89.28,0,0,1-176.09-2"/><path class="cls-5" d="M100,183.35a83.92,83.92,0,0,0,69.36-36.6H30.64A83.92,83.92,0,0,0,100,183.35Z"/><circle class="cls-4" cx="100" cy="99.33" r="84.02" transform="translate(-11.13 12.64) rotate(-6.85)"/><line class="cls-4" x1="30.63" y1="146.75" x2="169.21" y2="146.75"/></g><text id="Co.place" class="cls-6" transform="translate(75.9 165.66)">N<tspan class="cls-7" x="6.93" y="0">E</tspan><tspan class="cls-8" x="12.84" y="0">W</tspan><tspan class="cls-9" x="21.01" y="0"> </tspan><tspan class="cls-10" x="24.71" y="0">Y</tspan><tspan class="cls-8" x="30.65" y="0">ORK</tspan></text><path id="border" class="cls-11" d="M133.51,114.33a2,2,0,1,0-1.95,2A2,2,0,0,0,133.51,114.33Z"/><g id="Co.name"><text class="cls-12" transform="translate(70.49 138.22)">S<tspan class="cls-13" x="11.19" y="0">T</tspan><tspan x="22.06" y="0">ORE</tspan></text></g><g id="stock"><path class="cls-11" d="M71.06,81.62a.61.61,0,0,1-.52-.29.63.63,0,0,1,.18-.87c12.54-8.1,20-18.53,22-31a.63.63,0,0,1,1.24.21C91.86,62.5,84.25,73.22,71.4,81.52A.67.67,0,0,1,71.06,81.62Z"/><path class="cls-11" d="M57.34,82.52c-2.55,0-5.17-.09-7.86-.3A.62.62,0,1,1,49.57,81c26.59,2,46.2-6.52,58-14,13.53-8.6,24.13-20.82,27.65-31.91a.63.63,0,0,1,1.2.38C132.71,47,122.18,59.17,108.2,68.05A94.13,94.13,0,0,1,57.34,82.52Z"/><path class="cls-11" d="M78.35,75.54c6.86-9.72,1.84-19.47-2.59-16.12C72.83,61.64,75.25,72.52,78.35,75.54Z"/><path class="cls-11" d="M78.35,76.22a.71.71,0,0,1-.48-.19c-2.38-2.31-4.37-8.74-4.09-13.22.11-1.91.64-3.23,1.57-3.93a3.47,3.47,0,0,1,4.8.31c2.53,2.45,3.89,9.47-1.24,16.74a.67.67,0,0,1-.5.29Zm-.76-16.79a2.32,2.32,0,0,0-1.41.54,4,4,0,0,0-1,2.93c-.22,3.65,1.3,9.06,3.14,11.51,3.92-6.08,3.11-12.11.91-14.24A2.3,2.3,0,0,0,77.59,59.43Z"/><path class="cls-11" d="M90.35,64a13.67,13.67,0,0,1-1.65-.09.61.61,0,0,1-.49-.37.62.62,0,0,1,.06-.62c5.62-7.72,11-9.43,13.9-8.55a3.37,3.37,0,0,1,1.28,5.91C100.84,62.65,94.43,64,90.35,64ZM90,62.72c3.81.1,10.23-1.18,12.63-3.39a2.25,2.25,0,0,0,.88-1.69,2.19,2.19,0,0,0-1.68-2.09C99.23,54.76,94.64,56.71,90,62.72Z"/><path class="cls-11" d="M93.39,50.19A.61.61,0,0,1,93,50c-3-2.66-5-8.43-4.19-12.34a4,4,0,0,1,2.37-3.27.64.64,0,0,1,.8.38.62.62,0,0,1-.38.8A2.89,2.89,0,0,0,90,37.93c-.61,3.13.89,8.57,3.8,11.17a.62.62,0,0,1-.42,1.09Z"/><path class="cls-11" d="M102.92,85c-4.44,0-9.72-4.94-11.83-9.07a.62.62,0,0,1,0-.62.63.63,0,0,1,.54-.3c9.88.28,14.88,3.55,15.35,6.46.22,1.43-.64,2.63-2.31,3.23A5.12,5.12,0,0,1,102.92,85ZM92.75,76.32c2.51,4,8,8.49,11.53,7.21.63-.22,1.66-.77,1.49-1.85C105.47,79.81,101.66,76.8,92.75,76.32Z"/><path class="cls-11" d="M109.2,67.28l-.13,0a.62.62,0,0,1-.48-.49c-1-5.28-.85-12.29,1.6-14.89a3.15,3.15,0,0,1,2.8-1,3,3,0,0,1,2.54,1.78c1.4,3.27-2.39,9.63-5.82,14.4A.64.64,0,0,1,109.2,67.28Zm3.33-15.22a1.9,1.9,0,0,0-1.43.67c-1.88,2-2.23,7.55-1.53,12.32,3.85-5.6,5.64-10,4.8-11.94a1.79,1.79,0,0,0-1.55-1Z"/><path class="cls-11" d="M121.66,56.6c4.93-2.94,13.53-3.79,15.54-.17C138.51,58.79,134.45,62.48,121.66,56.6Z"/><path class="cls-11" d="M132.92,60.45c-2.47,0-6.14-.75-11.55-3.23a.68.68,0,0,1-.39-.59.66.66,0,0,1,.33-.62c3.82-2.28,9.44-3.26,13.08-2.28a5.22,5.22,0,0,1,3.4,2.36,2.42,2.42,0,0,1-.37,2.91C137,59.49,135.72,60.45,132.92,60.45Zm-9.7-3.91c8.22,3.52,12.15,2.66,13.19,1.53a1.06,1.06,0,0,0,.19-1.31A4,4,0,0,0,134,55.05C131.13,54.27,126.63,54.93,123.22,56.54Z"/><path class="cls-11" d="M93.39,50.19a.59.59,0,0,1-.36-.11.64.64,0,0,1-.15-.88c.14-.18.26-.37.38-.56a.64.64,0,0,1,.87-.18.63.63,0,0,1,.18.87l-.41.6A.62.62,0,0,1,93.39,50.19Z"/><path class="cls-11" d="M95.14,47a.59.59,0,0,1-.23,0,.64.64,0,0,1-.36-.81A13.79,13.79,0,0,0,95,44.82a.63.63,0,1,1,1.21.32,13.11,13.11,0,0,1-.48,1.46A.62.62,0,0,1,95.14,47ZM96,42.7h0a.62.62,0,0,1-.62-.64v-.14a10.19,10.19,0,0,0-.07-1.24.63.63,0,0,1,.55-.7.63.63,0,0,1,.69.55,10.8,10.8,0,0,1,.08,1.39v.16A.62.62,0,0,1,96,42.7Zm-.84-4.3a.64.64,0,0,1-.58-.36,6.25,6.25,0,0,0-.66-1.17.62.62,0,0,1,.14-.87.61.61,0,0,1,.87.14,7.68,7.68,0,0,1,.8,1.38.63.63,0,0,1-.32.83A.56.56,0,0,1,95.16,38.4Z"/><path class="cls-11" d="M91.36,35.64a.63.63,0,0,1-.21-1.22,2.44,2.44,0,0,1,.93-.13.63.63,0,0,1,.6.65.64.64,0,0,1-.66.6,1.17,1.17,0,0,0-.45.06A.52.52,0,0,1,91.36,35.64Z"/></g></g></svg>