<svg width="80" height="80" viewBox="0 0 80 80" fill="none" xmlns="http://www.w3.org/2000/svg">
<circle cx="40" cy="40" r="39" stroke="#F3ECE5" stroke-width="2"/>
<path d="M54.176 29.346L50.6541 25.824C49.5555 24.7253 47.7737 24.7253 46.6751 25.824L43.3617 29.1374L50.8627 36.6386L54.176 33.3251C55.2747 32.2265 55.2747 30.4452 54.176 29.346ZM39.7155 28.1431C38.8003 27.2279 37.3167 27.2279 36.4015 28.1431L29.4419 35.1034C29.0757 35.4696 29.0757 36.0632 29.4419 36.4288L30.7679 37.7548C31.1341 38.121 31.7276 38.121 32.0938 37.7548L38.0597 31.7888L39.3856 33.1142L30.5054 41.994C27.4295 45.07 25.4917 49.1011 25.0106 53.4245L25.0088 53.4379C24.9092 54.3333 25.6657 55.0903 26.5609 54.9913C30.8898 54.5133 34.9267 52.5747 38.0064 49.4952L49.5367 37.9646L44.687 33.1148L39.7155 28.1431Z" fill="#D5A178"/>
</svg>
