<svg width="80" height="80" viewBox="0 0 80 80" fill="white" xmlns="http://www.w3.org/2000/svg">
<circle cx="40" cy="40" r="39" stroke="#7DE290" stroke-width="2"/>
<path fill-rule="evenodd" clip-rule="evenodd" d="M32.2854 25H42.9993L53.7129 35.7139V39.999H51.5701V35.7139H46.2134C45.3608 35.7139 44.5432 35.375 43.9407 34.7725C43.3379 34.1699 42.9993 33.3516 42.9993 32.5V27.1426H32.2854C31.7173 27.1426 31.1721 27.3682 30.7703 27.7705C30.3684 28.1719 30.1428 28.7168 30.1428 29.2852V50.7129C30.1428 51.2812 30.3684 51.8262 30.7703 52.2275C31.1721 52.6299 31.7173 52.8555 32.2854 52.8555H42.9993V54.998H32.2854C31.7432 54.998 31.2114 54.8955 30.7163 54.7012C30.1738 54.4873 29.6753 54.1631 29.2551 53.7432C28.4514 52.9395 28 51.8496 28 50.7129V29.2852C28 28.1484 28.4514 27.0586 29.2551 26.2549C30.0588 25.4512 31.1489 25 32.2854 25ZM55.9719 41.3848L57.6155 43.0283C58.1282 43.541 58.1282 44.3721 57.6155 44.8848L56.0693 46.4316L52.5688 42.9307L54.115 41.3848C54.6277 40.8721 55.4592 40.8721 55.9719 41.3848ZM49.3208 42.4668C49.7478 42.04 50.4402 42.04 50.8672 42.4668L53.1873 44.7871L55.4504 47.0498L50.0696 52.4307C48.6326 53.8682 46.7485 54.7725 44.7285 54.9961C44.3105 55.042 43.9578 54.6885 44.0042 54.2715C44.2295 52.2471 45.1338 50.3662 46.5691 48.9307L50.7134 44.7861L50.0945 44.168L47.3105 46.9521C47.1396 47.123 46.8625 47.123 46.6917 46.9521L46.073 46.333C45.9021 46.1631 45.9021 45.8857 46.073 45.7148L49.3208 42.4668Z" fill="#D5A178"/>
</svg>
