<svg width="80" height="80" viewBox="0 0 80 80" fill="white" xmlns="http://www.w3.org/2000/svg">
<circle cx="40" cy="40" r="39" stroke="#7DE290" stroke-width="2"/>
<path fill-rule="evenodd" clip-rule="evenodd" d="M41.75 26.7171L46.2375 23.6486L48 24.8571L40.5 30L33 24.8571L34.7625 23.6486L39.25 26.7171V18H41.75V26.7171ZM54.2417 35.8297L40.6508 32.207H40.0115L26.4443 35.8297L25 36.9425V52.9012L25.8524 54.0377L40.3904 58.0392L54.9047 54.0377L55.7808 52.9012V36.9425L54.2417 35.8297ZM30.9667 36.9425L40.4377 34.5748L49.743 36.9425L47.4936 37.6292L40.3904 39.5471L32.269 37.4161L30.9667 36.9425ZM39.2065 55.2453L27.3678 52.0014V38.5053L39.2065 41.678V55.2453ZM41.5743 55.2453V41.678L46.2624 40.3924V46.4372L48.6302 45.8216V39.7436L53.413 38.4342V52.0014L41.5743 55.2453Z" fill="#D5A178"/>
</svg>
