<svg width="80" height="80" viewBox="0 0 80 80" fill="none" xmlns="http://www.w3.org/2000/svg">
<circle cx="40" cy="40" r="39" stroke="#F3ECE5" stroke-width="2"/>
<path d="M39.9992 25H29.2855C28.1489 25 27.0589 25.4515 26.2552 26.2552C25.4515 27.0589 25 28.1489 25 29.2855V50.7129C25 51.8494 25.4515 52.9395 26.2552 53.7431C27.0589 54.5468 28.1489 54.9983 29.2855 54.9983H39.9992V52.8556H29.2855C28.7172 52.8556 28.1722 52.6298 27.7703 52.228C27.3685 51.8262 27.1427 51.2811 27.1427 50.7129V29.2855C27.1427 28.7172 27.3685 28.1722 27.7703 27.7703C28.1722 27.3685 28.7172 27.1427 29.2855 27.1427H39.9992V32.4996C39.9992 33.352 40.3378 34.1695 40.9406 34.7723C41.5433 35.3751 42.3608 35.7137 43.2133 35.7137H48.5701V39.9992H50.7129V35.7137L39.9992 25Z" fill="#D5A178"/>
<path fill-rule="evenodd" clip-rule="evenodd" d="M54.6855 44.596C54.7853 44.6955 54.8644 44.8138 54.9184 44.9439C54.9724 45.0741 55.0002 45.2136 55.0002 45.3545C55.0002 45.4955 54.9724 45.635 54.9184 45.7652C54.8644 45.8953 54.7853 46.0135 54.6855 46.1131L48.2573 52.5413C48.1578 52.641 48.0395 52.7202 47.9094 52.7742C47.7792 52.8282 47.6397 52.856 47.4987 52.856C47.3578 52.856 47.2183 52.8282 47.0881 52.7742C46.958 52.7202 46.8397 52.641 46.7402 52.5413L43.5261 49.3272C43.4265 49.2276 43.3475 49.1093 43.2936 48.9792C43.2397 48.849 43.2119 48.7095 43.2119 48.5686C43.2119 48.4278 43.2397 48.2883 43.2936 48.1581C43.3475 48.028 43.4265 47.9097 43.5261 47.8101C43.6257 47.7105 43.744 47.6315 43.8741 47.5776C44.0043 47.5237 44.1438 47.4959 44.2846 47.4959C44.4255 47.4959 44.565 47.5237 44.6951 47.5776C44.8253 47.6315 44.9436 47.7105 45.0432 47.8101L47.4987 50.2678L53.1684 44.596C53.2679 44.4962 53.3862 44.4171 53.5163 44.3631C53.6465 44.3091 53.786 44.2812 53.927 44.2812C54.0679 44.2812 54.2074 44.3091 54.3376 44.3631C54.4677 44.4171 54.586 44.4962 54.6855 44.596Z" fill="#D5A178"/>
</svg>
