<svg width="80" height="80" viewBox="0 0 80 80" fill="none" xmlns="http://www.w3.org/2000/svg">
<circle cx="40" cy="40" r="39" stroke="#F3ECE5" stroke-width="2"/>
<path fill-rule="evenodd" clip-rule="evenodd" d="M26.318 26.1982C25.4741 26.9654 25 28.0059 25 29.0909V50.9091C25 51.9941 25.4741 53.0346 26.318 53.8018C27.1619 54.569 28.3065 55 29.5 55H50.5C51.6935 55 52.8381 54.569 53.682 53.8018C54.5259 53.0346 55 51.9941 55 50.9091V29.0909C55 28.0059 54.5259 26.9654 53.682 26.1982C52.8381 25.431 51.6935 25 50.5 25H29.5C28.3065 25 27.1619 25.431 26.318 26.1982ZM50.5 27.7273H29.5C29.1022 27.7273 28.7206 27.8709 28.4393 28.1267C28.158 28.3824 28 28.7293 28 29.0909V50.9091C28 51.2708 28.158 51.6176 28.4393 51.8733C28.7206 52.1291 29.1022 52.2727 29.5 52.2727H50.5C50.8978 52.2727 51.2794 52.1291 51.5607 51.8733C51.842 51.6176 52 51.2708 52 50.9091V29.0909C52 28.7293 51.842 28.3824 51.5607 28.1267C51.2794 27.8709 50.8978 27.7273 50.5 27.7273ZM30 32.5C30 32.1022 30.2458 31.7206 30.6834 31.4393C31.121 31.158 31.7145 31 32.3333 31H41.6667C42.2855 31 42.879 31.158 43.3166 31.4393C43.7542 31.7206 44 32.1022 44 32.5C44 32.8978 43.7542 33.2794 43.3166 33.5607C42.879 33.842 42.2855 34 41.6667 34H32.3333C31.7145 34 31.121 33.842 30.6834 33.5607C30.2458 33.2794 30 32.8978 30 32.5ZM30.6834 36.4393C30.2458 36.7206 30 37.1022 30 37.5C30 37.8978 30.2458 38.2794 30.6834 38.5607C31.121 38.842 31.7145 39 32.3333 39H41.6667C42.2855 39 42.879 38.842 43.3166 38.5607C43.7542 38.2794 44 37.8978 44 37.5C44 37.1022 43.7542 36.7206 43.3166 36.4393C42.879 36.158 42.2855 36 41.6667 36H32.3333C31.7145 36 31.121 36.158 30.6834 36.4393ZM30 42.5C30 42.1022 30.3336 41.7206 30.9275 41.4393C31.5214 41.158 32.3268 41 33.1667 41H45.8333C46.6732 41 47.4786 41.158 48.0725 41.4393C48.6664 41.7206 49 42.1022 49 42.5C49 42.8978 48.6664 43.2794 48.0725 43.5607C47.4786 43.842 46.6732 44 45.8333 44H33.1667C32.3268 44 31.5214 43.842 30.9275 43.5607C30.3336 43.2794 30 42.8978 30 42.5ZM30 47.5C30 47.1022 30.3336 46.7206 30.9275 46.4393C31.5214 46.158 32.3268 46 33.1667 46H45.8333C46.6732 46 47.4786 46.158 48.0725 46.4393C48.6664 46.7206 49 47.1022 49 47.5C49 47.8978 48.6664 48.2794 48.0725 48.5607C47.4786 48.842 46.6732 49 45.8333 49H33.1667C32.3268 49 31.5214 48.842 30.9275 48.5607C30.3336 48.2794 30 47.8978 30 47.5Z" fill="#FAD06A"/>
</svg>
