<svg width="80" height="80" viewBox="0 0 80 80" fill="none" xmlns="http://www.w3.org/2000/svg">
<circle cx="40" cy="40" r="39" stroke="#F3ECE5" stroke-width="2"/>
<path fill-rule="evenodd" clip-rule="evenodd" d="M40.0949 30.2916C42.4027 29.489 44.776 28.6636 47.8331 28.5795C48.2868 28.5669 48.7409 28.5708 49.1943 28.5909C51.2619 28.6825 53.3033 29.0895 55.248 29.7977L56 30.072V49.6023L54.4754 49.0629C52.7424 48.442 50.9276 48.0785 49.0891 47.984C45.6245 47.8208 43.0847 48.6997 40.3933 49.6311L40.384 49.6343L40.3559 49.644C37.8081 50.5233 35.1782 51.4309 31.7474 51.4309C31.4389 51.4309 31.1246 51.4229 30.8034 51.408C28.7806 51.312 26.7486 50.9063 24.7611 50.2035L24 49.9326V30.4103L25.5154 30.9337C27.6491 31.672 29.8206 32.0469 31.9886 32.0126C35.2331 31.9795 37.5749 31.1669 40.056 30.3052L40.0949 30.2916ZM49.0937 30.8537C48.6811 30.8377 48.2834 30.8377 47.8949 30.8492C45.1829 30.9337 43.0469 31.6675 40.8057 32.448L40.7966 32.4512C38.2543 33.3348 35.6265 34.2481 32.0137 34.2846C31.2331 34.2972 30.4503 34.2503 29.6674 34.1692C29.6069 34.5487 29.4701 34.9121 29.2654 35.2374C29.0608 35.5627 28.7924 35.8432 28.4764 36.0621C28.1605 36.281 27.8036 36.4337 27.4271 36.511C27.0506 36.5883 26.6623 36.5887 26.2857 36.512V46.9143C27.0073 46.768 27.7576 46.9065 28.3794 47.3008C29.0012 47.6951 29.4464 48.3146 29.6217 49.0297C30.0507 49.0833 30.4814 49.1215 30.9131 49.144C34.3794 49.3086 36.936 48.4252 39.6343 47.4903C42.416 46.5257 45.2937 45.544 49.1966 45.7155C49.5767 45.7329 49.9563 45.7611 50.3349 45.8C50.3992 45.4234 50.5385 45.0636 50.7446 44.7419C50.9506 44.4201 51.2193 44.1431 51.5345 43.9273C51.8497 43.7114 52.2051 43.5611 52.5796 43.4852C52.954 43.4094 53.3399 43.4096 53.7143 43.4857V33.0835C52.9912 33.2305 52.2393 33.0916 51.6166 32.6958C50.9938 32.3 50.5487 31.6783 50.3749 30.9612C49.9486 30.9109 49.5211 30.872 49.0937 30.8537ZM47.3592 37.0724C47.6807 36.7509 48.1168 36.5703 48.5714 36.5703C49.0261 36.5703 49.4621 36.7509 49.7836 37.0724C50.1051 37.3939 50.2857 37.8299 50.2857 38.2846C50.2857 38.7393 50.1051 39.1753 49.7836 39.4968C49.4621 39.8183 49.0261 39.9989 48.5714 39.9989C48.1168 39.9989 47.6807 39.8183 47.3592 39.4968C47.0378 39.1753 46.8571 38.7393 46.8571 38.2846C46.8571 37.8299 47.0378 37.3939 47.3592 37.0724ZM30.2164 40.501C30.5379 40.1795 30.9739 39.9989 31.4286 39.9989C31.8832 39.9989 32.3193 40.1795 32.6408 40.501C32.9622 40.8225 33.1429 41.2585 33.1429 41.7132C33.1429 42.1678 32.9622 42.6039 32.6408 42.9254C32.3193 43.2468 31.8832 43.4275 31.4286 43.4275C30.9739 43.4275 30.5379 43.2468 30.2164 42.9254C29.8949 42.6039 29.7143 42.1678 29.7143 41.7132C29.7143 41.2585 29.8949 40.8225 30.2164 40.501ZM37.9635 37.5723C37.9635 38.1151 38.3733 38.4637 39.6475 38.8008C40.9217 39.138 42.2857 39.6923 42.2857 41.3151C42.2857 42.4866 41.4157 43.1323 40.3211 43.3437V44.5723H38.6371V43.3323C37.5594 43.098 36.6388 42.3951 36.5714 41.1437H37.8063C37.8681 41.818 38.3228 42.3437 39.4791 42.3437C40.7196 42.3437 40.9947 41.7151 40.9947 41.3208C40.9947 40.7894 40.714 40.2866 39.3107 39.9437C37.7446 39.5608 36.6725 38.9037 36.6725 37.5837C36.6725 36.4808 37.5481 35.7608 38.6371 35.5208V34.2866H40.3211V35.538C41.4942 35.8294 42.0836 36.7323 42.1229 37.7151H40.8824C40.8487 37.0008 40.4782 36.5151 39.4791 36.5151C38.5305 36.5151 37.9635 36.9494 37.9635 37.5723Z" fill="#D5A178"/>
</svg>
