<svg width="150" height="150" viewBox="0 0 150 150" fill="none" xmlns="http://www.w3.org/2000/svg">
<g id="logoLogo">
<path id="standard" d="M72 3C73.6569 1.34315 76.3431 1.34315 78 3L147 72C148.657 73.6569 148.657 76.3432 147 78L78 147C76.3431 148.657 73.6568 148.657 72 147L3 78C1.34314 76.3431 1.34314 73.6569 2.99999 72L72 3Z" fill="#7DE290"/>
<circle id="modi" cx="75" cy="75" r="40" fill="#FF8425"/>
<path id="unique" d="M71.4205 28.4257C73.0535 25.5973 77.136 25.5973 78.769 28.4257L117.348 95.2473C118.981 98.0758 116.94 101.611 113.674 101.611H36.5153C33.2493 101.611 31.2081 98.0757 32.841 95.2473L71.4205 28.4257Z" fill="#FFCD00"/>
</g>
</svg>
