<svg width="80" height="80" viewBox="0 0 80 80" fill="none" xmlns="http://www.w3.org/2000/svg">
<g id="shopFlowIconOdrPay">
<circle id="Ellipse 3" cx="40" cy="40" r="39" stroke="#F3ECE5" stroke-width="2"/>
<g id="orderCont">
<path id="Vector" d="M30 47.5C30 47.1022 30.1229 46.7206 30.3417 46.4393C30.5605 46.158 30.8572 46 31.1667 46H35.8333C36.1428 46 36.4395 46.158 36.6583 46.4393C36.8771 46.7206 37 47.1022 37 47.5C37 47.8978 36.8771 48.2794 36.6583 48.5607C36.4395 48.842 36.1428 49 35.8333 49H31.1667C30.8572 49 30.5605 48.842 30.3417 48.5607C30.1229 48.2794 30 47.8978 30 47.5Z" fill="#D5A178"/>
<path id="Vector_2" d="M30 42.5C30 42.1022 30.1229 41.7206 30.3417 41.4393C30.5605 41.158 30.8572 41 31.1667 41H35.8333C36.1428 41 36.4395 41.158 36.6583 41.4393C36.8771 41.7206 37 42.1022 37 42.5C37 42.8978 36.8771 43.2794 36.6583 43.5607C36.4395 43.842 36.1428 44 35.8333 44H31.1667C30.8572 44 30.5605 43.842 30.3417 43.5607C30.1229 43.2794 30 42.8978 30 42.5Z" fill="#D5A178"/>
<path id="Vector_3" d="M30 37.5C30 37.1022 30.1229 36.7206 30.3417 36.4393C30.5605 36.158 30.8572 36 31.1667 36H35.8333C36.1428 36 36.4395 36.158 36.6583 36.4393C36.8771 36.7206 37 37.1022 37 37.5C37 37.8978 36.8771 38.2794 36.6583 38.5607C36.4395 38.842 36.1428 39 35.8333 39H31.1667C30.8572 39 30.5605 38.842 30.3417 38.5607C30.1229 38.2794 30 37.8978 30 37.5Z" fill="#D5A178"/>
<path id="Vector_4" d="M30 32.5C30 32.1022 30.1229 31.7206 30.3417 31.4393C30.5605 31.158 30.8572 31 31.1667 31H35.8333C36.1428 31 36.4395 31.158 36.6583 31.4393C36.8771 31.7206 37 32.1022 37 32.5C37 32.8978 36.8771 33.2794 36.6583 33.5607C36.4395 33.842 36.1428 34 35.8333 34H31.1667C30.8572 34 30.5605 33.842 30.3417 33.5607C30.1229 33.2794 30 32.8978 30 32.5Z" fill="#D5A178"/>
</g>
<path id="paper" fill-rule="evenodd" clip-rule="evenodd" d="M25 29.0909C25 28.0059 25.4741 26.9654 26.318 26.1982C27.1619 25.431 28.3065 25 29.5 25H50.5C51.6935 25 52.8381 25.431 53.682 26.1982C54.5259 26.9654 55 28.0059 55 29.0909V50.9091C55 51.9941 54.5259 53.0346 53.682 53.8018C52.8381 54.569 51.6935 55 50.5 55H29.5C28.3065 55 27.1619 54.569 26.318 53.8018C25.4741 53.0346 25 51.9941 25 50.9091V29.0909ZM29.5 27.7273H50.5C50.8978 27.7273 51.2794 27.8709 51.5607 28.1267C51.842 28.3824 52 28.7293 52 29.0909V50.9091C52 51.2708 51.842 51.6176 51.5607 51.8733C51.2794 52.1291 50.8978 52.2727 50.5 52.2727H29.5C29.1022 52.2727 28.7206 52.1291 28.4393 51.8733C28.158 51.6176 28 51.2708 28 50.9091V29.0909C28 28.7293 28.158 28.3824 28.4393 28.1267C28.7206 27.8709 29.1022 27.7273 29.5 27.7273Z" fill="#D5A178"/>
<g id="money">
<path id="Vector_5" fill-rule="evenodd" clip-rule="evenodd" d="M44 47V50H46V47H47C48.0609 47 49.0783 46.5786 49.8284 45.8284C50.5786 45.0783 51 44.0609 51 43C51 41.9391 50.5786 40.9217 49.8284 40.1716C49.0783 39.4214 48.0609 39 47 39H46V35H48V37H50V33H46V30H44V33H43C41.9391 33 40.9217 33.4214 40.1716 34.1716C39.4214 34.9217 39 35.9391 39 37C39 38.0609 39.4214 39.0783 40.1716 39.8284C40.9217 40.5786 41.9391 41 43 41H44V45H42V43H40V47H44ZM46 45H47C47.5304 45 48.0391 44.7893 48.4142 44.4142C48.7893 44.0391 49 43.5304 49 43C49 42.4696 48.7893 41.9609 48.4142 41.5858C48.0391 41.2107 47.5304 41 47 41H46V45ZM44 39V35H43C42.4696 35 41.9609 35.2107 41.5858 35.5858C41.2107 35.9609 41 36.4696 41 37C41 37.5304 41.2107 38.0391 41.5858 38.4142C41.9609 38.7893 42.4696 39 43 39H44Z" fill="#D5A178"/>
</g>
</g>
</svg>
