<svg width="80" height="80" viewBox="0 0 80 80" fill="none" xmlns="http://www.w3.org/2000/svg">
<g id="shopFlowIconSpBag">
<circle id="Ellipse 1" cx="40" cy="40" r="39" stroke="#F3ECE5" stroke-width="2"/>
<circle id="goods" cx="39.5" cy="44.5" r="5.5" fill="#FF7870"/>
<g id="shopBag">
<path id="Vector" d="M50.1889 30.5576V28.106C50.1889 22.6021 44.8444 19 39.5 19C34.1556 19 28.8111 22.5463 28.8111 28.0502V30.5576H21V50.7615C21 54.207 23.0534 57 27.1079 57H51.8921C55.9466 57 58 54.207 58 50.7615V30.5576H54.0944H50.1889ZM32.1 28.0502C32.1 24.5479 35.8 21.4516 39.5 21.4516C43.2 21.4516 46.9 24.6037 46.9 28.106V30.5576H32.1V28.0502ZM48.5444 36.8618C47.7222 36.8618 46.9 36.1613 46.9 35.4608C46.9 34.7604 47.7222 34.0599 48.5444 34.0599C49.3667 34.0599 50.1889 34.7604 50.1889 35.4608C50.1889 36.1613 49.3667 36.8618 48.5444 36.8618ZM30.4556 36.8618C29.6333 36.8618 28.8111 36.2051 28.8111 35.4608C28.8111 34.7604 29.6333 34.0599 30.4556 34.0599C31.2778 34.0599 32.1 34.7604 32.1 35.4608C32.1 36.1613 31.2778 36.8618 30.4556 36.8618Z" fill="#D5A178"/>
</g>
</g>
</svg>
