<svg width="80" height="80" viewBox="0 0 80 80" fill="none" xmlns="http://www.w3.org/2000/svg">
<g id="status=user, size=Default">
<circle id="Ellipse 53" cx="40" cy="40" r="39" stroke="#F3ECE5" stroke-width="2"/>
<g id="headerIcon/userHover">
<path id="man" d="M47.7426 38.1502C49.5652 36.4969 50.8424 34.3341 51.4067 31.9459C51.971 29.5576 51.7959 27.0555 50.9044 24.7679C50.0129 22.4804 48.4467 20.5145 46.4114 19.1282C44.3761 17.7419 41.9669 17 39.5 17C37.0331 17 34.6239 17.7419 32.5886 19.1282C30.5533 20.5145 28.9871 22.4804 28.0956 24.7679C27.2041 27.0555 27.029 29.5576 27.5933 31.9459C28.1576 34.3341 29.4348 36.4969 31.2574 38.1502C26.3236 40.3611 23 44.4891 23 49.2194C23 56.2781 30.3859 62 39.5 62C48.6141 62 56 56.2781 56 49.2194C56 44.4891 52.6764 40.3611 47.7426 38.1502ZM45.0542 31.9362C43.5809 33.3895 41.5899 34.2049 39.5148 34.2049C37.4397 34.2049 35.4486 33.3895 33.9754 31.9362C33.8231 31.7681 33.7416 31.5482 33.7479 31.322C33.7542 31.0958 33.8477 30.8807 34.009 30.7211C34.1704 30.5616 34.3872 30.4699 34.6147 30.465C34.8422 30.4601 35.0628 30.5424 35.231 30.6949C36.3719 31.827 37.9178 32.4628 39.5295 32.4628C41.1413 32.4628 42.6872 31.827 43.8281 30.6949C43.9963 30.5424 44.2169 30.4601 44.4444 30.465C44.6718 30.4699 44.8887 30.5616 45.0501 30.7211C45.2114 30.8807 45.3049 31.0958 45.3112 31.322C45.3174 31.5482 45.236 31.7681 45.0837 31.9362H45.0542Z" fill="#FAD06A"/>
</g>
</g>
</svg>
