<svg width="26" height="34" viewBox="0 0 26 34" fill="none" xmlns="http://www.w3.org/2000/svg">
<path d="M22.934 33.2513L22.934 33.2514L22.9398 33.2549C23.1994 33.4118 23.4971 33.496 23.8005 33.4999C24.104 33.5037 24.4037 33.4271 24.6673 33.2771C24.931 33.1269 25.1493 32.9084 25.2966 32.6435C25.4416 32.3828 25.5117 32.0878 25.4984 31.79V2.20064C25.5065 1.75599 25.3331 1.32926 25.0208 1.0122C24.7077 0.694277 24.2807 0.512079 23.8342 0.500178L23.8342 0.5H23.8209H2.17914V0.499822L2.16582 0.500178C1.71929 0.512079 1.29231 0.694278 0.979202 1.0122C0.666938 1.32926 0.49346 1.75598 0.501591 2.20063V31.7899C0.488307 32.0877 0.558426 32.3827 0.703428 32.6435C0.85072 32.9084 1.06903 33.1269 1.3327 33.2771C1.59626 33.4271 1.89598 33.5037 2.19946 33.4999C2.50293 33.496 2.80059 33.4118 3.06015 33.2549L3.06018 33.255L3.066 33.2513L12.6462 27.2812L12.6463 27.2813L12.6559 27.275C12.756 27.2094 12.8759 27.1734 13 27.1734C13.1241 27.1734 13.244 27.2094 13.3441 27.275L13.344 27.2752L13.3538 27.2812L22.934 33.2513Z" fill="#FF7870" stroke="#FF7870"/>
</svg>
