<svg width="24" height="32" viewBox="0 0 24 32" fill="none" xmlns="http://www.w3.org/2000/svg">
<path d="M0.500869 30.829L0.501591 30.8156V30.8021V1.19565H0.501711L0.50147 1.18468C0.497702 1.01293 0.564105 0.843428 0.69168 0.713893C0.818522 0.585101 0.995836 0.506558 1.18665 0.5H22.8134C23.0042 0.506558 23.1815 0.585102 23.3083 0.713892C23.4359 0.843429 23.5023 1.01293 23.4985 1.18468L23.4984 1.18468V1.19565V30.8021V30.8156L23.4991 30.829C23.5052 30.9422 23.4792 31.0557 23.4226 31.1576C23.3659 31.2596 23.28 31.3468 23.1725 31.408C23.0649 31.4693 22.9405 31.5016 22.8133 31.4999C22.6871 31.4983 22.5648 31.4635 22.4596 31.4006L12.887 25.4353C12.6234 25.2639 12.3146 25.1734 12 25.1734C11.6854 25.1734 11.3766 25.2639 11.113 25.4353L1.54038 31.4006C1.43521 31.4635 1.31292 31.4983 1.1867 31.4999C1.05945 31.5016 0.935137 31.4693 0.827491 31.408L0.6078 31.7939L0.827487 31.408C0.719956 31.3468 0.634117 31.2596 0.577409 31.1576C0.520792 31.0557 0.494778 30.9422 0.500869 30.829Z" stroke="black"/>
</svg>
