<svg width="18" height="23" viewBox="0 0 18 23" fill="none" xmlns="http://www.w3.org/2000/svg">
<path d="M14.2 6.99539V5.51152C14.2 2.18021 11.6 0 9 0C6.4 0 3.8 2.14643 3.8 5.47774V6.99539H0V19.2241C0 21.3095 0.998973 23 2.97143 23H15.0286C17.001 23 18 21.3095 18 19.2241V6.99539H16.1H14.2ZM5.4 5.47774C5.4 3.35792 7.2 1.48387 9 1.48387C10.8 1.48387 12.6 3.39171 12.6 5.51152V6.99539H5.4V5.47774ZM13.4 10.8111C13 10.8111 12.6 10.3871 12.6 9.96313C12.6 9.53917 13 9.11521 13.4 9.11521C13.8 9.11521 14.2 9.53917 14.2 9.96313C14.2 10.3871 13.8 10.8111 13.4 10.8111ZM4.6 10.8111C4.2 10.8111 3.8 10.4136 3.8 9.96313C3.8 9.53917 4.2 9.11521 4.6 9.11521C5 9.11521 5.4 9.53917 5.4 9.96313C5.4 10.3871 5 10.8111 4.6 10.8111Z" fill="white"/>
</svg>
