<svg width="20" height="21" viewBox="0 0 20 21" fill="none" xmlns="http://www.w3.org/2000/svg">
<path fill-rule="evenodd" clip-rule="evenodd" d="M10 20C15.5228 20 20 15.5228 20 10C20 4.47715 15.5228 0 10 0C4.47715 0 0 4.47715 0 10C0 15.5228 4.47715 20 10 20Z" fill="#D8D8D8"/>
<path d="M10.061 12.1667C10.061 10.5 11.3744 10.2211 11.8266 9.76996C12.2803 9.31738 12.561 8.69147 12.561 8C12.561 6.61929 11.4418 5.5 10.061 5.5C9.31445 5.5 8.64429 5.82727 8.1862 6.34618C7.97439 6.58612 7.80792 6.86703 7.7002 7.17551" stroke="white" stroke-linecap="round"/>
<path fill-rule="evenodd" clip-rule="evenodd" d="M10.0609 15.4999C10.5211 15.4999 10.8942 15.1268 10.8942 14.6666C10.8942 14.2063 10.5211 13.8333 10.0609 13.8333C9.60064 13.8333 9.22754 14.2063 9.22754 14.6666C9.22754 15.1268 9.60064 15.4999 10.0609 15.4999Z" fill="white"/>
</svg>
