<svg width="20" height="23" viewBox="0 0 20 23" fill="none" xmlns="http://www.w3.org/2000/svg">
<g clip-path="url(#clip0)">
<path d="M9.9774 22.9797C11.5506 22.9797 12.8267 21.5691 12.8267 19.8285H7.12806C7.12806 21.5691 8.40419 22.9797 9.9774 22.9797ZM19.5713 15.8295C18.7107 14.8073 17.1005 13.2696 17.1005 8.23265C17.1005 -3.14258 2.85427 -2.2332 2.85427 8.23265C2.85427 13.2696 1.24408 14.8073 0.383536 15.8295C0.116285 16.1471 -0.0021963 16.5267 3.07957e-05 16.8984C0.0049304 17.7059 0.578184 18.474 1.42982 18.474H18.525C19.3766 18.474 19.9503 17.7059 19.9548 16.8984C19.957 16.5267 19.8385 16.1466 19.5713 15.8295Z" fill="white"/>
</g>
<defs>
<clipPath id="clip0">
<rect width="20" height="23" fill="white"/>
</clipPath>
</defs>
</svg>
