<svg width="17" height="23" viewBox="0 0 17 23" fill="none" xmlns="http://www.w3.org/2000/svg">
<path d="M12.5875 10.8101C13.5147 9.96508 14.1645 8.85967 14.4515 7.639C14.7386 6.41832 14.6495 5.13945 14.196 3.97028C13.7425 2.80111 12.9457 1.79628 11.9103 1.08772C10.8748 0.379168 9.64916 0 8.39416 0C7.13916 0 5.91349 0.379168 4.87806 1.08772C3.84264 1.79628 3.04585 2.80111 2.59232 3.97028C2.13879 5.13945 2.04971 6.41832 2.33677 7.639C2.62384 8.85967 3.27363 9.96508 4.20084 10.8101C1.69086 11.9401 0 14.05 0 16.4677C0 20.0755 3.75746 23 8.39416 23C13.0309 23 16.7883 20.0755 16.7883 16.4677C16.7883 14.05 15.0975 11.9401 12.5875 10.8101Z" fill="white"/>
</svg>
