<svg width="37" height="50" viewBox="0 0 37 50" fill="none" xmlns="http://www.w3.org/2000/svg">
<path d="M27.7417 23.5002C29.7852 21.6632 31.2173 19.2601 31.85 16.6065C32.4826 13.9529 32.2863 11.1727 31.2867 8.63104C30.2872 6.08936 28.5312 3.90496 26.2492 2.36462C23.9672 0.824278 21.2659 0 18.5 0C15.7341 0 13.0328 0.824278 10.7508 2.36462C8.46883 3.90496 6.7128 6.08936 5.71325 8.63104C4.71371 11.1727 4.51738 13.9529 5.15005 16.6065C5.78271 19.2601 7.21479 21.6632 9.25828 23.5002C3.7265 25.9568 0 30.5434 0 35.7993C0 43.6423 8.28111 50 18.5 50C28.7189 50 37 43.6423 37 35.7993C37 30.5434 33.2735 25.9568 27.7417 23.5002Z" fill="#FAD06A"/>
</svg>
